%TF.GenerationSoftware,KiCad,Pcbnew,9.0.9*%
%TF.CreationDate,2026-09-19T11:54:36+00:00*%
%TF.ProjectId,altimeter,616c7469-6d65-4746-9572-2e6b69636164,rev?*%
%TF.SameCoordinates,Original*%
%TF.FileFunction,Copper,L2,Inr*%
%TF.FilePolarity,Positive*%
%FSLAX46Y46*%
G04 Gerber Fmt 4.6, Leading zero omitted, Abs format (unit mm)*
G04 Created by KiCad (PCBNEW 9.0.9) date 2026-09-19 11:54:36*
%MOMM*%
%LPD*%
G01*
G04 APERTURE LIST*
%TA.AperFunction,ComponentPad*%
%ADD10C,6.197600*%
%TD*%
%TA.AperFunction,ComponentPad*%
%ADD11R,2.000000X2.000000*%
%TD*%
%TA.AperFunction,ComponentPad*%
%ADD12C,2.000000*%
%TD*%
%TA.AperFunction,ComponentPad*%
%ADD13C,0.800000*%
%TD*%
%TA.AperFunction,ComponentPad*%
%ADD14C,6.400000*%
%TD*%
%TA.AperFunction,ComponentPad*%
%ADD15R,2.743200X2.743200*%
%TD*%
%TA.AperFunction,ComponentPad*%
%ADD16C,2.743200*%
%TD*%
%TA.AperFunction,ComponentPad*%
%ADD17R,1.200000X1.200000*%
%TD*%
%TA.AperFunction,ComponentPad*%
%ADD18C,1.200000*%
%TD*%
%TA.AperFunction,ComponentPad*%
%ADD19C,3.800000*%
%TD*%
%TA.AperFunction,ComponentPad*%
%ADD20C,1.000000*%
%TD*%
%TA.AperFunction,ComponentPad*%
%ADD21O,1.000000X1.000000*%
%TD*%
%TA.AperFunction,ViaPad*%
%ADD22C,0.762000*%
%TD*%
%TA.AperFunction,ViaPad*%
%ADD23C,0.600000*%
%TD*%
%TA.AperFunction,Conductor*%
%ADD24C,5.080000*%
%TD*%
G04 APERTURE END LIST*
D10*
%TO.N,+12V*%
%TO.C,U5*%
X-8432500Y-34189000D03*
%TO.N,+PYRO*%
X-19608500Y-34189000D03*
%TO.N,GND*%
X-19608500Y-40793000D03*
%TD*%
D11*
%TO.N,+PYRO*%
%TO.C,BZ1*%
X-10679000Y15762000D03*
D12*
%TO.N,GND*%
X-10679000Y20762000D03*
%TD*%
D13*
%TO.N,GND*%
%TO.C,H2*%
X26037000Y-42063000D03*
X26739944Y-40365944D03*
X26739944Y-43760056D03*
X28437000Y-39663000D03*
D14*
X28437000Y-42063000D03*
D13*
X28437000Y-44463000D03*
X30134056Y-40365944D03*
X30134056Y-43760056D03*
X30837000Y-42063000D03*
%TD*%
D15*
%TO.N,GND*%
%TO.C,J4*%
X21335500Y-29426500D03*
D16*
%TO.N,Net-(J4-Pin_2)*%
X21335500Y-21171500D03*
%TD*%
D13*
%TO.N,GND*%
%TO.C,H1*%
X26037000Y21437000D03*
X26739944Y23134056D03*
X26739944Y19739944D03*
X28437000Y23837000D03*
D14*
X28437000Y21437000D03*
D13*
X28437000Y19037000D03*
X30134056Y23134056D03*
X30134056Y19739944D03*
X30837000Y21437000D03*
%TD*%
D17*
%TO.N,/FIRE1-*%
%TO.C,J3*%
X-36063000Y-8313000D03*
D18*
%TO.N,unconnected-(J3-Pin_2-Pad2)*%
X-36063000Y-10313000D03*
%TO.N,/FIRE2-*%
X-36063000Y-12313000D03*
%TO.N,/FIRE1+*%
X-34063000Y-8313000D03*
%TO.N,unconnected-(J3-Pin_5-Pad5)*%
X-34063000Y-10313000D03*
%TO.N,/FIRE2+*%
X-34063000Y-12313000D03*
%TD*%
D13*
%TO.N,GND*%
%TO.C,H3*%
X-37463000Y21437000D03*
X-36760056Y23134056D03*
X-36760056Y19739944D03*
X-35063000Y23837000D03*
D14*
X-35063000Y21437000D03*
D13*
X-35063000Y19037000D03*
X-33365944Y23134056D03*
X-33365944Y19739944D03*
X-32663000Y21437000D03*
%TD*%
D19*
%TO.N,*%
%TO.C,J1*%
X25402351Y4603000D03*
X25402351Y14903000D03*
D20*
%TO.N,/GPS_PWR*%
X25402351Y11003000D03*
%TO.N,/GPSRESET*%
X25402351Y9753000D03*
%TO.N,/GPSPV*%
X25402351Y8503000D03*
%TO.N,/UART4_TX*%
X26652351Y11003000D03*
%TO.N,/UART4_RX*%
X26652351Y9753000D03*
%TO.N,GND*%
X26652351Y8503000D03*
%TD*%
D21*
%TO.N,unconnected-(J5-Pin_1-Pad1)*%
%TO.C,J5*%
X-22744000Y3295250D03*
%TO.N,/imu/Pololu_SCL*%
X-17664000Y755250D03*
%TO.N,/imu/Pololu_SDA*%
X-20204000Y755250D03*
%TO.N,GND*%
X-22744000Y755250D03*
%TO.N,+3V3*%
X-25284000Y755250D03*
%TO.N,unconnected-(J5-Pin_6-Pad6)*%
X-27824000Y755250D03*
%TD*%
D19*
%TO.N,*%
%TO.C,J2*%
X25402351Y-12288000D03*
X25402351Y-1988000D03*
D20*
%TO.N,/CHG*%
X25402351Y-5888000D03*
%TO.N,/CANL*%
X25402351Y-7138000D03*
%TO.N,/CANH*%
X25402351Y-8388000D03*
%TO.N,GND*%
X26652351Y-5888000D03*
%TO.N,unconnected-(J2-Pin_5-Pad5)*%
X26652351Y-7138000D03*
%TO.N,unconnected-(J2-Pin_6-Pad6)*%
X26652351Y-8388000D03*
%TD*%
D13*
%TO.N,GND*%
%TO.C,H4*%
X-37463000Y-42063000D03*
X-36760056Y-40365944D03*
X-36760056Y-43760056D03*
X-35063000Y-39663000D03*
D14*
X-35063000Y-42063000D03*
D13*
X-35063000Y-44463000D03*
X-33365944Y-40365944D03*
X-33365944Y-43760056D03*
X-32663000Y-42063000D03*
%TD*%
D22*
%TO.N,+PYRO*%
X-17029000Y-7392000D03*
X-16267000Y-27712000D03*
X-16140000Y-7392000D03*
X-17156000Y-26823000D03*
X-17156000Y-27712000D03*
X-25284000Y-17091600D03*
X-17029000Y-6503000D03*
X-34428000Y-915000D03*
X-16140000Y-6503000D03*
X-16267000Y-26823000D03*
%TO.N,+3V3*%
X3418000Y17754000D03*
X-900000Y-915000D03*
X18531000Y5689000D03*
X-3821000Y3022000D03*
X-1789000Y24104000D03*
X-1154000Y-22505000D03*
X-37095000Y-28347000D03*
X-37095000Y-22378000D03*
X2402000Y24104000D03*
X8117000Y17754000D03*
X8244000Y24104000D03*
X-11060000Y-20092000D03*
X-25792000Y12547000D03*
X-10425000Y-2312000D03*
X370000Y17754000D03*
X-26173000Y-1423000D03*
X8498000Y-20854000D03*
X14848000Y11658000D03*
X1767000Y4800000D03*
X2910000Y-13615000D03*
X-963500Y-3645500D03*
X-21347000Y12547000D03*
X22849000Y-4852000D03*
X14975000Y-13488000D03*
D23*
X878000Y-19584000D03*
D22*
X16753000Y3530000D03*
X-10425000Y2895000D03*
X-7123000Y-11329000D03*
X-3821000Y5816000D03*
X18785000Y21564000D03*
X-32269000Y-11075000D03*
%TO.N,/mcu/VREF*%
X-900000Y-7900000D03*
%TO.N,/mcu/VDDA*%
X-900000Y-9805000D03*
%TO.N,+12V*%
X6630500Y-28474000D03*
X9260000Y-25971500D03*
X9260000Y-28474000D03*
X8408500Y-28474000D03*
X7519500Y-25971500D03*
X4434000Y-2693000D03*
X6630500Y-25971500D03*
X7519500Y-28474000D03*
X8408500Y-25971500D03*
%TO.N,/power/3V3_P*%
X15610000Y-44476000D03*
X16753000Y-44476000D03*
X3418000Y-26315000D03*
X14467000Y-44476000D03*
%TO.N,+BATT*%
X9387000Y-16282000D03*
X10657000Y-20473000D03*
%TO.N,Net-(D2-A)*%
X-6361000Y8737000D03*
%TO.N,Net-(D3-A)*%
X-6361000Y5816000D03*
%TO.N,Net-(D4-A)*%
X-6488000Y3022000D03*
%TO.N,/imu/Pololu_SDA*%
X5323000Y736000D03*
%TO.N,/imu/Pololu_SCL*%
X6212000Y1698003D03*
%TO.N,/mcu/SDMMC1_D1*%
X13578000Y1879000D03*
X5704000Y20675000D03*
%TO.N,/mcu/SDMMC1_D3*%
X878000Y21056000D03*
X2529000Y9859400D03*
%TO.N,/mcu/SDMMC1_CK*%
X9006000Y7975000D03*
X4942000Y17881000D03*
%TO.N,/mcu/SDMMC1_CMD*%
X1763800Y17754000D03*
X8244000Y7213000D03*
%TO.N,/mcu/SDMMC1_D2*%
X7101000Y9626000D03*
X-646000Y17881000D03*
%TO.N,/mcu/SDMMC1_D0*%
X6847000Y17881000D03*
X12562000Y1879000D03*
%TO.N,/BATT_CURR*%
X4561000Y-16282000D03*
%TO.N,/3V3_CURR*%
X-10679000Y-22505000D03*
%TO.N,/FDCAN1_TX*%
X14213000Y-454600D03*
%TO.N,/FDCAN1_RX*%
X14213000Y-1550000D03*
%TO.N,/UART4_TX*%
X10911000Y1625000D03*
%TO.N,/UART4_RX*%
X12054000Y990000D03*
%TO.N,/GPSPV*%
X11800000Y7848000D03*
X9514000Y4927000D03*
%TO.N,/GPSRESET*%
X11800000Y9118000D03*
X9514000Y5943000D03*
%TO.N,/channel 1/PYRO_SHORT*%
X-4727444Y-14105399D03*
X1406211Y-13254211D03*
X2630517Y-8514325D03*
%TO.N,/channel 2/PYRO_SHORT*%
X-12550501Y-21032510D03*
X3915768Y-13363150D03*
%TO.N,GND*%
X9895000Y-33427000D03*
X16753000Y-34316000D03*
X9895000Y-35205000D03*
X4945203Y-26176163D03*
X16753000Y-33427000D03*
D23*
X-1916000Y-14631000D03*
D22*
X-900000Y-2058000D03*
X17388000Y1371000D03*
X16753000Y-35205000D03*
X-5980000Y-17933000D03*
X3037000Y4800000D03*
X-19569000Y-9551000D03*
X-900000Y-6757000D03*
X1259000Y-28855000D03*
X-8647000Y-14631000D03*
X-8647000Y-9043000D03*
X8371000Y-5868000D03*
X9895000Y-34316000D03*
X-20458000Y-12218000D03*
X14975000Y5181000D03*
X-4583000Y-22505000D03*
X7736000Y863000D03*
X10657000Y-13488000D03*
%TO.N,/CHG_CURR*%
X5554800Y-16282000D03*
%TO.N,/mcu/BATT_I*%
X3291000Y-6757000D03*
%TO.N,/mcu/3V3_I*%
X2275000Y-7011000D03*
%TO.N,/mcu/CHG_I*%
X2284600Y-5985400D03*
%TO.N,/mcu/BATT_V*%
X7482000Y-13361000D03*
%TO.N,/mcu/GPS_I*%
X10784000Y9372000D03*
X3672000Y1498000D03*
%TO.N,/channel 1/PYRO_V*%
X243000Y-11456000D03*
X-7504000Y-4344000D03*
%TO.N,/channel 1/FIRE*%
X624000Y2768000D03*
%TO.N,/channel 1/SENSE_V*%
X-26681000Y-153000D03*
X3926000Y-4852000D03*
%TO.N,/channel 1/~{FIRE}*%
X2402000Y1625000D03*
%TO.N,/channel 2/PYRO_V*%
X-7758000Y-13615000D03*
X5450000Y-10208200D03*
%TO.N,/channel 2/FIRE*%
X-3186000Y-11329000D03*
X-21877200Y-11433800D03*
X-519000Y-12599000D03*
%TO.N,/channel 2/~{FIRE}*%
X11673000Y-10186000D03*
X-32396000Y-24727500D03*
X-5726000Y-25807000D03*
%TO.N,/FIRE1+*%
X-32777000Y-5083800D03*
X-30872000Y-26000D03*
X-31761000Y-26000D03*
X-20331000Y7340000D03*
X-21220000Y7340000D03*
%TO.N,/FIRE2+*%
X-19188000Y-13742000D03*
X-19188000Y-12853000D03*
X-33031000Y-14758000D03*
%TO.N,/FIRE1-*%
X-37603000Y3022000D03*
%TO.N,Net-(U4-NRST)*%
X-900000Y-5360000D03*
%TO.N,/power/CHG_N*%
X13578000Y-20346000D03*
%TO.N,Net-(U7-SW)*%
X7228000Y-34189000D03*
X7228000Y-31649000D03*
X8244000Y-31649000D03*
X8244000Y-34189000D03*
%TO.N,Net-(U8-IN+1)*%
X1630990Y-22742209D03*
%TO.N,Net-(U8-IN-1)*%
X4527211Y-24630211D03*
%TO.N,Net-(R29-Pad2)*%
X-17537000Y2641000D03*
X-17918000Y-1677000D03*
X-18426000Y2641000D03*
X-18934000Y-1677000D03*
%TO.N,Net-(U11-OUT)*%
X-2805000Y-16536000D03*
X-21956600Y-12599000D03*
%TO.N,Net-(R41-Pad1)*%
X-23633000Y-12091000D03*
%TO.N,Net-(R43-Pad2)*%
X-12330000Y-17171000D03*
X-11441000Y-17171000D03*
%TO.N,Net-(R50-Pad2)*%
X-33285000Y-21616000D03*
%TD*%
D24*
%TO.N,GND*%
X1132000Y-39015000D02*
X-900000Y-39015000D01*
%TD*%
%TA.AperFunction,Conductor*%
%TO.N,GND*%
G36*
X-2007147Y24853815D02*
G01*
X-1961392Y24801011D01*
X-1951448Y24731853D01*
X-1980473Y24668297D01*
X-2026733Y24634939D01*
X-2082259Y24611940D01*
X-2203731Y24518731D01*
X-2296940Y24397259D01*
X-2355533Y24255803D01*
X-2355534Y24255801D01*
X-2375518Y24104002D01*
X-2375518Y24103999D01*
X-2355534Y23952200D01*
X-2355533Y23952198D01*
X-2296940Y23810742D01*
X-2296939Y23810741D01*
X-2203731Y23689269D01*
X-2082259Y23596061D01*
X-1940802Y23537467D01*
X-1864901Y23527475D01*
X-1789001Y23517482D01*
X-1789000Y23517482D01*
X-1788999Y23517482D01*
X-1738400Y23524144D01*
X-1637198Y23537467D01*
X-1495741Y23596061D01*
X-1374269Y23689269D01*
X-1281061Y23810741D01*
X-1222467Y23952198D01*
X-1202482Y24104000D01*
X-1222467Y24255802D01*
X-1281061Y24397259D01*
X-1374269Y24518731D01*
X-1495741Y24611939D01*
X-1495742Y24611940D01*
X-1551267Y24634939D01*
X-1605670Y24678780D01*
X-1627735Y24745074D01*
X-1610456Y24812774D01*
X-1559318Y24860384D01*
X-1503814Y24873500D01*
X2116814Y24873500D01*
X2183853Y24853815D01*
X2229608Y24801011D01*
X2239552Y24731853D01*
X2210527Y24668297D01*
X2164267Y24634939D01*
X2108741Y24611940D01*
X1987269Y24518731D01*
X1894060Y24397259D01*
X1835467Y24255803D01*
X1835466Y24255801D01*
X1815482Y24104002D01*
X1815482Y24103999D01*
X1835466Y23952200D01*
X1835467Y23952198D01*
X1894060Y23810742D01*
X1894061Y23810741D01*
X1987269Y23689269D01*
X2108741Y23596061D01*
X2250198Y23537467D01*
X2326099Y23527475D01*
X2401999Y23517482D01*
X2402000Y23517482D01*
X2402001Y23517482D01*
X2452600Y23524144D01*
X2553802Y23537467D01*
X2695259Y23596061D01*
X2816731Y23689269D01*
X2909939Y23810741D01*
X2968533Y23952198D01*
X2988518Y24104000D01*
X2968533Y24255802D01*
X2909939Y24397259D01*
X2816731Y24518731D01*
X2695259Y24611939D01*
X2695258Y24611940D01*
X2639733Y24634939D01*
X2585330Y24678780D01*
X2563265Y24745074D01*
X2580544Y24812774D01*
X2631682Y24860384D01*
X2687186Y24873500D01*
X7958814Y24873500D01*
X8025853Y24853815D01*
X8071608Y24801011D01*
X8081552Y24731853D01*
X8052527Y24668297D01*
X8006267Y24634939D01*
X7950741Y24611940D01*
X7829269Y24518731D01*
X7736060Y24397259D01*
X7677467Y24255803D01*
X7677466Y24255801D01*
X7657482Y24104002D01*
X7657482Y24103999D01*
X7677466Y23952200D01*
X7677467Y23952198D01*
X7736060Y23810742D01*
X7736061Y23810741D01*
X7829269Y23689269D01*
X7950741Y23596061D01*
X8092198Y23537467D01*
X8168099Y23527475D01*
X8243999Y23517482D01*
X8244000Y23517482D01*
X8244001Y23517482D01*
X8294600Y23524144D01*
X8395802Y23537467D01*
X8537259Y23596061D01*
X8658731Y23689269D01*
X8751939Y23810741D01*
X8810533Y23952198D01*
X8830518Y24104000D01*
X8810533Y24255802D01*
X8751939Y24397259D01*
X8658731Y24518731D01*
X8537259Y24611939D01*
X8537258Y24611940D01*
X8481733Y24634939D01*
X8427330Y24678780D01*
X8405265Y24745074D01*
X8422544Y24812774D01*
X8473682Y24860384D01*
X8529186Y24873500D01*
X26516637Y24873500D01*
X26583676Y24853815D01*
X26629431Y24801011D01*
X26639375Y24731853D01*
X26610350Y24668297D01*
X26584172Y24645505D01*
X26259206Y24434469D01*
X26001649Y24225905D01*
X26001649Y24225904D01*
X27496301Y22731252D01*
X27394670Y22657412D01*
X27216588Y22479330D01*
X27142748Y22377699D01*
X25648096Y23872351D01*
X25648095Y23872351D01*
X25439531Y23614794D01*
X25228310Y23289544D01*
X25052244Y22943995D01*
X24913262Y22581937D01*
X24812887Y22207331D01*
X24812886Y22207324D01*
X24752219Y21824288D01*
X24731922Y21437001D01*
X24731922Y21437000D01*
X24752219Y21049713D01*
X24812886Y20666677D01*
X24812887Y20666670D01*
X24913262Y20292064D01*
X25052244Y19930006D01*
X25228310Y19584457D01*
X25439523Y19259217D01*
X25439525Y19259215D01*
X25648096Y19001652D01*
X27142747Y20496303D01*
X27216588Y20394670D01*
X27394670Y20216588D01*
X27496301Y20142749D01*
X26001650Y18648098D01*
X26259214Y18439525D01*
X26259216Y18439524D01*
X26584456Y18228311D01*
X26930005Y18052245D01*
X27292063Y17913263D01*
X27666669Y17812888D01*
X27666676Y17812887D01*
X28049712Y17752220D01*
X28436999Y17731922D01*
X28437001Y17731922D01*
X28824287Y17752220D01*
X29207323Y17812887D01*
X29207330Y17812888D01*
X29581936Y17913263D01*
X29943994Y18052245D01*
X30289543Y18228311D01*
X30614771Y18439516D01*
X30614784Y18439526D01*
X30872348Y18648098D01*
X29377698Y20142748D01*
X29479330Y20216588D01*
X29657412Y20394670D01*
X29731252Y20496302D01*
X31225902Y19001652D01*
X31434474Y19259216D01*
X31434483Y19259229D01*
X31645505Y19584173D01*
X31698526Y19629676D01*
X31767731Y19639290D01*
X31831148Y19609963D01*
X31868642Y19551006D01*
X31873500Y19516638D01*
X31873500Y-40142637D01*
X31853815Y-40209676D01*
X31801011Y-40255431D01*
X31731853Y-40265375D01*
X31668297Y-40236350D01*
X31645505Y-40210172D01*
X31434476Y-39885216D01*
X31434475Y-39885214D01*
X31225902Y-39627650D01*
X29731251Y-41122301D01*
X29657412Y-41020670D01*
X29479330Y-40842588D01*
X29377698Y-40768748D01*
X30872349Y-39274096D01*
X30614785Y-39065525D01*
X30614783Y-39065523D01*
X30289543Y-38854310D01*
X29943994Y-38678244D01*
X29581936Y-38539262D01*
X29207330Y-38438887D01*
X29207323Y-38438886D01*
X28824287Y-38378219D01*
X28437001Y-38357922D01*
X28436999Y-38357922D01*
X28049712Y-38378219D01*
X27666676Y-38438886D01*
X27666669Y-38438887D01*
X27292063Y-38539262D01*
X26930005Y-38678244D01*
X26584456Y-38854310D01*
X26259206Y-39065531D01*
X26001649Y-39274095D01*
X26001649Y-39274096D01*
X27496301Y-40768748D01*
X27394670Y-40842588D01*
X27216588Y-41020670D01*
X27142748Y-41122301D01*
X25648096Y-39627649D01*
X25648095Y-39627649D01*
X25439531Y-39885206D01*
X25228310Y-40210456D01*
X25052244Y-40556005D01*
X24913262Y-40918063D01*
X24812887Y-41292669D01*
X24812886Y-41292676D01*
X24752219Y-41675712D01*
X24731922Y-42062999D01*
X24731922Y-42063000D01*
X24752219Y-42450287D01*
X24812886Y-42833323D01*
X24812887Y-42833330D01*
X24913262Y-43207936D01*
X25052244Y-43569994D01*
X25228310Y-43915543D01*
X25439523Y-44240783D01*
X25439525Y-44240785D01*
X25648096Y-44498348D01*
X27142747Y-43003697D01*
X27216588Y-43105330D01*
X27394670Y-43283412D01*
X27496301Y-43357251D01*
X26001650Y-44851902D01*
X26259214Y-45060475D01*
X26259216Y-45060476D01*
X26584172Y-45271505D01*
X26629675Y-45324526D01*
X26639289Y-45393731D01*
X26609962Y-45457148D01*
X26551005Y-45494642D01*
X26516637Y-45499500D01*
X18020000Y-45499500D01*
X17952961Y-45479815D01*
X17907206Y-45427011D01*
X17896000Y-45375500D01*
X17896000Y-28007055D01*
X19463900Y-28007055D01*
X19463900Y-29176500D01*
X20452914Y-29176500D01*
X20421100Y-29336439D01*
X20421100Y-29516561D01*
X20452914Y-29676500D01*
X19463900Y-29676500D01*
X19463900Y-30845944D01*
X19470301Y-30905472D01*
X19470303Y-30905479D01*
X19520545Y-31040186D01*
X19520549Y-31040193D01*
X19606709Y-31155287D01*
X19606712Y-31155290D01*
X19721806Y-31241450D01*
X19721813Y-31241454D01*
X19856520Y-31291696D01*
X19856527Y-31291698D01*
X19916055Y-31298099D01*
X19916072Y-31298100D01*
X21085500Y-31298100D01*
X21085500Y-30309086D01*
X21245439Y-30340900D01*
X21425561Y-30340900D01*
X21585500Y-30309086D01*
X21585500Y-31298100D01*
X22754928Y-31298100D01*
X22754944Y-31298099D01*
X22814472Y-31291698D01*
X22814479Y-31291696D01*
X22949186Y-31241454D01*
X22949193Y-31241450D01*
X23064287Y-31155290D01*
X23064290Y-31155287D01*
X23150450Y-31040193D01*
X23150454Y-31040186D01*
X23200696Y-30905479D01*
X23200698Y-30905472D01*
X23207099Y-30845944D01*
X23207100Y-30845927D01*
X23207100Y-29676500D01*
X22218086Y-29676500D01*
X22249900Y-29516561D01*
X22249900Y-29336439D01*
X22218086Y-29176500D01*
X23207100Y-29176500D01*
X23207100Y-28007072D01*
X23207099Y-28007055D01*
X23200698Y-27947527D01*
X23200696Y-27947520D01*
X23150454Y-27812813D01*
X23150450Y-27812806D01*
X23064290Y-27697712D01*
X23064287Y-27697709D01*
X22949193Y-27611549D01*
X22949186Y-27611545D01*
X22814479Y-27561303D01*
X22814472Y-27561301D01*
X22754944Y-27554900D01*
X21585500Y-27554900D01*
X21585500Y-28543913D01*
X21425561Y-28512100D01*
X21245439Y-28512100D01*
X21085500Y-28543913D01*
X21085500Y-27554900D01*
X19916055Y-27554900D01*
X19856527Y-27561301D01*
X19856520Y-27561303D01*
X19721813Y-27611545D01*
X19721806Y-27611549D01*
X19606712Y-27697709D01*
X19606709Y-27697712D01*
X19520549Y-27812806D01*
X19520545Y-27812813D01*
X19470303Y-27947520D01*
X19470301Y-27947527D01*
X19463900Y-28007055D01*
X17896000Y-28007055D01*
X17896000Y-27585000D01*
X-11000Y-27585000D01*
X-11000Y-45375500D01*
X-30685Y-45442539D01*
X-83489Y-45488294D01*
X-135000Y-45499500D01*
X-33142637Y-45499500D01*
X-33209676Y-45479815D01*
X-33255431Y-45427011D01*
X-33265375Y-45357853D01*
X-33236350Y-45294297D01*
X-33210172Y-45271505D01*
X-32885229Y-45060484D01*
X-32885216Y-45060474D01*
X-32627652Y-44851902D01*
X-34122302Y-43357252D01*
X-34020670Y-43283412D01*
X-33842588Y-43105330D01*
X-33768748Y-43003698D01*
X-32274098Y-44498348D01*
X-32065526Y-44240784D01*
X-32065516Y-44240771D01*
X-31854311Y-43915543D01*
X-31678245Y-43569994D01*
X-31539263Y-43207936D01*
X-31438888Y-42833330D01*
X-31438887Y-42833323D01*
X-31378220Y-42450287D01*
X-31357922Y-42063000D01*
X-31357922Y-42062999D01*
X-31378220Y-41675712D01*
X-31438887Y-41292676D01*
X-31438888Y-41292669D01*
X-31539263Y-40918063D01*
X-31587271Y-40792999D01*
X-23212239Y-40792999D01*
X-23212239Y-40793000D01*
X-23192497Y-41169694D01*
X-23133490Y-41542253D01*
X-23133490Y-41542255D01*
X-23035857Y-41906624D01*
X-22900678Y-42258776D01*
X-22729431Y-42594869D01*
X-22729430Y-42594872D01*
X-22524000Y-42911206D01*
X-22523990Y-42911219D01*
X-22325450Y-43156395D01*
X-21265591Y-42096536D01*
X-21196930Y-42186016D01*
X-21001516Y-42381430D01*
X-20912038Y-42450089D01*
X-21971897Y-43509948D01*
X-21726720Y-43708489D01*
X-21726707Y-43708499D01*
X-21410373Y-43913929D01*
X-21410370Y-43913930D01*
X-21074277Y-44085177D01*
X-20722125Y-44220356D01*
X-20357755Y-44317989D01*
X-19985195Y-44376996D01*
X-19608501Y-44396739D01*
X-19608499Y-44396739D01*
X-19231806Y-44376996D01*
X-18859247Y-44317989D01*
X-18859245Y-44317989D01*
X-18494876Y-44220356D01*
X-18142724Y-44085177D01*
X-17806631Y-43913930D01*
X-17806628Y-43913929D01*
X-17490282Y-43708491D01*
X-17245104Y-43509949D01*
X-18304964Y-42450089D01*
X-18215484Y-42381430D01*
X-18020070Y-42186016D01*
X-17951411Y-42096536D01*
X-16891551Y-43156396D01*
X-16693009Y-42911218D01*
X-16487571Y-42594872D01*
X-16487570Y-42594869D01*
X-16316323Y-42258776D01*
X-16181144Y-41906624D01*
X-16083511Y-41542255D01*
X-16083511Y-41542253D01*
X-16024504Y-41169694D01*
X-16004761Y-40793000D01*
X-16004761Y-40792999D01*
X-16024504Y-40416305D01*
X-16083511Y-40043746D01*
X-16083511Y-40043744D01*
X-16181144Y-39679375D01*
X-16316323Y-39327223D01*
X-16487573Y-38991126D01*
X-16693009Y-38674782D01*
X-16891552Y-38429603D01*
X-17951411Y-39489462D01*
X-18020070Y-39399984D01*
X-18215484Y-39204570D01*
X-18304965Y-39135909D01*
X-17245105Y-38076050D01*
X-17490281Y-37877510D01*
X-17490294Y-37877500D01*
X-17806628Y-37672070D01*
X-17806631Y-37672069D01*
X-18142724Y-37500822D01*
X-18287836Y-37445119D01*
X-18343368Y-37402717D01*
X-18367161Y-37337023D01*
X-18351659Y-37268895D01*
X-18301786Y-37219962D01*
X-18295464Y-37216816D01*
X-18060819Y-37108257D01*
X-18060810Y-37108253D01*
X-17754256Y-36923805D01*
X-17469441Y-36707295D01*
X-17209705Y-36461259D01*
X-16978092Y-36188584D01*
X-16777319Y-35892465D01*
X-16609738Y-35576375D01*
X-16477316Y-35244019D01*
X-16381603Y-34899294D01*
X-16333148Y-34603730D01*
X-16323725Y-34546255D01*
X-16323725Y-34546252D01*
X-16323723Y-34546241D01*
X-16304354Y-34189000D01*
X-16304354Y-34188997D01*
X-11736646Y-34188997D01*
X-11736646Y-34189002D01*
X-11717277Y-34546238D01*
X-11717276Y-34546255D01*
X-11659400Y-34899281D01*
X-11659395Y-34899302D01*
X-11563687Y-35244013D01*
X-11563686Y-35244015D01*
X-11431267Y-35576365D01*
X-11431258Y-35576383D01*
X-11263680Y-35892468D01*
X-11062909Y-36188582D01*
X-11062902Y-36188592D01*
X-10868168Y-36417849D01*
X-10831295Y-36461259D01*
X-10571559Y-36707295D01*
X-10286744Y-36923805D01*
X-9980190Y-37108253D01*
X-9980186Y-37108254D01*
X-9980182Y-37108257D01*
X-9655502Y-37258470D01*
X-9655491Y-37258475D01*
X-9316453Y-37372710D01*
X-8967051Y-37449619D01*
X-8611383Y-37488300D01*
X-8611377Y-37488300D01*
X-8253623Y-37488300D01*
X-8253617Y-37488300D01*
X-7897949Y-37449619D01*
X-7548547Y-37372710D01*
X-7209509Y-37258475D01*
X-6884810Y-37108253D01*
X-6578256Y-36923805D01*
X-6293441Y-36707295D01*
X-6033705Y-36461259D01*
X-5802092Y-36188584D01*
X-5601319Y-35892465D01*
X-5433738Y-35576375D01*
X-5301316Y-35244019D01*
X-5205603Y-34899294D01*
X-5157148Y-34603730D01*
X-5147725Y-34546255D01*
X-5147725Y-34546252D01*
X-5147723Y-34546241D01*
X-5128354Y-34189000D01*
X-5147723Y-33831759D01*
X-5156232Y-33779857D01*
X-5205601Y-33478718D01*
X-5205602Y-33478717D01*
X-5205603Y-33478706D01*
X-5248705Y-33323470D01*
X-5301314Y-33133986D01*
X-5301315Y-33133984D01*
X-5433734Y-32801634D01*
X-5433743Y-32801616D01*
X-5601321Y-32485531D01*
X-5704166Y-32333847D01*
X-5802092Y-32189416D01*
X-5802096Y-32189411D01*
X-5802099Y-32189407D01*
X-6012031Y-31942258D01*
X-6033705Y-31916741D01*
X-6293441Y-31670705D01*
X-6293448Y-31670699D01*
X-6293451Y-31670697D01*
X-6361012Y-31619339D01*
X-6578256Y-31454195D01*
X-6837687Y-31298100D01*
X-6884806Y-31269749D01*
X-6884819Y-31269742D01*
X-7209499Y-31119529D01*
X-7209504Y-31119527D01*
X-7209509Y-31119525D01*
X-7444958Y-31040193D01*
X-7548548Y-31005289D01*
X-7897951Y-30928380D01*
X-8253616Y-30889700D01*
X-8253617Y-30889700D01*
X-8611383Y-30889700D01*
X-8611385Y-30889700D01*
X-8967050Y-30928380D01*
X-9316453Y-31005289D01*
X-9545504Y-31082466D01*
X-9655491Y-31119525D01*
X-9655494Y-31119526D01*
X-9655502Y-31119529D01*
X-9980182Y-31269742D01*
X-9980195Y-31269749D01*
X-10235297Y-31423239D01*
X-10286744Y-31454195D01*
X-10343315Y-31497199D01*
X-10571550Y-31670697D01*
X-10571559Y-31670705D01*
X-10831289Y-31916734D01*
X-10831294Y-31916739D01*
X-11062902Y-32189407D01*
X-11062909Y-32189417D01*
X-11263680Y-32485531D01*
X-11431258Y-32801616D01*
X-11431267Y-32801634D01*
X-11563686Y-33133984D01*
X-11563687Y-33133986D01*
X-11659395Y-33478697D01*
X-11659400Y-33478718D01*
X-11717276Y-33831744D01*
X-11717277Y-33831761D01*
X-11736646Y-34188997D01*
X-16304354Y-34188997D01*
X-16323723Y-33831759D01*
X-16332232Y-33779857D01*
X-16381601Y-33478718D01*
X-16381602Y-33478717D01*
X-16381603Y-33478706D01*
X-16424705Y-33323470D01*
X-16477314Y-33133986D01*
X-16477315Y-33133984D01*
X-16609734Y-32801634D01*
X-16609743Y-32801616D01*
X-16777321Y-32485531D01*
X-16880166Y-32333847D01*
X-16978092Y-32189416D01*
X-16978096Y-32189411D01*
X-16978099Y-32189407D01*
X-17188031Y-31942258D01*
X-17209705Y-31916741D01*
X-17469441Y-31670705D01*
X-17469448Y-31670699D01*
X-17469451Y-31670697D01*
X-17537012Y-31619339D01*
X-17754256Y-31454195D01*
X-18013687Y-31298100D01*
X-18060806Y-31269749D01*
X-18060819Y-31269742D01*
X-18385499Y-31119529D01*
X-18385504Y-31119527D01*
X-18385509Y-31119525D01*
X-18620958Y-31040193D01*
X-18724548Y-31005289D01*
X-19073951Y-30928380D01*
X-19429616Y-30889700D01*
X-19429617Y-30889700D01*
X-19787383Y-30889700D01*
X-19787385Y-30889700D01*
X-20143050Y-30928380D01*
X-20492453Y-31005289D01*
X-20721504Y-31082466D01*
X-20831491Y-31119525D01*
X-20831494Y-31119526D01*
X-20831502Y-31119529D01*
X-21156182Y-31269742D01*
X-21156195Y-31269749D01*
X-21411297Y-31423239D01*
X-21462744Y-31454195D01*
X-21519315Y-31497199D01*
X-21747550Y-31670697D01*
X-21747559Y-31670705D01*
X-22007289Y-31916734D01*
X-22007294Y-31916739D01*
X-22238902Y-32189407D01*
X-22238909Y-32189417D01*
X-22439680Y-32485531D01*
X-22607258Y-32801616D01*
X-22607267Y-32801634D01*
X-22739686Y-33133984D01*
X-22739687Y-33133986D01*
X-22835395Y-33478697D01*
X-22835400Y-33478718D01*
X-22893276Y-33831744D01*
X-22893277Y-33831761D01*
X-22912646Y-34188997D01*
X-22912646Y-34189002D01*
X-22893277Y-34546238D01*
X-22893276Y-34546255D01*
X-22835400Y-34899281D01*
X-22835395Y-34899302D01*
X-22739687Y-35244013D01*
X-22739686Y-35244015D01*
X-22607267Y-35576365D01*
X-22607258Y-35576383D01*
X-22439680Y-35892468D01*
X-22238909Y-36188582D01*
X-22238902Y-36188592D01*
X-22044168Y-36417849D01*
X-22007295Y-36461259D01*
X-21747559Y-36707295D01*
X-21462744Y-36923805D01*
X-21156190Y-37108253D01*
X-21156186Y-37108254D01*
X-21156182Y-37108257D01*
X-20921537Y-37216816D01*
X-20868959Y-37262830D01*
X-20849605Y-37329966D01*
X-20869619Y-37396907D01*
X-20922648Y-37442402D01*
X-20929165Y-37445119D01*
X-21074277Y-37500822D01*
X-21410374Y-37672072D01*
X-21726724Y-37877512D01*
X-21971897Y-38076050D01*
X-20912037Y-39135910D01*
X-21001516Y-39204570D01*
X-21196930Y-39399984D01*
X-21265590Y-39489463D01*
X-22325450Y-38429603D01*
X-22523988Y-38674776D01*
X-22729428Y-38991126D01*
X-22900678Y-39327223D01*
X-23035857Y-39679375D01*
X-23133490Y-40043744D01*
X-23133490Y-40043746D01*
X-23192497Y-40416305D01*
X-23212239Y-40792999D01*
X-31587271Y-40792999D01*
X-31678245Y-40556005D01*
X-31854311Y-40210456D01*
X-32065524Y-39885216D01*
X-32065525Y-39885214D01*
X-32274098Y-39627650D01*
X-33768749Y-41122301D01*
X-33842588Y-41020670D01*
X-34020670Y-40842588D01*
X-34122302Y-40768748D01*
X-32627651Y-39274096D01*
X-32885215Y-39065525D01*
X-32885217Y-39065523D01*
X-33210457Y-38854310D01*
X-33556006Y-38678244D01*
X-33918064Y-38539262D01*
X-34292670Y-38438887D01*
X-34292677Y-38438886D01*
X-34675713Y-38378219D01*
X-35062999Y-38357922D01*
X-35063001Y-38357922D01*
X-35450288Y-38378219D01*
X-35833324Y-38438886D01*
X-35833331Y-38438887D01*
X-36207937Y-38539262D01*
X-36569995Y-38678244D01*
X-36915544Y-38854310D01*
X-37240794Y-39065531D01*
X-37498351Y-39274095D01*
X-37498351Y-39274096D01*
X-36003699Y-40768748D01*
X-36105330Y-40842588D01*
X-36283412Y-41020670D01*
X-36357252Y-41122301D01*
X-37851904Y-39627649D01*
X-37851905Y-39627649D01*
X-38060469Y-39885206D01*
X-38271505Y-40210172D01*
X-38324526Y-40255675D01*
X-38393731Y-40265289D01*
X-38457148Y-40235962D01*
X-38494642Y-40177005D01*
X-38499500Y-40142637D01*
X-38499500Y-28346998D01*
X-37681518Y-28346998D01*
X-37681518Y-28347001D01*
X-37661534Y-28498800D01*
X-37661533Y-28498802D01*
X-37602940Y-28640258D01*
X-37602939Y-28640259D01*
X-37509731Y-28761731D01*
X-37388259Y-28854939D01*
X-37246802Y-28913533D01*
X-37170901Y-28923525D01*
X-37095001Y-28933518D01*
X-37095000Y-28933518D01*
X-37094999Y-28933518D01*
X-37021260Y-28923810D01*
X-36943198Y-28913533D01*
X-36801741Y-28854939D01*
X-36680269Y-28761731D01*
X-36587061Y-28640259D01*
X-36528467Y-28498802D01*
X-36508482Y-28347000D01*
X-36528467Y-28195198D01*
X-36587061Y-28053741D01*
X-36680269Y-27932269D01*
X-36801741Y-27839061D01*
X-36801742Y-27839060D01*
X-36943198Y-27780467D01*
X-36943200Y-27780466D01*
X-37094999Y-27760482D01*
X-37095001Y-27760482D01*
X-37246801Y-27780466D01*
X-37246803Y-27780467D01*
X-37388259Y-27839060D01*
X-37509731Y-27932269D01*
X-37602940Y-28053741D01*
X-37661533Y-28195197D01*
X-37661534Y-28195199D01*
X-37681518Y-28346998D01*
X-38499500Y-28346998D01*
X-38499500Y-26822998D01*
X-17742518Y-26822998D01*
X-17742518Y-26823001D01*
X-17722534Y-26974800D01*
X-17722533Y-26974802D01*
X-17663940Y-27116258D01*
X-17605811Y-27192014D01*
X-17580617Y-27257183D01*
X-17594656Y-27325628D01*
X-17605811Y-27342986D01*
X-17663940Y-27418741D01*
X-17722533Y-27560197D01*
X-17722534Y-27560199D01*
X-17742518Y-27711998D01*
X-17742518Y-27712001D01*
X-17722534Y-27863800D01*
X-17722533Y-27863802D01*
X-17663940Y-28005258D01*
X-17663939Y-28005259D01*
X-17570731Y-28126731D01*
X-17449259Y-28219939D01*
X-17307802Y-28278533D01*
X-17231901Y-28288525D01*
X-17156001Y-28298518D01*
X-17156000Y-28298518D01*
X-17155999Y-28298518D01*
X-17105400Y-28291856D01*
X-17004198Y-28278533D01*
X-16862741Y-28219939D01*
X-16786984Y-28161808D01*
X-16721818Y-28136616D01*
X-16653373Y-28150654D01*
X-16636025Y-28161802D01*
X-16560259Y-28219939D01*
X-16418802Y-28278533D01*
X-16342901Y-28288525D01*
X-16267001Y-28298518D01*
X-16267000Y-28298518D01*
X-16266999Y-28298518D01*
X-16216400Y-28291856D01*
X-16115198Y-28278533D01*
X-15973741Y-28219939D01*
X-15852269Y-28126731D01*
X-15759061Y-28005259D01*
X-15700467Y-27863802D01*
X-15680482Y-27712000D01*
X-15700467Y-27560198D01*
X-15759061Y-27418741D01*
X-15817192Y-27342983D01*
X-15842384Y-27277818D01*
X-15828346Y-27209373D01*
X-15817198Y-27192024D01*
X-15759061Y-27116259D01*
X-15700467Y-26974802D01*
X-15680482Y-26823000D01*
X-15700467Y-26671198D01*
X-15759061Y-26529741D01*
X-15852269Y-26408269D01*
X-15973741Y-26315061D01*
X-15973742Y-26315060D01*
X-16115198Y-26256467D01*
X-16115200Y-26256466D01*
X-16266999Y-26236482D01*
X-16267001Y-26236482D01*
X-16418801Y-26256466D01*
X-16418803Y-26256467D01*
X-16560259Y-26315060D01*
X-16636014Y-26373189D01*
X-16701183Y-26398383D01*
X-16769628Y-26384344D01*
X-16786986Y-26373189D01*
X-16862742Y-26315060D01*
X-17004198Y-26256467D01*
X-17004200Y-26256466D01*
X-17155999Y-26236482D01*
X-17156001Y-26236482D01*
X-17307801Y-26256466D01*
X-17307803Y-26256467D01*
X-17449259Y-26315060D01*
X-17570731Y-26408269D01*
X-17663940Y-26529741D01*
X-17722533Y-26671197D01*
X-17722534Y-26671199D01*
X-17742518Y-26822998D01*
X-38499500Y-26822998D01*
X-38499500Y-25806998D01*
X-6312518Y-25806998D01*
X-6312518Y-25807001D01*
X-6292534Y-25958800D01*
X-6292533Y-25958802D01*
X-6233940Y-26100258D01*
X-6233939Y-26100259D01*
X-6140731Y-26221731D01*
X-6019259Y-26314939D01*
X-5877802Y-26373533D01*
X-5801901Y-26383525D01*
X-5726001Y-26393518D01*
X-5726000Y-26393518D01*
X-5725999Y-26393518D01*
X-5675400Y-26386856D01*
X-5574198Y-26373533D01*
X-5432883Y-26314998D01*
X2831482Y-26314998D01*
X2831482Y-26315001D01*
X2851466Y-26466800D01*
X2851467Y-26466802D01*
X2910060Y-26608258D01*
X2910061Y-26608259D01*
X3003269Y-26729731D01*
X3124741Y-26822939D01*
X3266198Y-26881533D01*
X3342099Y-26891525D01*
X3417999Y-26901518D01*
X3418000Y-26901518D01*
X3418001Y-26901518D01*
X3468600Y-26894856D01*
X3569802Y-26881533D01*
X3711259Y-26822939D01*
X3832731Y-26729731D01*
X3925939Y-26608259D01*
X3984533Y-26466802D01*
X4004518Y-26315000D01*
X3984533Y-26163198D01*
X3925939Y-26021741D01*
X3887386Y-25971498D01*
X6043982Y-25971498D01*
X6043982Y-25971501D01*
X6063966Y-26123300D01*
X6063967Y-26123302D01*
X6122560Y-26264758D01*
X6122561Y-26264759D01*
X6215769Y-26386231D01*
X6337241Y-26479439D01*
X6478698Y-26538033D01*
X6554599Y-26548025D01*
X6630499Y-26558018D01*
X6630500Y-26558018D01*
X6630501Y-26558018D01*
X6681100Y-26551356D01*
X6782302Y-26538033D01*
X6923759Y-26479439D01*
X6999516Y-26421308D01*
X7064682Y-26396116D01*
X7133127Y-26410154D01*
X7150475Y-26421302D01*
X7226241Y-26479439D01*
X7367698Y-26538033D01*
X7443599Y-26548025D01*
X7519499Y-26558018D01*
X7519500Y-26558018D01*
X7519501Y-26558018D01*
X7570100Y-26551356D01*
X7671302Y-26538033D01*
X7812759Y-26479439D01*
X7888516Y-26421308D01*
X7953682Y-26396116D01*
X8022127Y-26410154D01*
X8039475Y-26421302D01*
X8115241Y-26479439D01*
X8256698Y-26538033D01*
X8332599Y-26548025D01*
X8408499Y-26558018D01*
X8408500Y-26558018D01*
X8408501Y-26558018D01*
X8459100Y-26551356D01*
X8560302Y-26538033D01*
X8701759Y-26479439D01*
X8758764Y-26435698D01*
X8823933Y-26410504D01*
X8892378Y-26424542D01*
X8909737Y-26435698D01*
X8966741Y-26479439D01*
X9108198Y-26538033D01*
X9184099Y-26548025D01*
X9259999Y-26558018D01*
X9260000Y-26558018D01*
X9260001Y-26558018D01*
X9310600Y-26551356D01*
X9411802Y-26538033D01*
X9553259Y-26479439D01*
X9674731Y-26386231D01*
X9767939Y-26264759D01*
X9826533Y-26123302D01*
X9846518Y-25971500D01*
X9844846Y-25958802D01*
X9826533Y-25819699D01*
X9826533Y-25819698D01*
X9767939Y-25678241D01*
X9674731Y-25556769D01*
X9553259Y-25463561D01*
X9553258Y-25463560D01*
X9411802Y-25404967D01*
X9411800Y-25404966D01*
X9260001Y-25384982D01*
X9259999Y-25384982D01*
X9108199Y-25404966D01*
X9108197Y-25404967D01*
X8966741Y-25463560D01*
X8909735Y-25507302D01*
X8844566Y-25532495D01*
X8776121Y-25518456D01*
X8758765Y-25507302D01*
X8701758Y-25463560D01*
X8560302Y-25404967D01*
X8560300Y-25404966D01*
X8408501Y-25384982D01*
X8408499Y-25384982D01*
X8256699Y-25404966D01*
X8256697Y-25404967D01*
X8115241Y-25463560D01*
X8039486Y-25521689D01*
X7974317Y-25546883D01*
X7905872Y-25532844D01*
X7888514Y-25521689D01*
X7812758Y-25463560D01*
X7671302Y-25404967D01*
X7671300Y-25404966D01*
X7519501Y-25384982D01*
X7519499Y-25384982D01*
X7367699Y-25404966D01*
X7367697Y-25404967D01*
X7226241Y-25463560D01*
X7150486Y-25521689D01*
X7085317Y-25546883D01*
X7016872Y-25532844D01*
X6999514Y-25521689D01*
X6923758Y-25463560D01*
X6782302Y-25404967D01*
X6782300Y-25404966D01*
X6630501Y-25384982D01*
X6630499Y-25384982D01*
X6478699Y-25404966D01*
X6478697Y-25404967D01*
X6337241Y-25463560D01*
X6215769Y-25556769D01*
X6122560Y-25678241D01*
X6063967Y-25819697D01*
X6063966Y-25819699D01*
X6043982Y-25971498D01*
X3887386Y-25971498D01*
X3832731Y-25900269D01*
X3711259Y-25807061D01*
X3711258Y-25807060D01*
X3569802Y-25748467D01*
X3569800Y-25748466D01*
X3418001Y-25728482D01*
X3417999Y-25728482D01*
X3266199Y-25748466D01*
X3266197Y-25748467D01*
X3124741Y-25807060D01*
X3003269Y-25900269D01*
X2910060Y-26021741D01*
X2851467Y-26163197D01*
X2851466Y-26163199D01*
X2831482Y-26314998D01*
X-5432883Y-26314998D01*
X-5432741Y-26314939D01*
X-5311269Y-26221731D01*
X-5218061Y-26100259D01*
X-5159467Y-25958802D01*
X-5141154Y-25819698D01*
X-5139482Y-25807001D01*
X-5139482Y-25806998D01*
X-5159467Y-25655199D01*
X-5159467Y-25655198D01*
X-5218061Y-25513741D01*
X-5311269Y-25392269D01*
X-5404478Y-25320747D01*
X-5432742Y-25299060D01*
X-5574198Y-25240467D01*
X-5574200Y-25240466D01*
X-5725999Y-25220482D01*
X-5726001Y-25220482D01*
X-5877801Y-25240466D01*
X-5877803Y-25240467D01*
X-6019259Y-25299060D01*
X-6140731Y-25392269D01*
X-6233940Y-25513741D01*
X-6292533Y-25655197D01*
X-6292534Y-25655199D01*
X-6312518Y-25806998D01*
X-38499500Y-25806998D01*
X-38499500Y-24727498D01*
X-32982518Y-24727498D01*
X-32982518Y-24727501D01*
X-32962534Y-24879300D01*
X-32962533Y-24879302D01*
X-32903940Y-25020758D01*
X-32903939Y-25020759D01*
X-32810731Y-25142231D01*
X-32689259Y-25235439D01*
X-32547802Y-25294033D01*
X-32509610Y-25299061D01*
X-32396001Y-25314018D01*
X-32396000Y-25314018D01*
X-32395999Y-25314018D01*
X-32345400Y-25307356D01*
X-32244198Y-25294033D01*
X-32102741Y-25235439D01*
X-31981269Y-25142231D01*
X-31888061Y-25020759D01*
X-31829467Y-24879302D01*
X-31809482Y-24727500D01*
X-31822291Y-24630209D01*
X3940693Y-24630209D01*
X3940693Y-24630212D01*
X3960677Y-24782011D01*
X3960678Y-24782013D01*
X4019271Y-24923469D01*
X4019272Y-24923470D01*
X4112480Y-25044942D01*
X4233952Y-25138150D01*
X4375409Y-25196744D01*
X4451310Y-25206736D01*
X4527210Y-25216729D01*
X4527211Y-25216729D01*
X4527212Y-25216729D01*
X4577811Y-25210067D01*
X4679013Y-25196744D01*
X4820470Y-25138150D01*
X4941942Y-25044942D01*
X5035150Y-24923470D01*
X5093744Y-24782013D01*
X5113729Y-24630211D01*
X5106552Y-24575699D01*
X5093744Y-24478410D01*
X5093744Y-24478409D01*
X5035150Y-24336952D01*
X4941942Y-24215480D01*
X4820470Y-24122272D01*
X4820469Y-24122271D01*
X4679013Y-24063678D01*
X4679011Y-24063677D01*
X4527212Y-24043693D01*
X4527210Y-24043693D01*
X4375410Y-24063677D01*
X4375408Y-24063678D01*
X4233952Y-24122271D01*
X4112480Y-24215480D01*
X4019271Y-24336952D01*
X3960678Y-24478408D01*
X3960677Y-24478410D01*
X3940693Y-24630209D01*
X-31822291Y-24630209D01*
X-31829467Y-24575698D01*
X-31888061Y-24434241D01*
X-31981269Y-24312769D01*
X-32102741Y-24219561D01*
X-32102742Y-24219560D01*
X-32244198Y-24160967D01*
X-32244200Y-24160966D01*
X-32395999Y-24140982D01*
X-32396001Y-24140982D01*
X-32547801Y-24160966D01*
X-32547803Y-24160967D01*
X-32689259Y-24219560D01*
X-32810731Y-24312769D01*
X-32903940Y-24434241D01*
X-32962533Y-24575697D01*
X-32962534Y-24575699D01*
X-32982518Y-24727498D01*
X-38499500Y-24727498D01*
X-38499500Y-22377998D01*
X-37681518Y-22377998D01*
X-37681518Y-22378001D01*
X-37661534Y-22529800D01*
X-37661533Y-22529802D01*
X-37602940Y-22671258D01*
X-37602939Y-22671259D01*
X-37509731Y-22792731D01*
X-37388259Y-22885939D01*
X-37246802Y-22944533D01*
X-37170901Y-22954525D01*
X-37095001Y-22964518D01*
X-37095000Y-22964518D01*
X-37094999Y-22964518D01*
X-37044400Y-22957856D01*
X-36943198Y-22944533D01*
X-36801741Y-22885939D01*
X-36680269Y-22792731D01*
X-36587061Y-22671259D01*
X-36528467Y-22529802D01*
X-36525202Y-22504998D01*
X-11265518Y-22504998D01*
X-11265518Y-22505001D01*
X-11245534Y-22656800D01*
X-11245533Y-22656802D01*
X-11186940Y-22798258D01*
X-11186939Y-22798259D01*
X-11093731Y-22919731D01*
X-10972259Y-23012939D01*
X-10830802Y-23071533D01*
X-10754901Y-23081525D01*
X-10679001Y-23091518D01*
X-10679000Y-23091518D01*
X-10678999Y-23091518D01*
X-10628400Y-23084856D01*
X-10527198Y-23071533D01*
X-10385741Y-23012939D01*
X-10264269Y-22919731D01*
X-10171061Y-22798259D01*
X-10112467Y-22656802D01*
X-10092482Y-22505000D01*
X-10092482Y-22504998D01*
X-1740518Y-22504998D01*
X-1740518Y-22505001D01*
X-1720534Y-22656800D01*
X-1720533Y-22656802D01*
X-1661940Y-22798258D01*
X-1661939Y-22798259D01*
X-1568731Y-22919731D01*
X-1447259Y-23012939D01*
X-1305802Y-23071533D01*
X-1229901Y-23081525D01*
X-1154001Y-23091518D01*
X-1154000Y-23091518D01*
X-1153999Y-23091518D01*
X-1103400Y-23084856D01*
X-1002198Y-23071533D01*
X-860741Y-23012939D01*
X-739269Y-22919731D01*
X-646061Y-22798259D01*
X-622843Y-22742207D01*
X1044472Y-22742207D01*
X1044472Y-22742210D01*
X1064456Y-22894009D01*
X1064457Y-22894011D01*
X1123050Y-23035467D01*
X1123051Y-23035468D01*
X1216259Y-23156940D01*
X1337731Y-23250148D01*
X1479188Y-23308742D01*
X1555089Y-23318734D01*
X1630989Y-23328727D01*
X1630990Y-23328727D01*
X1630991Y-23328727D01*
X1681590Y-23322065D01*
X1782792Y-23308742D01*
X1924249Y-23250148D01*
X2045721Y-23156940D01*
X2138929Y-23035468D01*
X2197523Y-22894011D01*
X2217508Y-22742209D01*
X2197523Y-22590407D01*
X2138929Y-22448950D01*
X2045721Y-22327478D01*
X1924249Y-22234270D01*
X1924248Y-22234269D01*
X1782792Y-22175676D01*
X1782790Y-22175675D01*
X1630991Y-22155691D01*
X1630989Y-22155691D01*
X1479189Y-22175675D01*
X1479187Y-22175676D01*
X1337731Y-22234269D01*
X1216259Y-22327478D01*
X1123050Y-22448950D01*
X1064457Y-22590406D01*
X1064456Y-22590408D01*
X1044472Y-22742207D01*
X-622843Y-22742207D01*
X-587467Y-22656802D01*
X-567482Y-22505000D01*
X-587467Y-22353198D01*
X-646061Y-22211741D01*
X-739269Y-22090269D01*
X-860741Y-21997061D01*
X-860742Y-21997060D01*
X-1002198Y-21938467D01*
X-1002200Y-21938466D01*
X-1153999Y-21918482D01*
X-1154001Y-21918482D01*
X-1305801Y-21938466D01*
X-1305803Y-21938467D01*
X-1447259Y-21997060D01*
X-1568731Y-22090269D01*
X-1661940Y-22211741D01*
X-1720533Y-22353197D01*
X-1720534Y-22353199D01*
X-1740518Y-22504998D01*
X-10092482Y-22504998D01*
X-10112467Y-22353198D01*
X-10171061Y-22211741D01*
X-10264269Y-22090269D01*
X-10385741Y-21997061D01*
X-10385742Y-21997060D01*
X-10527198Y-21938467D01*
X-10527200Y-21938466D01*
X-10678999Y-21918482D01*
X-10679001Y-21918482D01*
X-10830801Y-21938466D01*
X-10830803Y-21938467D01*
X-10972259Y-21997060D01*
X-11093731Y-22090269D01*
X-11186940Y-22211741D01*
X-11245533Y-22353197D01*
X-11245534Y-22353199D01*
X-11265518Y-22504998D01*
X-36525202Y-22504998D01*
X-36508482Y-22378000D01*
X-36528467Y-22226198D01*
X-36587061Y-22084741D01*
X-36680269Y-21963269D01*
X-36801741Y-21870061D01*
X-36801742Y-21870060D01*
X-36943198Y-21811467D01*
X-36943200Y-21811466D01*
X-37094999Y-21791482D01*
X-37095001Y-21791482D01*
X-37246801Y-21811466D01*
X-37246803Y-21811467D01*
X-37388259Y-21870060D01*
X-37509731Y-21963269D01*
X-37602940Y-22084741D01*
X-37661533Y-22226197D01*
X-37661534Y-22226199D01*
X-37681518Y-22377998D01*
X-38499500Y-22377998D01*
X-38499500Y-21615998D01*
X-33871518Y-21615998D01*
X-33871518Y-21616001D01*
X-33851534Y-21767800D01*
X-33851533Y-21767802D01*
X-33792940Y-21909258D01*
X-33792939Y-21909259D01*
X-33699731Y-22030731D01*
X-33578259Y-22123939D01*
X-33436802Y-22182533D01*
X-33360901Y-22192525D01*
X-33285001Y-22202518D01*
X-33285000Y-22202518D01*
X-33284999Y-22202518D01*
X-33234400Y-22195856D01*
X-33133198Y-22182533D01*
X-32991741Y-22123939D01*
X-32870269Y-22030731D01*
X-32777061Y-21909259D01*
X-32718467Y-21767802D01*
X-32698482Y-21616000D01*
X-32700715Y-21599042D01*
X-32718467Y-21464199D01*
X-32718467Y-21464198D01*
X-32777061Y-21322741D01*
X-32870269Y-21201269D01*
X-32991741Y-21108061D01*
X-32991742Y-21108060D01*
X-33133198Y-21049467D01*
X-33133200Y-21049466D01*
X-33262013Y-21032508D01*
X-13137019Y-21032508D01*
X-13137019Y-21032511D01*
X-13117035Y-21184310D01*
X-13117034Y-21184312D01*
X-13058441Y-21325768D01*
X-13058440Y-21325769D01*
X-12965232Y-21447241D01*
X-12843760Y-21540449D01*
X-12702303Y-21599043D01*
X-12626402Y-21609035D01*
X-12550502Y-21619028D01*
X-12550501Y-21619028D01*
X-12550500Y-21619028D01*
X-12499901Y-21612366D01*
X-12398699Y-21599043D01*
X-12257242Y-21540449D01*
X-12135770Y-21447241D01*
X-12042562Y-21325769D01*
X-11983968Y-21184312D01*
X-11966215Y-21049466D01*
X-11963983Y-21032511D01*
X-11963983Y-21032508D01*
X-11979778Y-20912532D01*
X-11983968Y-20880708D01*
X-11995032Y-20853998D01*
X7911482Y-20853998D01*
X7911482Y-20854001D01*
X7931466Y-21005800D01*
X7931467Y-21005802D01*
X7990060Y-21147258D01*
X7990061Y-21147259D01*
X8083269Y-21268731D01*
X8204741Y-21361939D01*
X8346198Y-21420533D01*
X8422099Y-21430525D01*
X8497999Y-21440518D01*
X8498000Y-21440518D01*
X8498001Y-21440518D01*
X8548600Y-21433856D01*
X8649802Y-21420533D01*
X8791259Y-21361939D01*
X8912731Y-21268731D01*
X8987338Y-21171500D01*
X19758539Y-21171500D01*
X19777954Y-21418194D01*
X19835720Y-21658808D01*
X19930416Y-21887425D01*
X20059709Y-22098411D01*
X20059713Y-22098416D01*
X20081512Y-22123939D01*
X20220420Y-22286580D01*
X20327457Y-22377998D01*
X20408583Y-22447286D01*
X20408588Y-22447290D01*
X20619574Y-22576583D01*
X20848191Y-22671279D01*
X21054673Y-22720850D01*
X21088809Y-22729046D01*
X21335500Y-22748461D01*
X21582191Y-22729046D01*
X21822808Y-22671279D01*
X22051425Y-22576583D01*
X22127764Y-22529802D01*
X22262411Y-22447290D01*
X22262411Y-22447289D01*
X22262414Y-22447288D01*
X22450580Y-22286580D01*
X22611288Y-22098414D01*
X22652765Y-22030731D01*
X22740583Y-21887425D01*
X22835279Y-21658808D01*
X22849627Y-21599043D01*
X22893046Y-21418191D01*
X22912461Y-21171500D01*
X22893046Y-20924809D01*
X22854981Y-20766258D01*
X22835279Y-20684191D01*
X22740583Y-20455574D01*
X22611290Y-20244588D01*
X22611286Y-20244583D01*
X22553449Y-20176865D01*
X22450580Y-20056420D01*
X22314500Y-19940197D01*
X22262416Y-19895713D01*
X22262411Y-19895709D01*
X22051425Y-19766416D01*
X21822808Y-19671720D01*
X21582194Y-19613954D01*
X21335500Y-19594539D01*
X21088805Y-19613954D01*
X20848191Y-19671720D01*
X20619574Y-19766416D01*
X20408588Y-19895709D01*
X20408583Y-19895713D01*
X20220420Y-20056420D01*
X20059713Y-20244583D01*
X20059709Y-20244588D01*
X19930416Y-20455574D01*
X19835720Y-20684191D01*
X19777954Y-20924805D01*
X19758539Y-21171500D01*
X8987338Y-21171500D01*
X9005939Y-21147259D01*
X9064533Y-21005802D01*
X9084518Y-20854000D01*
X9064533Y-20702198D01*
X9005939Y-20560741D01*
X8938612Y-20472998D01*
X10070482Y-20472998D01*
X10070482Y-20473001D01*
X10090466Y-20624800D01*
X10090467Y-20624802D01*
X10149060Y-20766258D01*
X10149061Y-20766259D01*
X10242269Y-20887731D01*
X10363741Y-20980939D01*
X10505198Y-21039533D01*
X10580647Y-21049466D01*
X10656999Y-21059518D01*
X10657000Y-21059518D01*
X10657001Y-21059518D01*
X10733345Y-21049467D01*
X10808802Y-21039533D01*
X10950259Y-20980939D01*
X11071731Y-20887731D01*
X11164939Y-20766259D01*
X11223533Y-20624802D01*
X11243518Y-20473000D01*
X11242593Y-20465977D01*
X11226798Y-20345998D01*
X12991482Y-20345998D01*
X12991482Y-20346001D01*
X13011466Y-20497800D01*
X13011467Y-20497802D01*
X13070060Y-20639258D01*
X13070061Y-20639259D01*
X13163269Y-20760731D01*
X13284741Y-20853939D01*
X13426198Y-20912533D01*
X13502099Y-20922525D01*
X13577999Y-20932518D01*
X13578000Y-20932518D01*
X13578001Y-20932518D01*
X13636586Y-20924805D01*
X13729802Y-20912533D01*
X13871259Y-20853939D01*
X13992731Y-20760731D01*
X14085939Y-20639259D01*
X14144533Y-20497802D01*
X14157856Y-20396600D01*
X14164518Y-20346001D01*
X14164518Y-20345998D01*
X14144533Y-20194199D01*
X14144533Y-20194198D01*
X14085939Y-20052741D01*
X13992731Y-19931269D01*
X13896427Y-19857373D01*
X13871258Y-19838060D01*
X13729802Y-19779467D01*
X13729800Y-19779466D01*
X13578001Y-19759482D01*
X13577999Y-19759482D01*
X13426199Y-19779466D01*
X13426197Y-19779467D01*
X13284741Y-19838060D01*
X13163269Y-19931269D01*
X13070060Y-20052741D01*
X13011467Y-20194197D01*
X13011466Y-20194199D01*
X12991482Y-20345998D01*
X11226798Y-20345998D01*
X11223533Y-20321199D01*
X11223533Y-20321198D01*
X11164939Y-20179741D01*
X11071731Y-20058269D01*
X10950259Y-19965061D01*
X10950258Y-19965060D01*
X10808802Y-19906467D01*
X10808800Y-19906466D01*
X10657001Y-19886482D01*
X10656999Y-19886482D01*
X10505199Y-19906466D01*
X10505197Y-19906467D01*
X10363741Y-19965060D01*
X10242269Y-20058269D01*
X10149060Y-20179741D01*
X10090467Y-20321197D01*
X10090466Y-20321199D01*
X10070482Y-20472998D01*
X8938612Y-20472998D01*
X8912731Y-20439269D01*
X8791259Y-20346061D01*
X8791258Y-20346060D01*
X8649802Y-20287467D01*
X8649800Y-20287466D01*
X8498001Y-20267482D01*
X8497999Y-20267482D01*
X8346199Y-20287466D01*
X8346197Y-20287467D01*
X8204741Y-20346060D01*
X8083269Y-20439269D01*
X7990060Y-20560741D01*
X7931467Y-20702197D01*
X7931466Y-20702199D01*
X7911482Y-20853998D01*
X-11995032Y-20853998D01*
X-12042562Y-20739251D01*
X-12135770Y-20617779D01*
X-12257242Y-20524571D01*
X-12257243Y-20524570D01*
X-12398699Y-20465977D01*
X-12398701Y-20465976D01*
X-12550500Y-20445992D01*
X-12550502Y-20445992D01*
X-12702302Y-20465976D01*
X-12702304Y-20465977D01*
X-12843760Y-20524570D01*
X-12965232Y-20617779D01*
X-13058441Y-20739251D01*
X-13117034Y-20880707D01*
X-13117035Y-20880709D01*
X-13137019Y-21032508D01*
X-33262013Y-21032508D01*
X-33284999Y-21029482D01*
X-33285001Y-21029482D01*
X-33436801Y-21049466D01*
X-33436803Y-21049467D01*
X-33578259Y-21108060D01*
X-33699731Y-21201269D01*
X-33792940Y-21322741D01*
X-33851533Y-21464197D01*
X-33851534Y-21464199D01*
X-33871518Y-21615998D01*
X-38499500Y-21615998D01*
X-38499500Y-20091998D01*
X-11646518Y-20091998D01*
X-11646518Y-20092001D01*
X-11626534Y-20243800D01*
X-11626533Y-20243802D01*
X-11567940Y-20385258D01*
X-11567939Y-20385259D01*
X-11474731Y-20506731D01*
X-11353259Y-20599939D01*
X-11211802Y-20658533D01*
X-11135901Y-20668525D01*
X-11060001Y-20678518D01*
X-11060000Y-20678518D01*
X-11059999Y-20678518D01*
X-11009400Y-20671856D01*
X-10908198Y-20658533D01*
X-10766741Y-20599939D01*
X-10645269Y-20506731D01*
X-10552061Y-20385259D01*
X-10493467Y-20243802D01*
X-10473482Y-20092000D01*
X-10474470Y-20084499D01*
X-10493467Y-19940199D01*
X-10493467Y-19940198D01*
X-10552061Y-19798741D01*
X-10645269Y-19677269D01*
X-10766741Y-19584061D01*
X-10766742Y-19584060D01*
X-10766887Y-19584000D01*
X372353Y-19584000D01*
X392834Y-19726456D01*
X417044Y-19779467D01*
X452623Y-19857373D01*
X546872Y-19966143D01*
X667947Y-20043953D01*
X667950Y-20043954D01*
X667949Y-20043954D01*
X806036Y-20084499D01*
X806038Y-20084500D01*
X806039Y-20084500D01*
X949962Y-20084500D01*
X949962Y-20084499D01*
X1088053Y-20043953D01*
X1209128Y-19966143D01*
X1303377Y-19857373D01*
X1363165Y-19726457D01*
X1383647Y-19584000D01*
X1363165Y-19441543D01*
X1303377Y-19310627D01*
X1209128Y-19201857D01*
X1088053Y-19124047D01*
X1088051Y-19124046D01*
X1088049Y-19124045D01*
X1088050Y-19124045D01*
X949963Y-19083500D01*
X949961Y-19083500D01*
X806039Y-19083500D01*
X806036Y-19083500D01*
X667949Y-19124045D01*
X546873Y-19201856D01*
X452623Y-19310626D01*
X452622Y-19310628D01*
X392834Y-19441543D01*
X372353Y-19584000D01*
X-10766887Y-19584000D01*
X-10908198Y-19525467D01*
X-10908200Y-19525466D01*
X-11059999Y-19505482D01*
X-11060001Y-19505482D01*
X-11211801Y-19525466D01*
X-11211803Y-19525467D01*
X-11353259Y-19584060D01*
X-11474731Y-19677269D01*
X-11567940Y-19798741D01*
X-11626533Y-19940197D01*
X-11626534Y-19940199D01*
X-11646518Y-20091998D01*
X-38499500Y-20091998D01*
X-38499500Y-15706713D01*
X-36413500Y-15706713D01*
X-36413500Y-15919287D01*
X-36405552Y-15969466D01*
X-36402500Y-15988741D01*
X-36380246Y-16129243D01*
X-36330612Y-16282001D01*
X-36314556Y-16331414D01*
X-36218049Y-16520820D01*
X-36093110Y-16692786D01*
X-35942787Y-16843109D01*
X-35770821Y-16968048D01*
X-35770819Y-16968049D01*
X-35770816Y-16968051D01*
X-35581412Y-17064557D01*
X-35379243Y-17130246D01*
X-35169287Y-17163500D01*
X-35169286Y-17163500D01*
X-34956714Y-17163500D01*
X-34956713Y-17163500D01*
X-34746757Y-17130246D01*
X-34627811Y-17091598D01*
X-25870518Y-17091598D01*
X-25870518Y-17091601D01*
X-25850534Y-17243400D01*
X-25850533Y-17243402D01*
X-25791940Y-17384858D01*
X-25791939Y-17384859D01*
X-25698731Y-17506331D01*
X-25577259Y-17599539D01*
X-25435802Y-17658133D01*
X-25359901Y-17668125D01*
X-25284001Y-17678118D01*
X-25284000Y-17678118D01*
X-25283999Y-17678118D01*
X-25233400Y-17671456D01*
X-25132198Y-17658133D01*
X-24990741Y-17599539D01*
X-24869269Y-17506331D01*
X-24776061Y-17384859D01*
X-24717467Y-17243402D01*
X-24707935Y-17170998D01*
X-12916518Y-17170998D01*
X-12916518Y-17171001D01*
X-12896534Y-17322800D01*
X-12896533Y-17322802D01*
X-12837940Y-17464258D01*
X-12837939Y-17464259D01*
X-12744731Y-17585731D01*
X-12623259Y-17678939D01*
X-12481802Y-17737533D01*
X-12405901Y-17747525D01*
X-12330001Y-17757518D01*
X-12330000Y-17757518D01*
X-12329999Y-17757518D01*
X-12279400Y-17750856D01*
X-12178198Y-17737533D01*
X-12036741Y-17678939D01*
X-11960984Y-17620808D01*
X-11895818Y-17595616D01*
X-11827373Y-17609654D01*
X-11810025Y-17620802D01*
X-11734259Y-17678939D01*
X-11592802Y-17737533D01*
X-11516901Y-17747525D01*
X-11441001Y-17757518D01*
X-11441000Y-17757518D01*
X-11440999Y-17757518D01*
X-11390400Y-17750856D01*
X-11289198Y-17737533D01*
X-11147741Y-17678939D01*
X-11026269Y-17585731D01*
X-10933061Y-17464259D01*
X-10874467Y-17322802D01*
X-10854482Y-17171000D01*
X-10874467Y-17019198D01*
X-10933061Y-16877741D01*
X-11026269Y-16756269D01*
X-11147741Y-16663061D01*
X-11147742Y-16663060D01*
X-11289198Y-16604467D01*
X-11289200Y-16604466D01*
X-11440999Y-16584482D01*
X-11441001Y-16584482D01*
X-11592801Y-16604466D01*
X-11592803Y-16604467D01*
X-11734259Y-16663060D01*
X-11810014Y-16721189D01*
X-11875183Y-16746383D01*
X-11943628Y-16732344D01*
X-11960986Y-16721189D01*
X-12036742Y-16663060D01*
X-12178198Y-16604467D01*
X-12178200Y-16604466D01*
X-12329999Y-16584482D01*
X-12330001Y-16584482D01*
X-12481801Y-16604466D01*
X-12481803Y-16604467D01*
X-12623259Y-16663060D01*
X-12744731Y-16756269D01*
X-12837940Y-16877741D01*
X-12896533Y-17019197D01*
X-12896534Y-17019199D01*
X-12916518Y-17170998D01*
X-24707935Y-17170998D01*
X-24697482Y-17091600D01*
X-24701043Y-17064555D01*
X-24710806Y-16990398D01*
X-24717467Y-16939798D01*
X-24776061Y-16798341D01*
X-24869269Y-16676869D01*
X-24990741Y-16583661D01*
X-24990742Y-16583660D01*
X-25105808Y-16535998D01*
X-3391518Y-16535998D01*
X-3391518Y-16536001D01*
X-3371534Y-16687800D01*
X-3371533Y-16687802D01*
X-3312940Y-16829258D01*
X-3302312Y-16843109D01*
X-3219731Y-16950731D01*
X-3098259Y-17043939D01*
X-2956802Y-17102533D01*
X-2880901Y-17112525D01*
X-2805001Y-17122518D01*
X-2805000Y-17122518D01*
X-2804999Y-17122518D01*
X-2754400Y-17115856D01*
X-2653198Y-17102533D01*
X-2511741Y-17043939D01*
X-2390269Y-16950731D01*
X-2297061Y-16829259D01*
X-2238467Y-16687802D01*
X-2224757Y-16583660D01*
X-2218482Y-16536001D01*
X-2218482Y-16535998D01*
X-2238467Y-16384199D01*
X-2238467Y-16384198D01*
X-2280800Y-16281998D01*
X3974482Y-16281998D01*
X3974482Y-16282001D01*
X3994466Y-16433800D01*
X3994467Y-16433802D01*
X4053060Y-16575258D01*
X4053061Y-16575259D01*
X4146269Y-16696731D01*
X4267741Y-16789939D01*
X4409198Y-16848533D01*
X4485099Y-16858525D01*
X4560999Y-16868518D01*
X4561000Y-16868518D01*
X4561001Y-16868518D01*
X4611600Y-16861856D01*
X4712802Y-16848533D01*
X4854259Y-16789939D01*
X4975731Y-16696731D01*
X4975731Y-16696730D01*
X4982179Y-16691783D01*
X4984303Y-16694552D01*
X5031542Y-16668758D01*
X5101234Y-16673742D01*
X5132195Y-16693640D01*
X5133621Y-16691783D01*
X5140068Y-16696730D01*
X5140069Y-16696731D01*
X5261541Y-16789939D01*
X5402998Y-16848533D01*
X5478899Y-16858525D01*
X5554799Y-16868518D01*
X5554800Y-16868518D01*
X5554801Y-16868518D01*
X5605400Y-16861856D01*
X5706602Y-16848533D01*
X5848059Y-16789939D01*
X5969531Y-16696731D01*
X6062739Y-16575259D01*
X6121333Y-16433802D01*
X6141318Y-16282000D01*
X6141318Y-16281998D01*
X8800482Y-16281998D01*
X8800482Y-16282001D01*
X8820466Y-16433800D01*
X8820467Y-16433802D01*
X8879060Y-16575258D01*
X8879061Y-16575259D01*
X8972269Y-16696731D01*
X9093741Y-16789939D01*
X9235198Y-16848533D01*
X9311099Y-16858525D01*
X9386999Y-16868518D01*
X9387000Y-16868518D01*
X9387001Y-16868518D01*
X9437600Y-16861856D01*
X9538802Y-16848533D01*
X9680259Y-16789939D01*
X9801731Y-16696731D01*
X9894939Y-16575259D01*
X9953533Y-16433802D01*
X9973518Y-16282000D01*
X9968349Y-16242741D01*
X9953533Y-16130199D01*
X9953533Y-16130198D01*
X9894939Y-15988741D01*
X9801731Y-15867269D01*
X9680259Y-15774061D01*
X9680258Y-15774060D01*
X9538802Y-15715467D01*
X9538800Y-15715466D01*
X9387001Y-15695482D01*
X9386999Y-15695482D01*
X9235199Y-15715466D01*
X9235197Y-15715467D01*
X9093741Y-15774060D01*
X8972269Y-15867269D01*
X8879060Y-15988741D01*
X8820467Y-16130197D01*
X8820466Y-16130199D01*
X8800482Y-16281998D01*
X6141318Y-16281998D01*
X6136149Y-16242741D01*
X6121333Y-16130199D01*
X6121333Y-16130198D01*
X6062739Y-15988741D01*
X5969531Y-15867269D01*
X5848059Y-15774061D01*
X5848058Y-15774060D01*
X5706602Y-15715467D01*
X5706600Y-15715466D01*
X5554801Y-15695482D01*
X5554799Y-15695482D01*
X5402999Y-15715466D01*
X5402997Y-15715467D01*
X5261541Y-15774060D01*
X5133621Y-15872217D01*
X5131496Y-15869447D01*
X5084258Y-15895242D01*
X5014566Y-15890258D01*
X4983604Y-15870359D01*
X4982179Y-15872217D01*
X4854258Y-15774060D01*
X4712802Y-15715467D01*
X4712800Y-15715466D01*
X4561001Y-15695482D01*
X4560999Y-15695482D01*
X4409199Y-15715466D01*
X4409197Y-15715467D01*
X4267741Y-15774060D01*
X4146269Y-15867269D01*
X4053060Y-15988741D01*
X3994467Y-16130197D01*
X3994466Y-16130199D01*
X3974482Y-16281998D01*
X-2280800Y-16281998D01*
X-2297061Y-16242741D01*
X-2390269Y-16121269D01*
X-2511741Y-16028061D01*
X-2511742Y-16028060D01*
X-2653198Y-15969467D01*
X-2653200Y-15969466D01*
X-2804999Y-15949482D01*
X-2805001Y-15949482D01*
X-2956801Y-15969466D01*
X-2956803Y-15969467D01*
X-3098259Y-16028060D01*
X-3219731Y-16121269D01*
X-3312940Y-16242741D01*
X-3371533Y-16384197D01*
X-3371534Y-16384199D01*
X-3391518Y-16535998D01*
X-25105808Y-16535998D01*
X-25132198Y-16525067D01*
X-25132200Y-16525066D01*
X-25283999Y-16505082D01*
X-25284001Y-16505082D01*
X-25435801Y-16525066D01*
X-25435803Y-16525067D01*
X-25577259Y-16583660D01*
X-25698731Y-16676869D01*
X-25791940Y-16798341D01*
X-25850533Y-16939797D01*
X-25850534Y-16939799D01*
X-25870518Y-17091598D01*
X-34627811Y-17091598D01*
X-34544588Y-17064557D01*
X-34355184Y-16968051D01*
X-34316295Y-16939797D01*
X-34183214Y-16843109D01*
X-34183212Y-16843106D01*
X-34183208Y-16843104D01*
X-34032896Y-16692792D01*
X-34032894Y-16692788D01*
X-34032891Y-16692786D01*
X-33907952Y-16520820D01*
X-33907953Y-16520820D01*
X-33907949Y-16520816D01*
X-33811443Y-16331412D01*
X-33745754Y-16129243D01*
X-33712500Y-15919287D01*
X-33712500Y-15706713D01*
X-33745754Y-15496757D01*
X-33811443Y-15294588D01*
X-33907949Y-15105184D01*
X-33907951Y-15105181D01*
X-33907952Y-15105179D01*
X-34032891Y-14933213D01*
X-34183214Y-14782890D01*
X-34217475Y-14757998D01*
X-33617518Y-14757998D01*
X-33617518Y-14758001D01*
X-33597534Y-14909800D01*
X-33597533Y-14909802D01*
X-33538940Y-15051258D01*
X-33538939Y-15051259D01*
X-33445731Y-15172731D01*
X-33324259Y-15265939D01*
X-33182802Y-15324533D01*
X-33106901Y-15334525D01*
X-33031001Y-15344518D01*
X-33031000Y-15344518D01*
X-33030999Y-15344518D01*
X-32980400Y-15337856D01*
X-32879198Y-15324533D01*
X-32737741Y-15265939D01*
X-32616269Y-15172731D01*
X-32523061Y-15051259D01*
X-32464467Y-14909802D01*
X-32444482Y-14758000D01*
X-32464467Y-14606198D01*
X-32523061Y-14464741D01*
X-32616269Y-14343269D01*
X-32728436Y-14257201D01*
X-32737742Y-14250060D01*
X-32879198Y-14191467D01*
X-32879200Y-14191466D01*
X-33030999Y-14171482D01*
X-33031001Y-14171482D01*
X-33182801Y-14191466D01*
X-33182803Y-14191467D01*
X-33324259Y-14250060D01*
X-33445731Y-14343269D01*
X-33538940Y-14464741D01*
X-33597533Y-14606197D01*
X-33597534Y-14606199D01*
X-33617518Y-14757998D01*
X-34217475Y-14757998D01*
X-34355180Y-14657951D01*
X-34544586Y-14561444D01*
X-34544587Y-14561443D01*
X-34544588Y-14561443D01*
X-34746757Y-14495754D01*
X-34746759Y-14495753D01*
X-34746760Y-14495753D01*
X-34908043Y-14470208D01*
X-34956713Y-14462500D01*
X-35169287Y-14462500D01*
X-35217958Y-14470208D01*
X-35379240Y-14495753D01*
X-35581415Y-14561444D01*
X-35770821Y-14657951D01*
X-35942787Y-14782890D01*
X-36093110Y-14933213D01*
X-36218049Y-15105179D01*
X-36314556Y-15294585D01*
X-36380247Y-15496760D01*
X-36411721Y-15695482D01*
X-36413500Y-15706713D01*
X-38499500Y-15706713D01*
X-38499500Y-12312996D01*
X-36868565Y-12312996D01*
X-36868565Y-12313003D01*
X-36848370Y-12492249D01*
X-36848369Y-12492254D01*
X-36788789Y-12662523D01*
X-36692816Y-12815262D01*
X-36565262Y-12942816D01*
X-36505987Y-12980061D01*
X-36428926Y-13028482D01*
X-36412522Y-13038789D01*
X-36306202Y-13075992D01*
X-36242255Y-13098368D01*
X-36242250Y-13098369D01*
X-36063004Y-13118565D01*
X-36063000Y-13118565D01*
X-36062996Y-13118565D01*
X-35883751Y-13098369D01*
X-35883748Y-13098368D01*
X-35883745Y-13098368D01*
X-35713478Y-13038789D01*
X-35560738Y-12942816D01*
X-35433184Y-12815262D01*
X-35337211Y-12662522D01*
X-35277632Y-12492255D01*
X-35265464Y-12384259D01*
X-35257435Y-12313003D01*
X-35257435Y-12312996D01*
X-34868565Y-12312996D01*
X-34868565Y-12313003D01*
X-34848370Y-12492249D01*
X-34848369Y-12492254D01*
X-34788789Y-12662523D01*
X-34692816Y-12815262D01*
X-34565262Y-12942816D01*
X-34505987Y-12980061D01*
X-34428926Y-13028482D01*
X-34412522Y-13038789D01*
X-34306202Y-13075992D01*
X-34242255Y-13098368D01*
X-34242250Y-13098369D01*
X-34063004Y-13118565D01*
X-34063000Y-13118565D01*
X-34062996Y-13118565D01*
X-33883751Y-13098369D01*
X-33883748Y-13098368D01*
X-33883745Y-13098368D01*
X-33713478Y-13038789D01*
X-33560738Y-12942816D01*
X-33433184Y-12815262D01*
X-33337211Y-12662522D01*
X-33277632Y-12492255D01*
X-33265464Y-12384259D01*
X-33257435Y-12313003D01*
X-33257435Y-12312996D01*
X-33277631Y-12133750D01*
X-33277632Y-12133745D01*
X-33292590Y-12090998D01*
X-24219518Y-12090998D01*
X-24219518Y-12091001D01*
X-24199534Y-12242800D01*
X-24199533Y-12242802D01*
X-24140940Y-12384258D01*
X-24140939Y-12384259D01*
X-24047731Y-12505731D01*
X-23926259Y-12598939D01*
X-23784802Y-12657533D01*
X-23708901Y-12667525D01*
X-23633001Y-12677518D01*
X-23633000Y-12677518D01*
X-23632999Y-12677518D01*
X-23582400Y-12670856D01*
X-23481198Y-12657533D01*
X-23339883Y-12598998D01*
X-22543118Y-12598998D01*
X-22543118Y-12599001D01*
X-22523134Y-12750800D01*
X-22523133Y-12750802D01*
X-22464540Y-12892258D01*
X-22464539Y-12892259D01*
X-22371331Y-13013731D01*
X-22249859Y-13106939D01*
X-22108402Y-13165533D01*
X-22032501Y-13175525D01*
X-21956601Y-13185518D01*
X-21956600Y-13185518D01*
X-21956599Y-13185518D01*
X-21906000Y-13178856D01*
X-21804798Y-13165533D01*
X-21663341Y-13106939D01*
X-21541869Y-13013731D01*
X-21448661Y-12892259D01*
X-21432398Y-12852998D01*
X-19774518Y-12852998D01*
X-19774518Y-12853001D01*
X-19754534Y-13004800D01*
X-19754533Y-13004802D01*
X-19695940Y-13146258D01*
X-19637811Y-13222014D01*
X-19612617Y-13287183D01*
X-19626656Y-13355628D01*
X-19637811Y-13372986D01*
X-19695940Y-13448741D01*
X-19754533Y-13590197D01*
X-19754534Y-13590199D01*
X-19774518Y-13741998D01*
X-19774518Y-13742001D01*
X-19754534Y-13893800D01*
X-19754533Y-13893802D01*
X-19695940Y-14035258D01*
X-19695939Y-14035259D01*
X-19602731Y-14156731D01*
X-19481259Y-14249939D01*
X-19339802Y-14308533D01*
X-19263901Y-14318525D01*
X-19188001Y-14328518D01*
X-19188000Y-14328518D01*
X-19187999Y-14328518D01*
X-19137400Y-14321856D01*
X-19036198Y-14308533D01*
X-18894741Y-14249939D01*
X-18773269Y-14156731D01*
X-18680061Y-14035259D01*
X-18621467Y-13893802D01*
X-18608144Y-13792600D01*
X-18601482Y-13742001D01*
X-18601482Y-13741998D01*
X-18618202Y-13614998D01*
X-8344518Y-13614998D01*
X-8344518Y-13615001D01*
X-8324534Y-13766800D01*
X-8324533Y-13766802D01*
X-8265940Y-13908258D01*
X-8265939Y-13908259D01*
X-8172731Y-14029731D01*
X-8051259Y-14122939D01*
X-7909802Y-14181533D01*
X-7834353Y-14191466D01*
X-7758001Y-14201518D01*
X-7758000Y-14201518D01*
X-7757999Y-14201518D01*
X-7681655Y-14191467D01*
X-7606198Y-14181533D01*
X-7464741Y-14122939D01*
X-7441880Y-14105397D01*
X-5313962Y-14105397D01*
X-5313962Y-14105400D01*
X-5293978Y-14257199D01*
X-5293977Y-14257201D01*
X-5235384Y-14398657D01*
X-5235383Y-14398658D01*
X-5142175Y-14520130D01*
X-5020703Y-14613338D01*
X-4879246Y-14671932D01*
X-4803345Y-14681924D01*
X-4727445Y-14691917D01*
X-4727444Y-14691917D01*
X-4727443Y-14691917D01*
X-4676844Y-14685255D01*
X-4575642Y-14671932D01*
X-4434185Y-14613338D01*
X-4312713Y-14520130D01*
X-4219505Y-14398658D01*
X-4160911Y-14257201D01*
X-4140926Y-14105399D01*
X-4144992Y-14074518D01*
X-4160911Y-13953598D01*
X-4160911Y-13953597D01*
X-4219505Y-13812140D01*
X-4312713Y-13690668D01*
X-4434185Y-13597460D01*
X-4434186Y-13597459D01*
X-4575642Y-13538866D01*
X-4575644Y-13538865D01*
X-4727443Y-13518881D01*
X-4727445Y-13518881D01*
X-4879245Y-13538865D01*
X-4879247Y-13538866D01*
X-5020703Y-13597459D01*
X-5142175Y-13690668D01*
X-5235384Y-13812140D01*
X-5293977Y-13953596D01*
X-5293978Y-13953598D01*
X-5313962Y-14105397D01*
X-7441880Y-14105397D01*
X-7343269Y-14029731D01*
X-7250061Y-13908259D01*
X-7191467Y-13766802D01*
X-7176933Y-13656408D01*
X-7171482Y-13615001D01*
X-7171482Y-13614998D01*
X-7191467Y-13463199D01*
X-7191467Y-13463198D01*
X-7250061Y-13321741D01*
X-7301880Y-13254209D01*
X819693Y-13254209D01*
X819693Y-13254212D01*
X839677Y-13406011D01*
X839678Y-13406013D01*
X898271Y-13547469D01*
X898272Y-13547470D01*
X991480Y-13668942D01*
X1112952Y-13762150D01*
X1254409Y-13820744D01*
X1299726Y-13826710D01*
X1406210Y-13840729D01*
X1406211Y-13840729D01*
X1406212Y-13840729D01*
X1459063Y-13833771D01*
X1558013Y-13820744D01*
X1699470Y-13762150D01*
X1820942Y-13668942D01*
X1862334Y-13614998D01*
X2323482Y-13614998D01*
X2323482Y-13615001D01*
X2343466Y-13766800D01*
X2343467Y-13766802D01*
X2402060Y-13908258D01*
X2402061Y-13908259D01*
X2495269Y-14029731D01*
X2616741Y-14122939D01*
X2758198Y-14181533D01*
X2833647Y-14191466D01*
X2909999Y-14201518D01*
X2910000Y-14201518D01*
X2910001Y-14201518D01*
X2986345Y-14191467D01*
X3061802Y-14181533D01*
X3203259Y-14122939D01*
X3324731Y-14029731D01*
X3417939Y-13908259D01*
X3417941Y-13908255D01*
X3422004Y-13901220D01*
X3423631Y-13902159D01*
X3460957Y-13855838D01*
X3527251Y-13833771D01*
X3594950Y-13851048D01*
X3607167Y-13859317D01*
X3622508Y-13871089D01*
X3677338Y-13893800D01*
X3763966Y-13929683D01*
X3839867Y-13939675D01*
X3915767Y-13949668D01*
X3915768Y-13949668D01*
X3915769Y-13949668D01*
X3966368Y-13943006D01*
X4067570Y-13929683D01*
X4209027Y-13871089D01*
X4330499Y-13777881D01*
X4423707Y-13656409D01*
X4482301Y-13514952D01*
X4502286Y-13363150D01*
X4502003Y-13360998D01*
X6895482Y-13360998D01*
X6895482Y-13361001D01*
X6915466Y-13512800D01*
X6915467Y-13512802D01*
X6974060Y-13654258D01*
X6995747Y-13682522D01*
X7067269Y-13775731D01*
X7188741Y-13868939D01*
X7330198Y-13927533D01*
X7406099Y-13937525D01*
X7481999Y-13947518D01*
X7482000Y-13947518D01*
X7482001Y-13947518D01*
X7532600Y-13940856D01*
X7633802Y-13927533D01*
X7775259Y-13868939D01*
X7896731Y-13775731D01*
X7989939Y-13654259D01*
X8048533Y-13512802D01*
X8051798Y-13487998D01*
X14388482Y-13487998D01*
X14388482Y-13488001D01*
X14408466Y-13639800D01*
X14408467Y-13639802D01*
X14467060Y-13781258D01*
X14467061Y-13781259D01*
X14560269Y-13902731D01*
X14681741Y-13995939D01*
X14823198Y-14054533D01*
X14899099Y-14064525D01*
X14974999Y-14074518D01*
X14975000Y-14074518D01*
X14975001Y-14074518D01*
X15025600Y-14067856D01*
X15126802Y-14054533D01*
X15268259Y-13995939D01*
X15389731Y-13902731D01*
X15482939Y-13781259D01*
X15541533Y-13639802D01*
X15554856Y-13538600D01*
X15561518Y-13488001D01*
X15561518Y-13487998D01*
X15541533Y-13336199D01*
X15541533Y-13336198D01*
X15482939Y-13194741D01*
X15389731Y-13073269D01*
X15268259Y-12980061D01*
X15268258Y-12980060D01*
X15126802Y-12921467D01*
X15126800Y-12921466D01*
X14975001Y-12901482D01*
X14974999Y-12901482D01*
X14823199Y-12921466D01*
X14823197Y-12921467D01*
X14681741Y-12980060D01*
X14560269Y-13073269D01*
X14467060Y-13194741D01*
X14408467Y-13336197D01*
X14408466Y-13336199D01*
X14388482Y-13487998D01*
X8051798Y-13487998D01*
X8068518Y-13361000D01*
X8063349Y-13321741D01*
X8048533Y-13209199D01*
X8048533Y-13209198D01*
X7989939Y-13067741D01*
X7896731Y-12946269D01*
X7803522Y-12874747D01*
X7775258Y-12853060D01*
X7633802Y-12794467D01*
X7633800Y-12794466D01*
X7482001Y-12774482D01*
X7481999Y-12774482D01*
X7330199Y-12794466D01*
X7330197Y-12794467D01*
X7188741Y-12853060D01*
X7067269Y-12946269D01*
X6974060Y-13067741D01*
X6915467Y-13209197D01*
X6915466Y-13209199D01*
X6895482Y-13360998D01*
X4502003Y-13360998D01*
X4496834Y-13321741D01*
X4487944Y-13254209D01*
X4482301Y-13211348D01*
X4423707Y-13069891D01*
X4330499Y-12948419D01*
X4237290Y-12876897D01*
X4209026Y-12855210D01*
X4067570Y-12796617D01*
X4067568Y-12796616D01*
X3915769Y-12776632D01*
X3915767Y-12776632D01*
X3763967Y-12796616D01*
X3763965Y-12796617D01*
X3622509Y-12855210D01*
X3501037Y-12948419D01*
X3407826Y-13069894D01*
X3403764Y-13076930D01*
X3402140Y-13075992D01*
X3364788Y-13122327D01*
X3298489Y-13144379D01*
X3230793Y-13127087D01*
X3218601Y-13118833D01*
X3203258Y-13107060D01*
X3061802Y-13048467D01*
X3061800Y-13048466D01*
X2910001Y-13028482D01*
X2909999Y-13028482D01*
X2758199Y-13048466D01*
X2758197Y-13048467D01*
X2616741Y-13107060D01*
X2495269Y-13200269D01*
X2402060Y-13321741D01*
X2343467Y-13463197D01*
X2343466Y-13463199D01*
X2323482Y-13614998D01*
X1862334Y-13614998D01*
X1914150Y-13547470D01*
X1972744Y-13406013D01*
X1992729Y-13254211D01*
X1985627Y-13200269D01*
X1972744Y-13102410D01*
X1972744Y-13102409D01*
X1914150Y-12960952D01*
X1820942Y-12839480D01*
X1699470Y-12746272D01*
X1699469Y-12746271D01*
X1558013Y-12687678D01*
X1558011Y-12687677D01*
X1406212Y-12667693D01*
X1406210Y-12667693D01*
X1254410Y-12687677D01*
X1254408Y-12687678D01*
X1112952Y-12746271D01*
X991480Y-12839480D01*
X898271Y-12960952D01*
X839678Y-13102408D01*
X839677Y-13102410D01*
X819693Y-13254209D01*
X-7301880Y-13254209D01*
X-7343269Y-13200269D01*
X-7449399Y-13118833D01*
X-7464742Y-13107060D01*
X-7606198Y-13048467D01*
X-7606200Y-13048466D01*
X-7757999Y-13028482D01*
X-7758001Y-13028482D01*
X-7909801Y-13048466D01*
X-7909803Y-13048467D01*
X-8051259Y-13107060D01*
X-8172731Y-13200269D01*
X-8265940Y-13321741D01*
X-8324533Y-13463197D01*
X-8324534Y-13463199D01*
X-8344518Y-13614998D01*
X-18618202Y-13614998D01*
X-18621467Y-13590199D01*
X-18621467Y-13590198D01*
X-18680061Y-13448741D01*
X-18738192Y-13372983D01*
X-18763384Y-13307818D01*
X-18749346Y-13239373D01*
X-18738198Y-13222024D01*
X-18680061Y-13146259D01*
X-18621467Y-13004802D01*
X-18607865Y-12901482D01*
X-18601482Y-12853001D01*
X-18601482Y-12852998D01*
X-18621467Y-12701199D01*
X-18621467Y-12701198D01*
X-18663800Y-12598998D01*
X-1105518Y-12598998D01*
X-1105518Y-12599001D01*
X-1085534Y-12750800D01*
X-1085533Y-12750802D01*
X-1026940Y-12892258D01*
X-1026939Y-12892259D01*
X-933731Y-13013731D01*
X-812259Y-13106939D01*
X-670802Y-13165533D01*
X-594901Y-13175525D01*
X-519001Y-13185518D01*
X-519000Y-13185518D01*
X-518999Y-13185518D01*
X-468400Y-13178856D01*
X-367198Y-13165533D01*
X-225741Y-13106939D01*
X-104269Y-13013731D01*
X-11061Y-12892259D01*
X47533Y-12750802D01*
X67518Y-12599000D01*
X62349Y-12559741D01*
X47533Y-12447199D01*
X47533Y-12447198D01*
X-11061Y-12305741D01*
X-24674Y-12288000D01*
X23296943Y-12288000D01*
X23316552Y-12574680D01*
X23316552Y-12574684D01*
X23316553Y-12574686D01*
X23333769Y-12657533D01*
X23375017Y-12856034D01*
X23375018Y-12856037D01*
X23471245Y-13126793D01*
X23471244Y-13126793D01*
X23603449Y-13381935D01*
X23769163Y-13616700D01*
X23838245Y-13690668D01*
X23965298Y-13826708D01*
X24188204Y-14008055D01*
X24432688Y-14156730D01*
X24433733Y-14157365D01*
X24620588Y-14238526D01*
X24697293Y-14271844D01*
X24973993Y-14349371D01*
X25224271Y-14383771D01*
X25258672Y-14388500D01*
X25258673Y-14388500D01*
X25546030Y-14388500D01*
X25576721Y-14384281D01*
X25830709Y-14349371D01*
X26107409Y-14271844D01*
X26220366Y-14222779D01*
X26370968Y-14157365D01*
X26370971Y-14157363D01*
X26370976Y-14157361D01*
X26616498Y-14008055D01*
X26839404Y-13826708D01*
X27035540Y-13616698D01*
X27201252Y-13381936D01*
X27333455Y-13126797D01*
X27429685Y-12856032D01*
X27488149Y-12574686D01*
X27507759Y-12288000D01*
X27488149Y-12001314D01*
X27429685Y-11719968D01*
X27333456Y-11449206D01*
X27333457Y-11449206D01*
X27201252Y-11194064D01*
X27035538Y-10959299D01*
X26930920Y-10847282D01*
X26839404Y-10749292D01*
X26616498Y-10567945D01*
X26616497Y-10567944D01*
X26370968Y-10418634D01*
X26107414Y-10304158D01*
X26107412Y-10304157D01*
X26107409Y-10304156D01*
X25977929Y-10267877D01*
X25830715Y-10226630D01*
X25830710Y-10226629D01*
X25830709Y-10226629D01*
X25688369Y-10207064D01*
X25546030Y-10187500D01*
X25546029Y-10187500D01*
X25258673Y-10187500D01*
X25258672Y-10187500D01*
X24973993Y-10226629D01*
X24973986Y-10226630D01*
X24766212Y-10284845D01*
X24697293Y-10304156D01*
X24697290Y-10304156D01*
X24697287Y-10304158D01*
X24697286Y-10304158D01*
X24433733Y-10418634D01*
X24188204Y-10567944D01*
X23965301Y-10749289D01*
X23769163Y-10959299D01*
X23603449Y-11194064D01*
X23471245Y-11449206D01*
X23375018Y-11719962D01*
X23375017Y-11719965D01*
X23316552Y-12001319D01*
X23296943Y-12288000D01*
X-24674Y-12288000D01*
X-95552Y-12195629D01*
X-120746Y-12130460D01*
X-106707Y-12062015D01*
X-57893Y-12012025D01*
X10198Y-11996362D01*
X50271Y-12005580D01*
X91198Y-12022533D01*
X166647Y-12032466D01*
X242999Y-12042518D01*
X243000Y-12042518D01*
X243001Y-12042518D01*
X319345Y-12032467D01*
X394802Y-12022533D01*
X536259Y-11963939D01*
X657731Y-11870731D01*
X750939Y-11749259D01*
X809533Y-11607802D01*
X829518Y-11456000D01*
X826595Y-11433801D01*
X809533Y-11304199D01*
X809533Y-11304198D01*
X750939Y-11162741D01*
X657731Y-11041269D01*
X536259Y-10948061D01*
X536258Y-10948060D01*
X394802Y-10889467D01*
X394800Y-10889466D01*
X243001Y-10869482D01*
X242999Y-10869482D01*
X91199Y-10889466D01*
X91197Y-10889467D01*
X-50259Y-10948060D01*
X-171731Y-11041269D01*
X-264940Y-11162741D01*
X-323533Y-11304197D01*
X-323534Y-11304199D01*
X-343518Y-11455998D01*
X-343518Y-11456001D01*
X-323534Y-11607800D01*
X-323533Y-11607802D01*
X-264940Y-11749258D01*
X-180449Y-11859370D01*
X-155255Y-11924539D01*
X-169294Y-11992984D01*
X-218108Y-12042974D01*
X-286199Y-12058637D01*
X-326277Y-12049417D01*
X-367198Y-12032467D01*
X-367200Y-12032466D01*
X-518999Y-12012482D01*
X-519001Y-12012482D01*
X-670801Y-12032466D01*
X-670803Y-12032467D01*
X-812259Y-12091060D01*
X-933731Y-12184269D01*
X-1026940Y-12305741D01*
X-1085533Y-12447197D01*
X-1085534Y-12447199D01*
X-1105518Y-12598998D01*
X-18663800Y-12598998D01*
X-18680061Y-12559741D01*
X-18773269Y-12438269D01*
X-18894741Y-12345061D01*
X-18894742Y-12345060D01*
X-19036198Y-12286467D01*
X-19036200Y-12286466D01*
X-19187999Y-12266482D01*
X-19188001Y-12266482D01*
X-19339801Y-12286466D01*
X-19339803Y-12286467D01*
X-19481259Y-12345060D01*
X-19602731Y-12438269D01*
X-19695940Y-12559741D01*
X-19754533Y-12701197D01*
X-19754534Y-12701199D01*
X-19774518Y-12852998D01*
X-21432398Y-12852998D01*
X-21390067Y-12750802D01*
X-21370082Y-12599000D01*
X-21375251Y-12559741D01*
X-21390067Y-12447199D01*
X-21390067Y-12447198D01*
X-21448661Y-12305741D01*
X-21541869Y-12184269D01*
X-21541870Y-12184268D01*
X-21593067Y-12144983D01*
X-21634269Y-12088555D01*
X-21638424Y-12018809D01*
X-21604211Y-11957889D01*
X-21590036Y-11947147D01*
X-21590389Y-11946687D01*
X-21571035Y-11931835D01*
X-21462469Y-11848531D01*
X-21369261Y-11727059D01*
X-21310667Y-11585602D01*
X-21290682Y-11433800D01*
X-21299311Y-11368259D01*
X-21304479Y-11328998D01*
X-7709518Y-11328998D01*
X-7709518Y-11329001D01*
X-7689534Y-11480800D01*
X-7689533Y-11480802D01*
X-7630940Y-11622258D01*
X-7630939Y-11622259D01*
X-7537731Y-11743731D01*
X-7416259Y-11836939D01*
X-7274802Y-11895533D01*
X-7198901Y-11905525D01*
X-7123001Y-11915518D01*
X-7123000Y-11915518D01*
X-7122999Y-11915518D01*
X-7072400Y-11908856D01*
X-6971198Y-11895533D01*
X-6829741Y-11836939D01*
X-6708269Y-11743731D01*
X-6615061Y-11622259D01*
X-6556467Y-11480802D01*
X-6543144Y-11379600D01*
X-6536482Y-11329001D01*
X-6536482Y-11328998D01*
X-3772518Y-11328998D01*
X-3772518Y-11329001D01*
X-3752534Y-11480800D01*
X-3752533Y-11480802D01*
X-3693940Y-11622258D01*
X-3693939Y-11622259D01*
X-3600731Y-11743731D01*
X-3479259Y-11836939D01*
X-3337802Y-11895533D01*
X-3261901Y-11905525D01*
X-3186001Y-11915518D01*
X-3186000Y-11915518D01*
X-3185999Y-11915518D01*
X-3135400Y-11908856D01*
X-3034198Y-11895533D01*
X-2892741Y-11836939D01*
X-2771269Y-11743731D01*
X-2678061Y-11622259D01*
X-2619467Y-11480802D01*
X-2606144Y-11379600D01*
X-2599482Y-11329001D01*
X-2599482Y-11328998D01*
X-2619467Y-11177199D01*
X-2619467Y-11177198D01*
X-2678061Y-11035741D01*
X-2771269Y-10914269D01*
X-2892741Y-10821061D01*
X-2892742Y-10821060D01*
X-3034198Y-10762467D01*
X-3034200Y-10762466D01*
X-3185999Y-10742482D01*
X-3186001Y-10742482D01*
X-3337801Y-10762466D01*
X-3337803Y-10762467D01*
X-3479259Y-10821060D01*
X-3600731Y-10914269D01*
X-3693940Y-11035741D01*
X-3752533Y-11177197D01*
X-3752534Y-11177199D01*
X-3772518Y-11328998D01*
X-6536482Y-11328998D01*
X-6556467Y-11177199D01*
X-6556467Y-11177198D01*
X-6615061Y-11035741D01*
X-6708269Y-10914269D01*
X-6829741Y-10821061D01*
X-6829742Y-10821060D01*
X-6971198Y-10762467D01*
X-6971200Y-10762466D01*
X-7122999Y-10742482D01*
X-7123001Y-10742482D01*
X-7274801Y-10762466D01*
X-7274803Y-10762467D01*
X-7416259Y-10821060D01*
X-7537731Y-10914269D01*
X-7630940Y-11035741D01*
X-7689533Y-11177197D01*
X-7689534Y-11177199D01*
X-7709518Y-11328998D01*
X-21304479Y-11328998D01*
X-21307744Y-11304198D01*
X-21310667Y-11281998D01*
X-21369261Y-11140541D01*
X-21462469Y-11019069D01*
X-21583941Y-10925861D01*
X-21583942Y-10925860D01*
X-21725398Y-10867267D01*
X-21725400Y-10867266D01*
X-21877199Y-10847282D01*
X-21877201Y-10847282D01*
X-22029001Y-10867266D01*
X-22029003Y-10867267D01*
X-22170459Y-10925860D01*
X-22291931Y-11019069D01*
X-22385140Y-11140541D01*
X-22443733Y-11281997D01*
X-22443734Y-11281999D01*
X-22463718Y-11433798D01*
X-22463718Y-11433801D01*
X-22443734Y-11585600D01*
X-22443733Y-11585602D01*
X-22385140Y-11727058D01*
X-22320931Y-11810738D01*
X-22291931Y-11848531D01*
X-22240734Y-11887816D01*
X-22199532Y-11944243D01*
X-22195377Y-12013989D01*
X-22229590Y-12074910D01*
X-22243763Y-12085654D01*
X-22243411Y-12086113D01*
X-22371331Y-12184269D01*
X-22464540Y-12305741D01*
X-22523133Y-12447197D01*
X-22523134Y-12447199D01*
X-22543118Y-12598998D01*
X-23339883Y-12598998D01*
X-23339741Y-12598939D01*
X-23218269Y-12505731D01*
X-23125061Y-12384259D01*
X-23066467Y-12242802D01*
X-23046482Y-12091000D01*
X-23050743Y-12058637D01*
X-23063210Y-11963939D01*
X-23066467Y-11939198D01*
X-23125061Y-11797741D01*
X-23218269Y-11676269D01*
X-23311478Y-11604747D01*
X-23339742Y-11583060D01*
X-23481198Y-11524467D01*
X-23481200Y-11524466D01*
X-23632999Y-11504482D01*
X-23633001Y-11504482D01*
X-23784801Y-11524466D01*
X-23784803Y-11524467D01*
X-23926259Y-11583060D01*
X-24047731Y-11676269D01*
X-24140940Y-11797741D01*
X-24199533Y-11939197D01*
X-24199534Y-11939199D01*
X-24219518Y-12090998D01*
X-33292590Y-12090998D01*
X-33298219Y-12074910D01*
X-33337211Y-11963478D01*
X-33350871Y-11941739D01*
X-33395488Y-11870731D01*
X-33433184Y-11810738D01*
X-33560738Y-11683184D01*
X-33627025Y-11641533D01*
X-33713477Y-11587211D01*
X-33883746Y-11527631D01*
X-33883751Y-11527630D01*
X-34062996Y-11507435D01*
X-34063004Y-11507435D01*
X-34242250Y-11527630D01*
X-34242255Y-11527631D01*
X-34412524Y-11587211D01*
X-34565263Y-11683184D01*
X-34692816Y-11810737D01*
X-34788789Y-11963476D01*
X-34848369Y-12133745D01*
X-34848370Y-12133750D01*
X-34868565Y-12312996D01*
X-35257435Y-12312996D01*
X-35277631Y-12133750D01*
X-35277632Y-12133745D01*
X-35298219Y-12074910D01*
X-35337211Y-11963478D01*
X-35350871Y-11941739D01*
X-35395488Y-11870731D01*
X-35433184Y-11810738D01*
X-35560738Y-11683184D01*
X-35627025Y-11641533D01*
X-35713477Y-11587211D01*
X-35883746Y-11527631D01*
X-35883751Y-11527630D01*
X-36062996Y-11507435D01*
X-36063004Y-11507435D01*
X-36242250Y-11527630D01*
X-36242255Y-11527631D01*
X-36412524Y-11587211D01*
X-36565263Y-11683184D01*
X-36692816Y-11810737D01*
X-36788789Y-11963476D01*
X-36848369Y-12133745D01*
X-36848370Y-12133750D01*
X-36868565Y-12312996D01*
X-38499500Y-12312996D01*
X-38499500Y-10312996D01*
X-36868565Y-10312996D01*
X-36868565Y-10313003D01*
X-36848370Y-10492249D01*
X-36848369Y-10492254D01*
X-36788789Y-10662523D01*
X-36719674Y-10772518D01*
X-36692816Y-10815262D01*
X-36565262Y-10942816D01*
X-36412522Y-11038789D01*
X-36309037Y-11075000D01*
X-36242255Y-11098368D01*
X-36242250Y-11098369D01*
X-36063004Y-11118565D01*
X-36063000Y-11118565D01*
X-36062996Y-11118565D01*
X-35883751Y-11098369D01*
X-35883748Y-11098368D01*
X-35883745Y-11098368D01*
X-35713478Y-11038789D01*
X-35560738Y-10942816D01*
X-35433184Y-10815262D01*
X-35337211Y-10662522D01*
X-35277632Y-10492255D01*
X-35277207Y-10488482D01*
X-35257435Y-10313003D01*
X-35257435Y-10312996D01*
X-34868565Y-10312996D01*
X-34868565Y-10313003D01*
X-34848370Y-10492249D01*
X-34848369Y-10492254D01*
X-34788789Y-10662523D01*
X-34719674Y-10772518D01*
X-34692816Y-10815262D01*
X-34565262Y-10942816D01*
X-34412522Y-11038789D01*
X-34309037Y-11075000D01*
X-34242255Y-11098368D01*
X-34242250Y-11098369D01*
X-34063004Y-11118565D01*
X-34063000Y-11118565D01*
X-34062996Y-11118565D01*
X-33883751Y-11098369D01*
X-33883748Y-11098368D01*
X-33883745Y-11098368D01*
X-33816957Y-11074998D01*
X-32855518Y-11074998D01*
X-32855518Y-11075001D01*
X-32835534Y-11226800D01*
X-32835533Y-11226802D01*
X-32776940Y-11368258D01*
X-32776939Y-11368259D01*
X-32683731Y-11489731D01*
X-32562259Y-11582939D01*
X-32420802Y-11641533D01*
X-32344901Y-11651525D01*
X-32269001Y-11661518D01*
X-32269000Y-11661518D01*
X-32268999Y-11661518D01*
X-32218400Y-11654856D01*
X-32117198Y-11641533D01*
X-31975741Y-11582939D01*
X-31854269Y-11489731D01*
X-31761061Y-11368259D01*
X-31702467Y-11226802D01*
X-31688217Y-11118565D01*
X-31682482Y-11075001D01*
X-31682482Y-11074998D01*
X-31699884Y-10942815D01*
X-31702467Y-10923198D01*
X-31761061Y-10781741D01*
X-31854269Y-10660269D01*
X-31975741Y-10567061D01*
X-31975742Y-10567060D01*
X-32117198Y-10508467D01*
X-32117200Y-10508466D01*
X-32268999Y-10488482D01*
X-32269001Y-10488482D01*
X-32420801Y-10508466D01*
X-32420803Y-10508467D01*
X-32562259Y-10567060D01*
X-32683731Y-10660269D01*
X-32776940Y-10781741D01*
X-32835533Y-10923197D01*
X-32835534Y-10923199D01*
X-32855518Y-11074998D01*
X-33816957Y-11074998D01*
X-33713478Y-11038789D01*
X-33560738Y-10942816D01*
X-33433184Y-10815262D01*
X-33337211Y-10662522D01*
X-33277632Y-10492255D01*
X-33277207Y-10488482D01*
X-33257435Y-10313003D01*
X-33257435Y-10312996D01*
X-33277631Y-10133750D01*
X-33277632Y-10133745D01*
X-33290049Y-10098259D01*
X-33337211Y-9963478D01*
X-33433184Y-9810738D01*
X-33438924Y-9804998D01*
X-1486518Y-9804998D01*
X-1486518Y-9805001D01*
X-1466534Y-9956800D01*
X-1466533Y-9956802D01*
X-1407940Y-10098258D01*
X-1407939Y-10098259D01*
X-1314731Y-10219731D01*
X-1193259Y-10312939D01*
X-1051802Y-10371533D01*
X-975901Y-10381525D01*
X-900001Y-10391518D01*
X-900000Y-10391518D01*
X-899999Y-10391518D01*
X-849400Y-10384856D01*
X-748198Y-10371533D01*
X-606741Y-10312939D01*
X-485269Y-10219731D01*
X-476419Y-10208198D01*
X4863482Y-10208198D01*
X4863482Y-10208201D01*
X4883466Y-10360000D01*
X4883467Y-10360002D01*
X4942060Y-10501458D01*
X4947438Y-10508467D01*
X5035269Y-10622931D01*
X5156741Y-10716139D01*
X5298198Y-10774733D01*
X5374099Y-10784725D01*
X5449999Y-10794718D01*
X5450000Y-10794718D01*
X5450001Y-10794718D01*
X5500600Y-10788056D01*
X5601802Y-10774733D01*
X5743259Y-10716139D01*
X5864731Y-10622931D01*
X5957939Y-10501459D01*
X6016533Y-10360002D01*
X6036518Y-10208200D01*
X6033595Y-10186001D01*
X6033595Y-10185998D01*
X11086482Y-10185998D01*
X11086482Y-10186001D01*
X11106466Y-10337800D01*
X11106467Y-10337802D01*
X11165060Y-10479258D01*
X11186747Y-10507522D01*
X11258269Y-10600731D01*
X11379741Y-10693939D01*
X11521198Y-10752533D01*
X11596647Y-10762466D01*
X11672999Y-10772518D01*
X11673000Y-10772518D01*
X11673001Y-10772518D01*
X11749345Y-10762467D01*
X11824802Y-10752533D01*
X11966259Y-10693939D01*
X12087731Y-10600731D01*
X12180939Y-10479259D01*
X12239533Y-10337802D01*
X12259518Y-10186000D01*
X12239533Y-10034198D01*
X12180939Y-9892741D01*
X12087731Y-9771269D01*
X11994522Y-9699747D01*
X11966258Y-9678060D01*
X11824802Y-9619467D01*
X11824800Y-9619466D01*
X11673001Y-9599482D01*
X11672999Y-9599482D01*
X11521199Y-9619466D01*
X11521197Y-9619467D01*
X11379741Y-9678060D01*
X11258269Y-9771269D01*
X11165060Y-9892741D01*
X11106467Y-10034197D01*
X11106466Y-10034199D01*
X11086482Y-10185998D01*
X6033595Y-10185998D01*
X6016533Y-10056399D01*
X6016533Y-10056398D01*
X5957939Y-9914941D01*
X5864731Y-9793469D01*
X5743259Y-9700261D01*
X5743258Y-9700260D01*
X5601802Y-9641667D01*
X5601800Y-9641666D01*
X5450001Y-9621682D01*
X5449999Y-9621682D01*
X5298199Y-9641666D01*
X5298197Y-9641667D01*
X5156741Y-9700260D01*
X5035269Y-9793469D01*
X4942060Y-9914941D01*
X4883467Y-10056397D01*
X4883466Y-10056399D01*
X4863482Y-10208198D01*
X-476419Y-10208198D01*
X-392061Y-10098259D01*
X-333467Y-9956802D01*
X-313482Y-9805000D01*
X-333467Y-9653198D01*
X-392061Y-9511741D01*
X-485269Y-9390269D01*
X-606741Y-9297061D01*
X-606742Y-9297060D01*
X-748198Y-9238467D01*
X-748200Y-9238466D01*
X-899999Y-9218482D01*
X-900001Y-9218482D01*
X-1051801Y-9238466D01*
X-1051803Y-9238467D01*
X-1193259Y-9297060D01*
X-1314731Y-9390269D01*
X-1407940Y-9511741D01*
X-1466533Y-9653197D01*
X-1466534Y-9653199D01*
X-1486518Y-9804998D01*
X-33438924Y-9804998D01*
X-33560738Y-9683184D01*
X-33568893Y-9678060D01*
X-33713477Y-9587211D01*
X-33883746Y-9527631D01*
X-33883751Y-9527630D01*
X-34062996Y-9507435D01*
X-34063004Y-9507435D01*
X-34242250Y-9527630D01*
X-34242255Y-9527631D01*
X-34412524Y-9587211D01*
X-34565263Y-9683184D01*
X-34692816Y-9810737D01*
X-34788789Y-9963476D01*
X-34848369Y-10133745D01*
X-34848370Y-10133750D01*
X-34868565Y-10312996D01*
X-35257435Y-10312996D01*
X-35277631Y-10133750D01*
X-35277632Y-10133745D01*
X-35290049Y-10098259D01*
X-35337211Y-9963478D01*
X-35433184Y-9810738D01*
X-35560738Y-9683184D01*
X-35568893Y-9678060D01*
X-35713477Y-9587211D01*
X-35883746Y-9527631D01*
X-35883751Y-9527630D01*
X-36062996Y-9507435D01*
X-36063004Y-9507435D01*
X-36242250Y-9527630D01*
X-36242255Y-9527631D01*
X-36412524Y-9587211D01*
X-36565263Y-9683184D01*
X-36692816Y-9810737D01*
X-36788789Y-9963476D01*
X-36848369Y-10133745D01*
X-36848370Y-10133750D01*
X-36868565Y-10312996D01*
X-38499500Y-10312996D01*
X-38499500Y-7693247D01*
X-36863500Y-7693247D01*
X-36863500Y-8932752D01*
X-36851869Y-8991229D01*
X-36851868Y-8991230D01*
X-36807553Y-9057552D01*
X-36741231Y-9101867D01*
X-36741230Y-9101868D01*
X-36682753Y-9113499D01*
X-36682750Y-9113500D01*
X-36682748Y-9113500D01*
X-35443250Y-9113500D01*
X-35443249Y-9113499D01*
X-35428432Y-9110552D01*
X-35384771Y-9101868D01*
X-35384771Y-9101867D01*
X-35384769Y-9101867D01*
X-35318448Y-9057552D01*
X-35274133Y-8991231D01*
X-35274133Y-8991229D01*
X-35274132Y-8991229D01*
X-35264503Y-8942816D01*
X-35262500Y-8932748D01*
X-35262500Y-8312996D01*
X-34868565Y-8312996D01*
X-34868565Y-8313003D01*
X-34848370Y-8492249D01*
X-34848369Y-8492254D01*
X-34788789Y-8662523D01*
X-34755230Y-8715931D01*
X-34692816Y-8815262D01*
X-34565262Y-8942816D01*
X-34488213Y-8991229D01*
X-34438822Y-9022264D01*
X-34412522Y-9038789D01*
X-34270456Y-9088500D01*
X-34242255Y-9098368D01*
X-34242250Y-9098369D01*
X-34063004Y-9118565D01*
X-34063000Y-9118565D01*
X-34062996Y-9118565D01*
X-33883751Y-9098369D01*
X-33883748Y-9098368D01*
X-33883745Y-9098368D01*
X-33713478Y-9038789D01*
X-33560738Y-8942816D01*
X-33433184Y-8815262D01*
X-33337211Y-8662522D01*
X-33285354Y-8514323D01*
X2043999Y-8514323D01*
X2043999Y-8514326D01*
X2063983Y-8666125D01*
X2063984Y-8666127D01*
X2122577Y-8807583D01*
X2128308Y-8815052D01*
X2215786Y-8929056D01*
X2337258Y-9022264D01*
X2478715Y-9080858D01*
X2536762Y-9088500D01*
X2630516Y-9100843D01*
X2630517Y-9100843D01*
X2630518Y-9100843D01*
X2681117Y-9094181D01*
X2782319Y-9080858D01*
X2923776Y-9022264D01*
X3045248Y-8929056D01*
X3138456Y-8807584D01*
X3197050Y-8666127D01*
X3217035Y-8514325D01*
X3214129Y-8492255D01*
X3197050Y-8362524D01*
X3197050Y-8362523D01*
X3138456Y-8221066D01*
X3045248Y-8099594D01*
X2923776Y-8006386D01*
X2923775Y-8006385D01*
X2782319Y-7947792D01*
X2782317Y-7947791D01*
X2630518Y-7927807D01*
X2630516Y-7927807D01*
X2478716Y-7947791D01*
X2478714Y-7947792D01*
X2337258Y-8006385D01*
X2215786Y-8099594D01*
X2122577Y-8221066D01*
X2063984Y-8362522D01*
X2063983Y-8362524D01*
X2043999Y-8514323D01*
X-33285354Y-8514323D01*
X-33277632Y-8492255D01*
X-33277631Y-8492249D01*
X-33257435Y-8313003D01*
X-33257435Y-8312996D01*
X-33277631Y-8133750D01*
X-33277632Y-8133745D01*
X-33289582Y-8099594D01*
X-33337211Y-7963478D01*
X-33359625Y-7927807D01*
X-33433185Y-7810737D01*
X-33560738Y-7683184D01*
X-33713477Y-7587211D01*
X-33883746Y-7527631D01*
X-33883751Y-7527630D01*
X-34062996Y-7507435D01*
X-34063004Y-7507435D01*
X-34242250Y-7527630D01*
X-34242255Y-7527631D01*
X-34412524Y-7587211D01*
X-34565263Y-7683184D01*
X-34692816Y-7810737D01*
X-34788789Y-7963476D01*
X-34848369Y-8133745D01*
X-34848370Y-8133750D01*
X-34868565Y-8312996D01*
X-35262500Y-8312996D01*
X-35262500Y-7693252D01*
X-35262500Y-7693249D01*
X-35262501Y-7693247D01*
X-35274132Y-7634770D01*
X-35274133Y-7634769D01*
X-35318448Y-7568447D01*
X-35384770Y-7524132D01*
X-35384771Y-7524131D01*
X-35443248Y-7512500D01*
X-35443252Y-7512500D01*
X-36682748Y-7512500D01*
X-36682753Y-7512500D01*
X-36741230Y-7524131D01*
X-36741231Y-7524132D01*
X-36807553Y-7568447D01*
X-36851868Y-7634769D01*
X-36851869Y-7634770D01*
X-36863500Y-7693247D01*
X-38499500Y-7693247D01*
X-38499500Y-6502998D01*
X-17615518Y-6502998D01*
X-17615518Y-6503001D01*
X-17595534Y-6654800D01*
X-17595533Y-6654802D01*
X-17536940Y-6796258D01*
X-17478811Y-6872014D01*
X-17453617Y-6937183D01*
X-17467656Y-7005628D01*
X-17478811Y-7022986D01*
X-17536940Y-7098741D01*
X-17595533Y-7240197D01*
X-17595534Y-7240199D01*
X-17615518Y-7391998D01*
X-17615518Y-7392001D01*
X-17595534Y-7543800D01*
X-17595533Y-7543802D01*
X-17536940Y-7685258D01*
X-17536939Y-7685259D01*
X-17443731Y-7806731D01*
X-17322259Y-7899939D01*
X-17180802Y-7958533D01*
X-17104901Y-7968525D01*
X-17029001Y-7978518D01*
X-17029000Y-7978518D01*
X-17028999Y-7978518D01*
X-16978400Y-7971856D01*
X-16877198Y-7958533D01*
X-16735741Y-7899939D01*
X-16659984Y-7841808D01*
X-16594818Y-7816616D01*
X-16526373Y-7830654D01*
X-16509025Y-7841802D01*
X-16433259Y-7899939D01*
X-16433258Y-7899939D01*
X-16433257Y-7899940D01*
X-16401213Y-7913213D01*
X-16291802Y-7958533D01*
X-16215901Y-7968525D01*
X-16140001Y-7978518D01*
X-16140000Y-7978518D01*
X-16139999Y-7978518D01*
X-16089400Y-7971856D01*
X-15988198Y-7958533D01*
X-15846883Y-7899998D01*
X-1486518Y-7899998D01*
X-1486518Y-7900001D01*
X-1466534Y-8051800D01*
X-1466533Y-8051802D01*
X-1407940Y-8193258D01*
X-1407939Y-8193259D01*
X-1314731Y-8314731D01*
X-1193259Y-8407939D01*
X-1051802Y-8466533D01*
X-975901Y-8476525D01*
X-900001Y-8486518D01*
X-900000Y-8486518D01*
X-899999Y-8486518D01*
X-849400Y-8479856D01*
X-748198Y-8466533D01*
X-606741Y-8407939D01*
X-485269Y-8314731D01*
X-392061Y-8193259D01*
X-333467Y-8051802D01*
X-317143Y-7927807D01*
X-313482Y-7900001D01*
X-313482Y-7899998D01*
X-333467Y-7748199D01*
X-333467Y-7748198D01*
X-392061Y-7606741D01*
X-485269Y-7485269D01*
X-606741Y-7392061D01*
X-606742Y-7392060D01*
X-748198Y-7333467D01*
X-748200Y-7333466D01*
X-899999Y-7313482D01*
X-900001Y-7313482D01*
X-1051801Y-7333466D01*
X-1051803Y-7333467D01*
X-1193259Y-7392060D01*
X-1314731Y-7485269D01*
X-1407940Y-7606741D01*
X-1466533Y-7748197D01*
X-1466534Y-7748199D01*
X-1486518Y-7899998D01*
X-15846883Y-7899998D01*
X-15846741Y-7899939D01*
X-15725269Y-7806731D01*
X-15632061Y-7685259D01*
X-15573467Y-7543802D01*
X-15553482Y-7392000D01*
X-15573467Y-7240198D01*
X-15632061Y-7098741D01*
X-15690192Y-7022983D01*
X-15694825Y-7010998D01*
X1688482Y-7010998D01*
X1688482Y-7011001D01*
X1708466Y-7162800D01*
X1708467Y-7162802D01*
X1767060Y-7304258D01*
X1774138Y-7313482D01*
X1860269Y-7425731D01*
X1981741Y-7518939D01*
X2123198Y-7577533D01*
X2196710Y-7587211D01*
X2274999Y-7597518D01*
X2275000Y-7597518D01*
X2275001Y-7597518D01*
X2325600Y-7590856D01*
X2426802Y-7577533D01*
X2568259Y-7518939D01*
X2689731Y-7425731D01*
X2782939Y-7304259D01*
X2785260Y-7298654D01*
X2829099Y-7244250D01*
X2895392Y-7222182D01*
X2963092Y-7239459D01*
X2975309Y-7247727D01*
X2997740Y-7264939D01*
X3056334Y-7289209D01*
X3139198Y-7323533D01*
X3214647Y-7333466D01*
X3290999Y-7343518D01*
X3291000Y-7343518D01*
X3291001Y-7343518D01*
X3367345Y-7333467D01*
X3442802Y-7323533D01*
X3584259Y-7264939D01*
X3705731Y-7171731D01*
X3798939Y-7050259D01*
X3857533Y-6908802D01*
X3870856Y-6807600D01*
X3877518Y-6757001D01*
X3877518Y-6756998D01*
X3857533Y-6605199D01*
X3857533Y-6605198D01*
X3798939Y-6463741D01*
X3705731Y-6342269D01*
X3584259Y-6249061D01*
X3584258Y-6249060D01*
X3442802Y-6190467D01*
X3442800Y-6190466D01*
X3291001Y-6170482D01*
X3290999Y-6170482D01*
X3139199Y-6190466D01*
X3139194Y-6190468D01*
X3025525Y-6237551D01*
X2956056Y-6245020D01*
X2893577Y-6213744D01*
X2857925Y-6153655D01*
X2855134Y-6106808D01*
X2871118Y-5985400D01*
X2858295Y-5888000D01*
X24696706Y-5888000D01*
X24717210Y-6056869D01*
X24717211Y-6056874D01*
X24777533Y-6215931D01*
X24816606Y-6272537D01*
X24870902Y-6351198D01*
X24874169Y-6355930D01*
X24946697Y-6420185D01*
X24983824Y-6479374D01*
X24983056Y-6549240D01*
X24946697Y-6605815D01*
X24874169Y-6670069D01*
X24777533Y-6810068D01*
X24717211Y-6969125D01*
X24717210Y-6969130D01*
X24696706Y-7138000D01*
X24717210Y-7306869D01*
X24717211Y-7306874D01*
X24777533Y-7465931D01*
X24844236Y-7562566D01*
X24868362Y-7597518D01*
X24874169Y-7605930D01*
X24946697Y-7670185D01*
X24983824Y-7729374D01*
X24983056Y-7799240D01*
X24946697Y-7855815D01*
X24874169Y-7920069D01*
X24777533Y-8060068D01*
X24717211Y-8219125D01*
X24717210Y-8219130D01*
X24696706Y-8388000D01*
X24717210Y-8556869D01*
X24717211Y-8556874D01*
X24777533Y-8715931D01*
X24839826Y-8806177D01*
X24874168Y-8855929D01*
X24960884Y-8932752D01*
X25001501Y-8968736D01*
X25134974Y-9038788D01*
X25152126Y-9047790D01*
X25317295Y-9088500D01*
X25487407Y-9088500D01*
X25652576Y-9047790D01*
X25760343Y-8991229D01*
X25803200Y-8968736D01*
X25803201Y-8968734D01*
X25803203Y-8968734D01*
X25930534Y-8855929D01*
X25930537Y-8855925D01*
X25934535Y-8851413D01*
X25993724Y-8814286D01*
X26063590Y-8815052D01*
X26120167Y-8851413D01*
X26124164Y-8855925D01*
X26124167Y-8855927D01*
X26124168Y-8855929D01*
X26206712Y-8929056D01*
X26251501Y-8968736D01*
X26384974Y-9038788D01*
X26402126Y-9047790D01*
X26567295Y-9088500D01*
X26737407Y-9088500D01*
X26902576Y-9047790D01*
X27010343Y-8991229D01*
X27053200Y-8968736D01*
X27053201Y-8968734D01*
X27053203Y-8968734D01*
X27180534Y-8855929D01*
X27277169Y-8715930D01*
X27337491Y-8556872D01*
X27357996Y-8388000D01*
X27337491Y-8219128D01*
X27277169Y-8060070D01*
X27180534Y-7920071D01*
X27108002Y-7855814D01*
X27070877Y-7796626D01*
X27071645Y-7726761D01*
X27108002Y-7670185D01*
X27180534Y-7605929D01*
X27277169Y-7465930D01*
X27337491Y-7306872D01*
X27357996Y-7138000D01*
X27337491Y-6969128D01*
X27277169Y-6810070D01*
X27180534Y-6670071D01*
X27053203Y-6557266D01*
X27053200Y-6557263D01*
X26895936Y-6474724D01*
X26896569Y-6473517D01*
X26861895Y-6451097D01*
X26593652Y-6182854D01*
X26612855Y-6188000D01*
X26691847Y-6188000D01*
X26768147Y-6167556D01*
X26836556Y-6128060D01*
X26892411Y-6072205D01*
X26931907Y-6003796D01*
X26952351Y-5927496D01*
X26952351Y-5887999D01*
X27005904Y-5887999D01*
X27005904Y-5888000D01*
X27514427Y-6396523D01*
X27580699Y-6272537D01*
X27637882Y-6084032D01*
X27657189Y-5888000D01*
X27637882Y-5691967D01*
X27580699Y-5503462D01*
X27514426Y-5379476D01*
X27005904Y-5887999D01*
X26952351Y-5887999D01*
X26952351Y-5848504D01*
X26931907Y-5772204D01*
X26892411Y-5703795D01*
X26836556Y-5647940D01*
X26768147Y-5608444D01*
X26691847Y-5588000D01*
X26612855Y-5588000D01*
X26536555Y-5608444D01*
X26468146Y-5647940D01*
X26412291Y-5703795D01*
X26372795Y-5772204D01*
X26352351Y-5848504D01*
X26352351Y-5927496D01*
X26357496Y-5946699D01*
X26080388Y-5669591D01*
X26052127Y-5625881D01*
X26027169Y-5560070D01*
X25930534Y-5420071D01*
X25803203Y-5307266D01*
X25803200Y-5307263D01*
X25652577Y-5228210D01*
X25487407Y-5187500D01*
X25317295Y-5187500D01*
X25152124Y-5228210D01*
X25001501Y-5307263D01*
X24874167Y-5420072D01*
X24777533Y-5560068D01*
X24717211Y-5719125D01*
X24717210Y-5719130D01*
X24696706Y-5888000D01*
X2858295Y-5888000D01*
X2851133Y-5833598D01*
X2792539Y-5692141D01*
X2699331Y-5570669D01*
X2577859Y-5477461D01*
X2577858Y-5477460D01*
X2436402Y-5418867D01*
X2436400Y-5418866D01*
X2284601Y-5398882D01*
X2284599Y-5398882D01*
X2132799Y-5418866D01*
X2132797Y-5418867D01*
X1991341Y-5477460D01*
X1869869Y-5570669D01*
X1776660Y-5692141D01*
X1718067Y-5833597D01*
X1718066Y-5833599D01*
X1698082Y-5985398D01*
X1698082Y-5985401D01*
X1718066Y-6137200D01*
X1718067Y-6137202D01*
X1776660Y-6278658D01*
X1776661Y-6278659D01*
X1832322Y-6351199D01*
X1869870Y-6400132D01*
X1875616Y-6405878D01*
X1873394Y-6408099D01*
X1905859Y-6452531D01*
X1910036Y-6522276D01*
X1875843Y-6583207D01*
X1864675Y-6592887D01*
X1860272Y-6596265D01*
X1860270Y-6596267D01*
X1767060Y-6717741D01*
X1708467Y-6859197D01*
X1708466Y-6859199D01*
X1688482Y-7010998D01*
X-15694825Y-7010998D01*
X-15715384Y-6957818D01*
X-15701346Y-6889373D01*
X-15690198Y-6872024D01*
X-15632061Y-6796259D01*
X-15573467Y-6654802D01*
X-15556020Y-6522276D01*
X-15553482Y-6503001D01*
X-15553482Y-6502998D01*
X-15573467Y-6351199D01*
X-15573467Y-6351198D01*
X-15632061Y-6209741D01*
X-15725269Y-6088269D01*
X-15846741Y-5995061D01*
X-15846742Y-5995060D01*
X-15988198Y-5936467D01*
X-15988200Y-5936466D01*
X-16139999Y-5916482D01*
X-16140001Y-5916482D01*
X-16291801Y-5936466D01*
X-16291803Y-5936467D01*
X-16433259Y-5995060D01*
X-16509014Y-6053189D01*
X-16574183Y-6078383D01*
X-16642628Y-6064344D01*
X-16659986Y-6053189D01*
X-16735742Y-5995060D01*
X-16877198Y-5936467D01*
X-16877200Y-5936466D01*
X-17028999Y-5916482D01*
X-17029001Y-5916482D01*
X-17180801Y-5936466D01*
X-17180803Y-5936467D01*
X-17322259Y-5995060D01*
X-17443731Y-6088269D01*
X-17536940Y-6209741D01*
X-17595533Y-6351197D01*
X-17595534Y-6351199D01*
X-17615518Y-6502998D01*
X-38499500Y-6502998D01*
X-38499500Y-4706713D01*
X-36413500Y-4706713D01*
X-36413500Y-4919287D01*
X-36409385Y-4945269D01*
X-36387444Y-5083801D01*
X-36380246Y-5129243D01*
X-36322403Y-5307266D01*
X-36314556Y-5331414D01*
X-36218049Y-5520820D01*
X-36093110Y-5692786D01*
X-35942787Y-5843109D01*
X-35770821Y-5968048D01*
X-35770819Y-5968049D01*
X-35770816Y-5968051D01*
X-35581412Y-6064557D01*
X-35379243Y-6130246D01*
X-35169287Y-6163500D01*
X-35169286Y-6163500D01*
X-34956714Y-6163500D01*
X-34956713Y-6163500D01*
X-34746757Y-6130246D01*
X-34544588Y-6064557D01*
X-34355184Y-5968051D01*
X-34298039Y-5926533D01*
X-34183214Y-5843109D01*
X-34183212Y-5843106D01*
X-34183208Y-5843104D01*
X-34032896Y-5692792D01*
X-34032894Y-5692788D01*
X-34032891Y-5692786D01*
X-33907952Y-5520820D01*
X-33907953Y-5520820D01*
X-33907949Y-5520816D01*
X-33811443Y-5331412D01*
X-33745754Y-5129243D01*
X-33738556Y-5083798D01*
X-33363518Y-5083798D01*
X-33363518Y-5083801D01*
X-33343534Y-5235600D01*
X-33343533Y-5235602D01*
X-33284940Y-5377058D01*
X-33268194Y-5398882D01*
X-33191731Y-5498531D01*
X-33070259Y-5591739D01*
X-32928802Y-5650333D01*
X-32852901Y-5660325D01*
X-32777001Y-5670318D01*
X-32777000Y-5670318D01*
X-32776999Y-5670318D01*
X-32726400Y-5663656D01*
X-32625198Y-5650333D01*
X-32483741Y-5591739D01*
X-32362269Y-5498531D01*
X-32269061Y-5377059D01*
X-32261994Y-5359998D01*
X-1486518Y-5359998D01*
X-1486518Y-5360001D01*
X-1466534Y-5511800D01*
X-1466533Y-5511802D01*
X-1407940Y-5653258D01*
X-1407939Y-5653259D01*
X-1314731Y-5774731D01*
X-1193259Y-5867939D01*
X-1051802Y-5926533D01*
X-976353Y-5936466D01*
X-900001Y-5946518D01*
X-900000Y-5946518D01*
X-899999Y-5946518D01*
X-823655Y-5936467D01*
X-748198Y-5926533D01*
X-606741Y-5867939D01*
X-485269Y-5774731D01*
X-392061Y-5653259D01*
X-333467Y-5511802D01*
X-313482Y-5360000D01*
X-317246Y-5331412D01*
X-329859Y-5235602D01*
X-333467Y-5208198D01*
X-392061Y-5066741D01*
X-485269Y-4945269D01*
X-606741Y-4852061D01*
X-606742Y-4852060D01*
X-606892Y-4851998D01*
X3339482Y-4851998D01*
X3339482Y-4852001D01*
X3359466Y-5003800D01*
X3359467Y-5003802D01*
X3418060Y-5145258D01*
X3418061Y-5145259D01*
X3511269Y-5266731D01*
X3632741Y-5359939D01*
X3774198Y-5418533D01*
X3850099Y-5428525D01*
X3925999Y-5438518D01*
X3926000Y-5438518D01*
X3926001Y-5438518D01*
X3976600Y-5431856D01*
X4077802Y-5418533D01*
X4219259Y-5359939D01*
X4340731Y-5266731D01*
X4433939Y-5145259D01*
X4492533Y-5003802D01*
X4512518Y-4852000D01*
X4512518Y-4851998D01*
X22262482Y-4851998D01*
X22262482Y-4852001D01*
X22282466Y-5003800D01*
X22282467Y-5003802D01*
X22341060Y-5145258D01*
X22341061Y-5145259D01*
X22434269Y-5266731D01*
X22555741Y-5359939D01*
X22697198Y-5418533D01*
X22773099Y-5428525D01*
X22848999Y-5438518D01*
X22849000Y-5438518D01*
X22849001Y-5438518D01*
X22899600Y-5431856D01*
X23000802Y-5418533D01*
X23142259Y-5359939D01*
X23263731Y-5266731D01*
X23356939Y-5145259D01*
X23406370Y-5025923D01*
X26143827Y-5025923D01*
X26652351Y-5534446D01*
X26652352Y-5534446D01*
X27160874Y-5025923D01*
X27160874Y-5025922D01*
X27036890Y-4959651D01*
X26848381Y-4902468D01*
X26848385Y-4902468D01*
X26652351Y-4883161D01*
X26456318Y-4902468D01*
X26267817Y-4959649D01*
X26143827Y-5025923D01*
X23406370Y-5025923D01*
X23415533Y-5003802D01*
X23435518Y-4852000D01*
X23415533Y-4700198D01*
X23356939Y-4558741D01*
X23263731Y-4437269D01*
X23142259Y-4344061D01*
X23142258Y-4344060D01*
X23000802Y-4285467D01*
X23000800Y-4285466D01*
X22849001Y-4265482D01*
X22848999Y-4265482D01*
X22697199Y-4285466D01*
X22697197Y-4285467D01*
X22555741Y-4344060D01*
X22434269Y-4437269D01*
X22341060Y-4558741D01*
X22282467Y-4700197D01*
X22282466Y-4700199D01*
X22262482Y-4851998D01*
X4512518Y-4851998D01*
X4492533Y-4700198D01*
X4433939Y-4558741D01*
X4340731Y-4437269D01*
X4219259Y-4344061D01*
X4219258Y-4344060D01*
X4077802Y-4285467D01*
X4077800Y-4285466D01*
X3926001Y-4265482D01*
X3925999Y-4265482D01*
X3774199Y-4285466D01*
X3774197Y-4285467D01*
X3632741Y-4344060D01*
X3511269Y-4437269D01*
X3418060Y-4558741D01*
X3359467Y-4700197D01*
X3359466Y-4700199D01*
X3339482Y-4851998D01*
X-606892Y-4851998D01*
X-748198Y-4793467D01*
X-748200Y-4793466D01*
X-899999Y-4773482D01*
X-900001Y-4773482D01*
X-1051801Y-4793466D01*
X-1051803Y-4793467D01*
X-1193259Y-4852060D01*
X-1314731Y-4945269D01*
X-1407940Y-5066741D01*
X-1466533Y-5208197D01*
X-1466534Y-5208199D01*
X-1486518Y-5359998D01*
X-32261994Y-5359998D01*
X-32210467Y-5235602D01*
X-32190482Y-5083800D01*
X-32198102Y-5025923D01*
X-32210467Y-4931999D01*
X-32210467Y-4931998D01*
X-32269061Y-4790541D01*
X-32362269Y-4669069D01*
X-32483741Y-4575861D01*
X-32483742Y-4575860D01*
X-32625198Y-4517267D01*
X-32625200Y-4517266D01*
X-32776999Y-4497282D01*
X-32777001Y-4497282D01*
X-32928801Y-4517266D01*
X-32928803Y-4517267D01*
X-33070259Y-4575860D01*
X-33191731Y-4669069D01*
X-33284940Y-4790541D01*
X-33343533Y-4931997D01*
X-33343534Y-4931999D01*
X-33363518Y-5083798D01*
X-33738556Y-5083798D01*
X-33712500Y-4919287D01*
X-33712500Y-4706713D01*
X-33745754Y-4496757D01*
X-33795389Y-4343998D01*
X-8090518Y-4343998D01*
X-8090518Y-4344001D01*
X-8070534Y-4495800D01*
X-8070533Y-4495802D01*
X-8011940Y-4637258D01*
X-8011939Y-4637259D01*
X-7918731Y-4758731D01*
X-7797259Y-4851939D01*
X-7655802Y-4910533D01*
X-7589316Y-4919286D01*
X-7504001Y-4930518D01*
X-7504000Y-4930518D01*
X-7503999Y-4930518D01*
X-7418692Y-4919287D01*
X-7352198Y-4910533D01*
X-7210741Y-4851939D01*
X-7089269Y-4758731D01*
X-6996061Y-4637259D01*
X-6937467Y-4495802D01*
X-6917482Y-4344000D01*
X-6923988Y-4294585D01*
X-6937467Y-4192199D01*
X-6937467Y-4192198D01*
X-6996061Y-4050741D01*
X-7089269Y-3929269D01*
X-7210741Y-3836061D01*
X-7210742Y-3836060D01*
X-7352198Y-3777467D01*
X-7352200Y-3777466D01*
X-7503999Y-3757482D01*
X-7504001Y-3757482D01*
X-7655801Y-3777466D01*
X-7655803Y-3777467D01*
X-7797259Y-3836060D01*
X-7918731Y-3929269D01*
X-8011940Y-4050741D01*
X-8070533Y-4192197D01*
X-8070534Y-4192199D01*
X-8090518Y-4343998D01*
X-33795389Y-4343998D01*
X-33811443Y-4294588D01*
X-33907949Y-4105184D01*
X-33907951Y-4105181D01*
X-33907952Y-4105179D01*
X-34032891Y-3933213D01*
X-34183214Y-3782890D01*
X-34355180Y-3657951D01*
X-34379620Y-3645498D01*
X-1550018Y-3645498D01*
X-1550018Y-3645501D01*
X-1530034Y-3797300D01*
X-1530033Y-3797302D01*
X-1471440Y-3938758D01*
X-1471439Y-3938759D01*
X-1378231Y-4060231D01*
X-1256759Y-4153439D01*
X-1115302Y-4212033D01*
X-1039401Y-4222025D01*
X-963501Y-4232018D01*
X-963500Y-4232018D01*
X-963499Y-4232018D01*
X-912900Y-4225356D01*
X-811698Y-4212033D01*
X-670241Y-4153439D01*
X-548769Y-4060231D01*
X-455561Y-3938759D01*
X-396967Y-3797302D01*
X-376982Y-3645500D01*
X-396967Y-3493698D01*
X-455561Y-3352241D01*
X-548769Y-3230769D01*
X-670241Y-3137561D01*
X-670242Y-3137560D01*
X-811698Y-3078967D01*
X-811700Y-3078966D01*
X-963499Y-3058982D01*
X-963501Y-3058982D01*
X-1115301Y-3078966D01*
X-1115303Y-3078967D01*
X-1256759Y-3137560D01*
X-1378231Y-3230769D01*
X-1471440Y-3352241D01*
X-1530033Y-3493697D01*
X-1530034Y-3493699D01*
X-1550018Y-3645498D01*
X-34379620Y-3645498D01*
X-34544586Y-3561444D01*
X-34544587Y-3561443D01*
X-34544588Y-3561443D01*
X-34746757Y-3495754D01*
X-34746759Y-3495753D01*
X-34746760Y-3495753D01*
X-34908043Y-3470208D01*
X-34956713Y-3462500D01*
X-35169287Y-3462500D01*
X-35217958Y-3470208D01*
X-35379240Y-3495753D01*
X-35581415Y-3561444D01*
X-35770821Y-3657951D01*
X-35942787Y-3782890D01*
X-36093110Y-3933213D01*
X-36218049Y-4105179D01*
X-36314556Y-4294585D01*
X-36314557Y-4294587D01*
X-36314557Y-4294588D01*
X-36330632Y-4344061D01*
X-36380247Y-4496760D01*
X-36407538Y-4669069D01*
X-36413500Y-4706713D01*
X-38499500Y-4706713D01*
X-38499500Y-2311998D01*
X-11011518Y-2311998D01*
X-11011518Y-2312001D01*
X-10991534Y-2463800D01*
X-10991533Y-2463802D01*
X-10932940Y-2605258D01*
X-10932939Y-2605259D01*
X-10839731Y-2726731D01*
X-10718259Y-2819939D01*
X-10576802Y-2878533D01*
X-10500901Y-2888525D01*
X-10425001Y-2898518D01*
X-10425000Y-2898518D01*
X-10424999Y-2898518D01*
X-10374400Y-2891856D01*
X-10273198Y-2878533D01*
X-10131741Y-2819939D01*
X-10010269Y-2726731D01*
X-9984385Y-2692998D01*
X3847482Y-2692998D01*
X3847482Y-2693001D01*
X3867466Y-2844800D01*
X3867467Y-2844802D01*
X3926060Y-2986258D01*
X3926061Y-2986259D01*
X4019269Y-3107731D01*
X4140741Y-3200939D01*
X4282198Y-3259533D01*
X4358099Y-3269525D01*
X4433999Y-3279518D01*
X4434000Y-3279518D01*
X4434001Y-3279518D01*
X4484600Y-3272856D01*
X4585802Y-3259533D01*
X4727259Y-3200939D01*
X4848731Y-3107731D01*
X4941939Y-2986259D01*
X5000533Y-2844802D01*
X5020518Y-2693000D01*
X5000533Y-2541198D01*
X4941939Y-2399741D01*
X4848731Y-2278269D01*
X4727259Y-2185061D01*
X4727258Y-2185060D01*
X4585802Y-2126467D01*
X4585800Y-2126466D01*
X4434001Y-2106482D01*
X4433999Y-2106482D01*
X4282199Y-2126466D01*
X4282197Y-2126467D01*
X4140741Y-2185060D01*
X4019269Y-2278269D01*
X3926060Y-2399741D01*
X3867467Y-2541197D01*
X3867466Y-2541199D01*
X3847482Y-2692998D01*
X-9984385Y-2692998D01*
X-9917061Y-2605259D01*
X-9858467Y-2463802D01*
X-9838482Y-2312000D01*
X-9858467Y-2160198D01*
X-9917061Y-2018741D01*
X-10010269Y-1897269D01*
X-10131741Y-1804061D01*
X-10131742Y-1804060D01*
X-10273198Y-1745467D01*
X-10273200Y-1745466D01*
X-10424999Y-1725482D01*
X-10425001Y-1725482D01*
X-10576801Y-1745466D01*
X-10576803Y-1745467D01*
X-10718259Y-1804060D01*
X-10839731Y-1897269D01*
X-10932940Y-2018741D01*
X-10991533Y-2160197D01*
X-10991534Y-2160199D01*
X-11011518Y-2311998D01*
X-38499500Y-2311998D01*
X-38499500Y-914998D01*
X-35014518Y-914998D01*
X-35014518Y-915001D01*
X-34994534Y-1066800D01*
X-34994533Y-1066802D01*
X-34935940Y-1208258D01*
X-34935939Y-1208259D01*
X-34842731Y-1329731D01*
X-34721259Y-1422939D01*
X-34579802Y-1481533D01*
X-34503901Y-1491525D01*
X-34428001Y-1501518D01*
X-34428000Y-1501518D01*
X-34427999Y-1501518D01*
X-34377400Y-1494856D01*
X-34276198Y-1481533D01*
X-34134741Y-1422939D01*
X-34013269Y-1329731D01*
X-33920061Y-1208259D01*
X-33861467Y-1066802D01*
X-33841482Y-915000D01*
X-33841669Y-913582D01*
X-33861467Y-763199D01*
X-33861467Y-763198D01*
X-33920061Y-621741D01*
X-34013269Y-500269D01*
X-34134741Y-407061D01*
X-34134742Y-407060D01*
X-34276198Y-348467D01*
X-34276200Y-348466D01*
X-34427999Y-328482D01*
X-34428001Y-328482D01*
X-34579801Y-348466D01*
X-34579803Y-348467D01*
X-34721259Y-407060D01*
X-34842731Y-500269D01*
X-34935940Y-621741D01*
X-34994533Y-763197D01*
X-34994534Y-763199D01*
X-35014518Y-914998D01*
X-38499500Y-914998D01*
X-38499500Y-25998D01*
X-32347518Y-25998D01*
X-32347518Y-26001D01*
X-32327534Y-177800D01*
X-32327533Y-177802D01*
X-32268940Y-319258D01*
X-32268939Y-319259D01*
X-32175731Y-440731D01*
X-32054259Y-533939D01*
X-31912802Y-592533D01*
X-31836901Y-602525D01*
X-31761001Y-612518D01*
X-31761000Y-612518D01*
X-31760999Y-612518D01*
X-31710400Y-605856D01*
X-31609198Y-592533D01*
X-31467741Y-533939D01*
X-31391984Y-475808D01*
X-31326818Y-450616D01*
X-31258373Y-464654D01*
X-31241025Y-475802D01*
X-31165259Y-533939D01*
X-31023802Y-592533D01*
X-30947901Y-602525D01*
X-30872001Y-612518D01*
X-30872000Y-612518D01*
X-30871999Y-612518D01*
X-30821400Y-605856D01*
X-30720198Y-592533D01*
X-30578741Y-533939D01*
X-30457269Y-440731D01*
X-30364061Y-319259D01*
X-30305467Y-177802D01*
X-30285482Y-26000D01*
X-30288358Y-4158D01*
X-30305467Y125801D01*
X-30305467Y125802D01*
X-30364061Y267259D01*
X-30457269Y388731D01*
X-30578741Y481939D01*
X-30578742Y481940D01*
X-30720198Y540533D01*
X-30720200Y540534D01*
X-30871999Y560518D01*
X-30872001Y560518D01*
X-31023801Y540534D01*
X-31023803Y540533D01*
X-31165259Y481940D01*
X-31241014Y423811D01*
X-31306183Y398617D01*
X-31374628Y412656D01*
X-31391986Y423811D01*
X-31467742Y481940D01*
X-31609198Y540533D01*
X-31609200Y540534D01*
X-31760999Y560518D01*
X-31761001Y560518D01*
X-31912801Y540534D01*
X-31912803Y540533D01*
X-32054259Y481940D01*
X-32175731Y388731D01*
X-32268940Y267259D01*
X-32327533Y125803D01*
X-32327534Y125801D01*
X-32347518Y-25998D01*
X-38499500Y-25998D01*
X-38499500Y755250D01*
X-28529645Y755250D01*
X-28509141Y586381D01*
X-28509140Y586376D01*
X-28448818Y427319D01*
X-28432364Y403482D01*
X-28352183Y287321D01*
X-28285292Y228061D01*
X-28224850Y174514D01*
X-28074227Y95461D01*
X-28074225Y95460D01*
X-27909056Y54750D01*
X-27738944Y54750D01*
X-27573775Y95460D01*
X-27423148Y174516D01*
X-27423141Y174523D01*
X-27421098Y175932D01*
X-27419352Y176509D01*
X-27416507Y178001D01*
X-27416259Y177529D01*
X-27354745Y197821D01*
X-27287092Y180363D01*
X-27239617Y129100D01*
X-27227394Y60307D01*
X-27236086Y26438D01*
X-27247533Y-1197D01*
X-27247534Y-1199D01*
X-27267518Y-152998D01*
X-27267518Y-153001D01*
X-27247534Y-304800D01*
X-27247533Y-304802D01*
X-27188940Y-446258D01*
X-27188939Y-446259D01*
X-27095731Y-567731D01*
X-26974259Y-660939D01*
X-26832802Y-719533D01*
X-26681000Y-739518D01*
X-26604447Y-729439D01*
X-26535414Y-740204D01*
X-26483158Y-786584D01*
X-26464272Y-853852D01*
X-26484752Y-920653D01*
X-26512776Y-950753D01*
X-26587731Y-1008268D01*
X-26680940Y-1129741D01*
X-26739533Y-1271197D01*
X-26739534Y-1271199D01*
X-26759518Y-1422998D01*
X-26759518Y-1423001D01*
X-26739534Y-1574800D01*
X-26739533Y-1574802D01*
X-26680940Y-1716258D01*
X-26680939Y-1716259D01*
X-26587731Y-1837731D01*
X-26466259Y-1930939D01*
X-26324802Y-1989533D01*
X-26248901Y-1999525D01*
X-26173001Y-2009518D01*
X-26173000Y-2009518D01*
X-26172999Y-2009518D01*
X-26122400Y-2002856D01*
X-26021198Y-1989533D01*
X-25879741Y-1930939D01*
X-25758269Y-1837731D01*
X-25665061Y-1716259D01*
X-25648798Y-1676998D01*
X-19520518Y-1676998D01*
X-19520518Y-1677001D01*
X-19500534Y-1828800D01*
X-19500533Y-1828802D01*
X-19441940Y-1970258D01*
X-19441939Y-1970259D01*
X-19348731Y-2091731D01*
X-19227259Y-2184939D01*
X-19085802Y-2243533D01*
X-19009901Y-2253525D01*
X-18934001Y-2263518D01*
X-18934000Y-2263518D01*
X-18933999Y-2263518D01*
X-18883400Y-2256856D01*
X-18782198Y-2243533D01*
X-18640741Y-2184939D01*
X-18519269Y-2091731D01*
X-18519266Y-2091726D01*
X-18513681Y-2086143D01*
X-18452358Y-2052658D01*
X-18382666Y-2057642D01*
X-18338319Y-2086143D01*
X-18332733Y-2091729D01*
X-18332731Y-2091731D01*
X-18211259Y-2184939D01*
X-18069802Y-2243533D01*
X-17993901Y-2253525D01*
X-17918001Y-2263518D01*
X-17918000Y-2263518D01*
X-17917999Y-2263518D01*
X-17867400Y-2256856D01*
X-17766198Y-2243533D01*
X-17624741Y-2184939D01*
X-17503269Y-2091731D01*
X-17410061Y-1970259D01*
X-17351467Y-1828802D01*
X-17337865Y-1725482D01*
X-17331482Y-1677001D01*
X-17331482Y-1676998D01*
X-17351467Y-1525199D01*
X-17351467Y-1525198D01*
X-17410061Y-1383741D01*
X-17503269Y-1262269D01*
X-17624741Y-1169061D01*
X-17624742Y-1169060D01*
X-17766198Y-1110467D01*
X-17766200Y-1110466D01*
X-17917999Y-1090482D01*
X-17918001Y-1090482D01*
X-18069801Y-1110466D01*
X-18069803Y-1110467D01*
X-18211259Y-1169060D01*
X-18332733Y-1262270D01*
X-18338319Y-1267857D01*
X-18399642Y-1301342D01*
X-18469334Y-1296358D01*
X-18513681Y-1267857D01*
X-18519268Y-1262270D01*
X-18526474Y-1256741D01*
X-18640741Y-1169061D01*
X-18640742Y-1169060D01*
X-18782198Y-1110467D01*
X-18782200Y-1110466D01*
X-18933999Y-1090482D01*
X-18934001Y-1090482D01*
X-19085801Y-1110466D01*
X-19085803Y-1110467D01*
X-19227259Y-1169060D01*
X-19348731Y-1262269D01*
X-19441940Y-1383741D01*
X-19500533Y-1525197D01*
X-19500534Y-1525199D01*
X-19520518Y-1676998D01*
X-25648798Y-1676998D01*
X-25606467Y-1574802D01*
X-25586482Y-1423000D01*
X-25586882Y-1419965D01*
X-25599806Y-1321798D01*
X-25606467Y-1271198D01*
X-25665061Y-1129741D01*
X-25758269Y-1008269D01*
X-25879741Y-915061D01*
X-25879742Y-915060D01*
X-25879892Y-914998D01*
X-1486518Y-914998D01*
X-1486518Y-915001D01*
X-1466534Y-1066800D01*
X-1466533Y-1066802D01*
X-1407940Y-1208258D01*
X-1407939Y-1208259D01*
X-1314731Y-1329731D01*
X-1193259Y-1422939D01*
X-1051802Y-1481533D01*
X-975901Y-1491525D01*
X-900001Y-1501518D01*
X-900000Y-1501518D01*
X-899999Y-1501518D01*
X-849400Y-1494856D01*
X-748198Y-1481533D01*
X-606741Y-1422939D01*
X-485269Y-1329731D01*
X-392061Y-1208259D01*
X-333467Y-1066802D01*
X-313482Y-915000D01*
X-313669Y-913582D01*
X-333467Y-763199D01*
X-333467Y-763198D01*
X-392061Y-621741D01*
X-485269Y-500269D01*
X-544789Y-454598D01*
X13626482Y-454598D01*
X13626482Y-454601D01*
X13646466Y-606400D01*
X13646467Y-606402D01*
X13705060Y-747858D01*
X13798269Y-869331D01*
X13843352Y-903925D01*
X13884555Y-960353D01*
X13888709Y-1030099D01*
X13854496Y-1091019D01*
X13843352Y-1100675D01*
X13798269Y-1135268D01*
X13705060Y-1256741D01*
X13646467Y-1398197D01*
X13646466Y-1398199D01*
X13626482Y-1549998D01*
X13626482Y-1550001D01*
X13646466Y-1701800D01*
X13646467Y-1701802D01*
X13705060Y-1843258D01*
X13705061Y-1843259D01*
X13798269Y-1964731D01*
X13919741Y-2057939D01*
X14061198Y-2116533D01*
X14136647Y-2126466D01*
X14212999Y-2136518D01*
X14213000Y-2136518D01*
X14213001Y-2136518D01*
X14289345Y-2126467D01*
X14364802Y-2116533D01*
X14506259Y-2057939D01*
X14597406Y-1988000D01*
X23296943Y-1988000D01*
X23316552Y-2274680D01*
X23316552Y-2274684D01*
X23316553Y-2274686D01*
X23324307Y-2312000D01*
X23375017Y-2556034D01*
X23375018Y-2556037D01*
X23471245Y-2826793D01*
X23471244Y-2826793D01*
X23603449Y-3081935D01*
X23769163Y-3316700D01*
X23854274Y-3407831D01*
X23965298Y-3526708D01*
X24188204Y-3708055D01*
X24398698Y-3836060D01*
X24433733Y-3857365D01*
X24599275Y-3929269D01*
X24697293Y-3971844D01*
X24973993Y-4049371D01*
X25224271Y-4083771D01*
X25258672Y-4088500D01*
X25258673Y-4088500D01*
X25546030Y-4088500D01*
X25576721Y-4084281D01*
X25830709Y-4049371D01*
X26107409Y-3971844D01*
X26220366Y-3922779D01*
X26370968Y-3857365D01*
X26370971Y-3857363D01*
X26370976Y-3857361D01*
X26616498Y-3708055D01*
X26839404Y-3526708D01*
X27035540Y-3316698D01*
X27201252Y-3081936D01*
X27333455Y-2826797D01*
X27429685Y-2556032D01*
X27488149Y-2274686D01*
X27507759Y-1988000D01*
X27488149Y-1701314D01*
X27429685Y-1419968D01*
X27333456Y-1149206D01*
X27333457Y-1149206D01*
X27201252Y-894064D01*
X27035538Y-659299D01*
X26956905Y-575105D01*
X26839404Y-449292D01*
X26679570Y-319258D01*
X26616497Y-267944D01*
X26370968Y-118634D01*
X26107414Y-4158D01*
X26107412Y-4157D01*
X26107409Y-4156D01*
X25932960Y44722D01*
X25830715Y73370D01*
X25830710Y73371D01*
X25830709Y73371D01*
X25669995Y95461D01*
X25546030Y112500D01*
X25546029Y112500D01*
X25258673Y112500D01*
X25258672Y112500D01*
X24973993Y73371D01*
X24973986Y73370D01*
X24806485Y26438D01*
X24697293Y-4156D01*
X24697290Y-4156D01*
X24697287Y-4158D01*
X24697286Y-4158D01*
X24433733Y-118634D01*
X24188204Y-267944D01*
X23965301Y-449289D01*
X23965298Y-449291D01*
X23965298Y-449292D01*
X23960343Y-454598D01*
X23769163Y-659299D01*
X23603449Y-894064D01*
X23471245Y-1149206D01*
X23375018Y-1419962D01*
X23375017Y-1419965D01*
X23316552Y-1701319D01*
X23296943Y-1988000D01*
X14597406Y-1988000D01*
X14627731Y-1964731D01*
X14720939Y-1843259D01*
X14779533Y-1701802D01*
X14799518Y-1550000D01*
X14779533Y-1398198D01*
X14720939Y-1256741D01*
X14627731Y-1135269D01*
X14582647Y-1100675D01*
X14541445Y-1044248D01*
X14537290Y-974502D01*
X14571502Y-913582D01*
X14582648Y-903924D01*
X14627731Y-869331D01*
X14720939Y-747859D01*
X14779533Y-606402D01*
X14799518Y-454600D01*
X14798993Y-450616D01*
X14779797Y-304802D01*
X14779533Y-302798D01*
X14720939Y-161341D01*
X14627731Y-39869D01*
X14506259Y53339D01*
X14506258Y53340D01*
X14364802Y111933D01*
X14364800Y111934D01*
X14213001Y131918D01*
X14212999Y131918D01*
X14061199Y111934D01*
X14061197Y111933D01*
X13919741Y53340D01*
X13798269Y-39869D01*
X13705060Y-161341D01*
X13646467Y-302797D01*
X13646466Y-302799D01*
X13626482Y-454598D01*
X-544789Y-454598D01*
X-606741Y-407061D01*
X-606742Y-407060D01*
X-748198Y-348467D01*
X-748200Y-348466D01*
X-899999Y-328482D01*
X-900001Y-328482D01*
X-1051801Y-348466D01*
X-1051803Y-348467D01*
X-1193259Y-407060D01*
X-1314731Y-500269D01*
X-1407940Y-621741D01*
X-1466533Y-763197D01*
X-1466534Y-763199D01*
X-1486518Y-914998D01*
X-25879892Y-914998D01*
X-26021198Y-856467D01*
X-26021200Y-856466D01*
X-26172999Y-836482D01*
X-26173001Y-836482D01*
X-26249553Y-846560D01*
X-26318588Y-835794D01*
X-26370844Y-789414D01*
X-26389729Y-722145D01*
X-26369248Y-655345D01*
X-26341226Y-625246D01*
X-26266269Y-567731D01*
X-26173061Y-446259D01*
X-26114467Y-304802D01*
X-26094482Y-153000D01*
X-26114467Y-1198D01*
X-26173061Y140259D01*
X-26266269Y261731D01*
X-26377922Y347405D01*
X-26387742Y354940D01*
X-26529198Y413533D01*
X-26529200Y413534D01*
X-26680999Y433518D01*
X-26681001Y433518D01*
X-26832801Y413534D01*
X-26832803Y413533D01*
X-26974259Y354940D01*
X-26984078Y347405D01*
X-27049247Y322212D01*
X-27117692Y336251D01*
X-27167681Y385066D01*
X-27183343Y453157D01*
X-27175505Y489753D01*
X-27169627Y505250D01*
X-27138860Y586378D01*
X-27118355Y755250D01*
X-25989645Y755250D01*
X-25969141Y586381D01*
X-25969140Y586376D01*
X-25908818Y427319D01*
X-25892364Y403482D01*
X-25812183Y287321D01*
X-25745292Y228061D01*
X-25684850Y174514D01*
X-25534227Y95461D01*
X-25534225Y95460D01*
X-25369056Y54750D01*
X-25198944Y54750D01*
X-25033775Y95460D01*
X-24954308Y137169D01*
X-24883151Y174514D01*
X-24883150Y174516D01*
X-24883148Y174516D01*
X-24755817Y287321D01*
X-24659182Y427320D01*
X-24629627Y505250D01*
X-23713160Y505250D01*
X-23672348Y370709D01*
X-23579497Y196997D01*
X-23579493Y196990D01*
X-23454529Y44722D01*
X-23302261Y-80241D01*
X-23128535Y-173099D01*
X-22994000Y-213909D01*
X-22494000Y-213909D01*
X-22359466Y-173099D01*
X-22185740Y-80241D01*
X-22033472Y44722D01*
X-21908508Y196990D01*
X-21908504Y196997D01*
X-21815653Y370709D01*
X-21774840Y505250D01*
X-22494000Y505250D01*
X-22494000Y-213909D01*
X-22994000Y-213909D01*
X-22994000Y505250D01*
X-23713160Y505250D01*
X-24629627Y505250D01*
X-24598860Y586378D01*
X-24578355Y755250D01*
X-24583950Y801328D01*
X-23094000Y801328D01*
X-23094000Y709172D01*
X-23070148Y620155D01*
X-23024070Y540345D01*
X-22958905Y475180D01*
X-22879095Y429102D01*
X-22790078Y405250D01*
X-22697922Y405250D01*
X-22608905Y429102D01*
X-22529095Y475180D01*
X-22463930Y540345D01*
X-22417852Y620155D01*
X-22394000Y709172D01*
X-22394000Y755250D01*
X-20909645Y755250D01*
X-20889141Y586381D01*
X-20889140Y586376D01*
X-20828818Y427319D01*
X-20812364Y403482D01*
X-20732183Y287321D01*
X-20665292Y228061D01*
X-20604850Y174514D01*
X-20454227Y95461D01*
X-20454225Y95460D01*
X-20289056Y54750D01*
X-20118944Y54750D01*
X-19953775Y95460D01*
X-19874308Y137169D01*
X-19803151Y174514D01*
X-19803150Y174516D01*
X-19803148Y174516D01*
X-19675817Y287321D01*
X-19579182Y427320D01*
X-19518860Y586378D01*
X-19498355Y755250D01*
X-18369645Y755250D01*
X-18349141Y586381D01*
X-18349140Y586376D01*
X-18288818Y427319D01*
X-18272364Y403482D01*
X-18192183Y287321D01*
X-18125292Y228061D01*
X-18064850Y174514D01*
X-17914227Y95461D01*
X-17914225Y95460D01*
X-17749056Y54750D01*
X-17578944Y54750D01*
X-17413775Y95460D01*
X-17334308Y137169D01*
X-17263151Y174514D01*
X-17263150Y174516D01*
X-17263148Y174516D01*
X-17135817Y287321D01*
X-17039182Y427320D01*
X-16978860Y586378D01*
X-16960692Y736002D01*
X4736482Y736002D01*
X4736482Y735999D01*
X4756466Y584200D01*
X4756467Y584198D01*
X4815060Y442742D01*
X4815061Y442741D01*
X4908269Y321269D01*
X5029741Y228061D01*
X5171198Y169467D01*
X5247099Y159475D01*
X5322999Y149482D01*
X5323000Y149482D01*
X5323001Y149482D01*
X5373600Y156144D01*
X5474802Y169467D01*
X5616259Y228061D01*
X5737731Y321269D01*
X5830939Y442741D01*
X5889533Y584198D01*
X5902856Y685400D01*
X5909518Y735999D01*
X5909518Y736002D01*
X5889533Y887801D01*
X5889533Y887802D01*
X5846912Y990696D01*
X5839444Y1060163D01*
X5870719Y1122643D01*
X5930808Y1158295D01*
X6000633Y1155802D01*
X6008902Y1152718D01*
X6060198Y1131470D01*
X6127246Y1122643D01*
X6211999Y1111485D01*
X6212000Y1111485D01*
X6212001Y1111485D01*
X6262600Y1118147D01*
X6363802Y1131470D01*
X6505259Y1190064D01*
X6626731Y1283272D01*
X6719939Y1404744D01*
X6778533Y1546201D01*
X6788907Y1625002D01*
X10324482Y1625002D01*
X10324482Y1624999D01*
X10344466Y1473200D01*
X10344467Y1473198D01*
X10403060Y1331742D01*
X10403061Y1331741D01*
X10496269Y1210269D01*
X10617741Y1117061D01*
X10759198Y1058467D01*
X10835099Y1048475D01*
X10910999Y1038482D01*
X10911000Y1038482D01*
X10911001Y1038482D01*
X10961600Y1045144D01*
X11062802Y1058467D01*
X11204259Y1117061D01*
X11278169Y1173774D01*
X11343336Y1198968D01*
X11411781Y1184930D01*
X11461771Y1136117D01*
X11477435Y1068025D01*
X11476593Y1059214D01*
X11467482Y990003D01*
X11467482Y989999D01*
X11487466Y838200D01*
X11487467Y838198D01*
X11546060Y696742D01*
X11546061Y696741D01*
X11639269Y575269D01*
X11760741Y482061D01*
X11902198Y423467D01*
X11977647Y413534D01*
X12053999Y403482D01*
X12054000Y403482D01*
X12054001Y403482D01*
X12104600Y410144D01*
X12205802Y423467D01*
X12347259Y482061D01*
X12468731Y575269D01*
X12561939Y696741D01*
X12620533Y838198D01*
X12640518Y990000D01*
X12638510Y1005250D01*
X12621281Y1136117D01*
X12620533Y1141802D01*
X12620162Y1142698D01*
X12620074Y1143512D01*
X12618429Y1149653D01*
X12619386Y1149910D01*
X12612692Y1212167D01*
X12643966Y1274647D01*
X12704055Y1310300D01*
X12709954Y1311437D01*
X12713794Y1312467D01*
X12713802Y1312467D01*
X12855259Y1371061D01*
X12976731Y1464269D01*
X12976734Y1464274D01*
X12982319Y1469857D01*
X13043642Y1503342D01*
X13113334Y1498358D01*
X13157681Y1469857D01*
X13163267Y1464271D01*
X13163269Y1464269D01*
X13284741Y1371061D01*
X13426198Y1312467D01*
X13491499Y1303870D01*
X13577999Y1292482D01*
X13578000Y1292482D01*
X13578001Y1292482D01*
X13654345Y1302533D01*
X13729802Y1312467D01*
X13871259Y1371061D01*
X13992731Y1464269D01*
X14085939Y1585741D01*
X14144533Y1727198D01*
X14164518Y1879000D01*
X14159349Y1918259D01*
X14151194Y1980202D01*
X14144533Y2030802D01*
X14085939Y2172259D01*
X13992731Y2293731D01*
X13871259Y2386939D01*
X13871258Y2386940D01*
X13729802Y2445533D01*
X13729800Y2445534D01*
X13578001Y2465518D01*
X13577999Y2465518D01*
X13426199Y2445534D01*
X13426197Y2445533D01*
X13284741Y2386940D01*
X13163267Y2293730D01*
X13157681Y2288143D01*
X13096358Y2254658D01*
X13026666Y2259642D01*
X12982319Y2288143D01*
X12976732Y2293730D01*
X12855258Y2386940D01*
X12713802Y2445533D01*
X12713800Y2445534D01*
X12562001Y2465518D01*
X12561999Y2465518D01*
X12410199Y2445534D01*
X12410197Y2445533D01*
X12268741Y2386940D01*
X12147269Y2293731D01*
X12054060Y2172259D01*
X11995467Y2030803D01*
X11995466Y2030801D01*
X11975482Y1879002D01*
X11975482Y1878999D01*
X11995466Y1727200D01*
X11995469Y1727192D01*
X11995840Y1726296D01*
X11995927Y1725480D01*
X11997571Y1719347D01*
X11996614Y1719091D01*
X12003306Y1656827D01*
X11972028Y1594349D01*
X11911937Y1558699D01*
X11906040Y1557563D01*
X11902197Y1556533D01*
X11760740Y1497940D01*
X11686831Y1441227D01*
X11621661Y1416033D01*
X11553217Y1430072D01*
X11503227Y1478886D01*
X11487564Y1546977D01*
X11488406Y1555789D01*
X11490998Y1575473D01*
X11497518Y1625000D01*
X11489803Y1683598D01*
X11477533Y1776801D01*
X11477533Y1776802D01*
X11418939Y1918259D01*
X11325731Y2039731D01*
X11204259Y2132939D01*
X11204258Y2132940D01*
X11062802Y2191533D01*
X11062800Y2191534D01*
X10911001Y2211518D01*
X10910999Y2211518D01*
X10759199Y2191534D01*
X10759197Y2191533D01*
X10617741Y2132940D01*
X10496269Y2039731D01*
X10403060Y1918259D01*
X10344467Y1776803D01*
X10344466Y1776801D01*
X10324482Y1625002D01*
X6788907Y1625002D01*
X6798518Y1698003D01*
X6795041Y1724411D01*
X6778533Y1849804D01*
X6778533Y1849805D01*
X6719939Y1991262D01*
X6626731Y2112734D01*
X6511090Y2201468D01*
X6505258Y2205943D01*
X6363802Y2264536D01*
X6363800Y2264537D01*
X6212001Y2284521D01*
X6211999Y2284521D01*
X6060199Y2264537D01*
X6060197Y2264536D01*
X5918741Y2205943D01*
X5797269Y2112734D01*
X5704060Y1991262D01*
X5645467Y1849806D01*
X5645466Y1849804D01*
X5625482Y1698005D01*
X5625482Y1698002D01*
X5645466Y1546203D01*
X5645467Y1546201D01*
X5688086Y1443310D01*
X5695555Y1373840D01*
X5664280Y1311361D01*
X5604191Y1275709D01*
X5534366Y1278203D01*
X5526072Y1281296D01*
X5474802Y1302533D01*
X5474800Y1302534D01*
X5323001Y1322518D01*
X5322999Y1322518D01*
X5171199Y1302534D01*
X5171197Y1302533D01*
X5029741Y1243940D01*
X4908269Y1150731D01*
X4815060Y1029259D01*
X4756467Y887803D01*
X4756466Y887801D01*
X4736482Y736002D01*
X-16960692Y736002D01*
X-16958355Y755250D01*
X-16978860Y924122D01*
X-16981646Y931467D01*
X-17021031Y1035320D01*
X-17039182Y1083180D01*
X-17062569Y1117061D01*
X-17078259Y1139792D01*
X-17135817Y1223179D01*
X-17247948Y1322518D01*
X-17263151Y1335987D01*
X-17413774Y1415040D01*
X-17578944Y1455750D01*
X-17749056Y1455750D01*
X-17914227Y1415040D01*
X-18064850Y1335987D01*
X-18192184Y1223178D01*
X-18288818Y1083182D01*
X-18349140Y924125D01*
X-18349141Y924120D01*
X-18369645Y755250D01*
X-19498355Y755250D01*
X-19518860Y924122D01*
X-19521646Y931467D01*
X-19561031Y1035320D01*
X-19579182Y1083180D01*
X-19602569Y1117061D01*
X-19618259Y1139792D01*
X-19675817Y1223179D01*
X-19787948Y1322518D01*
X-19803151Y1335987D01*
X-19953774Y1415040D01*
X-20118944Y1455750D01*
X-20289056Y1455750D01*
X-20454227Y1415040D01*
X-20604850Y1335987D01*
X-20732184Y1223178D01*
X-20828818Y1083182D01*
X-20889140Y924125D01*
X-20889141Y924120D01*
X-20909645Y755250D01*
X-22394000Y755250D01*
X-22394000Y801328D01*
X-22417852Y890345D01*
X-22463930Y970155D01*
X-22499025Y1005250D01*
X-22494000Y1005250D01*
X-21774840Y1005250D01*
X-21774840Y1005251D01*
X-21815653Y1139792D01*
X-21908504Y1313504D01*
X-21908508Y1313511D01*
X-22033472Y1465779D01*
X-22185740Y1590743D01*
X-22185747Y1590747D01*
X-22249834Y1625002D01*
X1815482Y1625002D01*
X1815482Y1624999D01*
X1835466Y1473200D01*
X1835467Y1473198D01*
X1894060Y1331742D01*
X1894061Y1331741D01*
X1987269Y1210269D01*
X2108741Y1117061D01*
X2250198Y1058467D01*
X2326099Y1048475D01*
X2401999Y1038482D01*
X2402000Y1038482D01*
X2402001Y1038482D01*
X2452600Y1045144D01*
X2553802Y1058467D01*
X2695259Y1117061D01*
X2816731Y1210269D01*
X2909939Y1331741D01*
X2909939Y1331742D01*
X2910063Y1331903D01*
X2966491Y1373106D01*
X3036237Y1377261D01*
X3097157Y1343049D01*
X3123000Y1303870D01*
X3164060Y1204742D01*
X3164061Y1204741D01*
X3257269Y1083269D01*
X3378741Y990061D01*
X3520198Y931467D01*
X3596099Y921475D01*
X3671999Y911482D01*
X3672000Y911482D01*
X3672001Y911482D01*
X3722600Y918144D01*
X3823802Y931467D01*
X3965259Y990061D01*
X4086731Y1083269D01*
X4179939Y1204741D01*
X4238533Y1346198D01*
X4258518Y1498000D01*
X4250676Y1557563D01*
X4238533Y1649801D01*
X4238533Y1649802D01*
X4179939Y1791259D01*
X4086731Y1912731D01*
X3965259Y2005939D01*
X3965258Y2005940D01*
X3823802Y2064533D01*
X3823800Y2064534D01*
X3672001Y2084518D01*
X3671999Y2084518D01*
X3520199Y2064534D01*
X3520197Y2064533D01*
X3378741Y2005940D01*
X3257268Y1912731D01*
X3163935Y1791097D01*
X3107507Y1749895D01*
X3037761Y1745740D01*
X2976841Y1779953D01*
X2950999Y1819132D01*
X2909940Y1918258D01*
X2842660Y2005939D01*
X2816731Y2039731D01*
X2695259Y2132939D01*
X2695258Y2132940D01*
X2553802Y2191533D01*
X2553800Y2191534D01*
X2402001Y2211518D01*
X2401999Y2211518D01*
X2250199Y2191534D01*
X2250197Y2191533D01*
X2108741Y2132940D01*
X1987269Y2039731D01*
X1894060Y1918259D01*
X1835467Y1776803D01*
X1835466Y1776801D01*
X1815482Y1625002D01*
X-22249834Y1625002D01*
X-22359459Y1683598D01*
X-22494000Y1724411D01*
X-22494000Y1005250D01*
X-22499025Y1005250D01*
X-22529095Y1035320D01*
X-22608905Y1081398D01*
X-22697922Y1105250D01*
X-22790078Y1105250D01*
X-22879095Y1081398D01*
X-22958905Y1035320D01*
X-23024070Y970155D01*
X-23070148Y890345D01*
X-23094000Y801328D01*
X-24583950Y801328D01*
X-24598860Y924122D01*
X-24601646Y931467D01*
X-24629628Y1005251D01*
X-23713161Y1005251D01*
X-23713160Y1005250D01*
X-22994000Y1005250D01*
X-22994000Y1724411D01*
X-22994001Y1724411D01*
X-23128542Y1683598D01*
X-23302254Y1590747D01*
X-23302261Y1590743D01*
X-23454529Y1465779D01*
X-23579493Y1313511D01*
X-23579497Y1313504D01*
X-23672348Y1139792D01*
X-23713161Y1005251D01*
X-24629628Y1005251D01*
X-24641031Y1035320D01*
X-24659182Y1083180D01*
X-24682569Y1117061D01*
X-24698259Y1139792D01*
X-24755817Y1223179D01*
X-24867948Y1322518D01*
X-24883151Y1335987D01*
X-25033774Y1415040D01*
X-25198944Y1455750D01*
X-25369056Y1455750D01*
X-25534227Y1415040D01*
X-25684850Y1335987D01*
X-25812184Y1223178D01*
X-25908818Y1083182D01*
X-25969140Y924125D01*
X-25969141Y924120D01*
X-25989645Y755250D01*
X-27118355Y755250D01*
X-27138860Y924122D01*
X-27141646Y931467D01*
X-27181031Y1035320D01*
X-27199182Y1083180D01*
X-27222569Y1117061D01*
X-27238259Y1139792D01*
X-27295817Y1223179D01*
X-27407948Y1322518D01*
X-27423151Y1335987D01*
X-27573774Y1415040D01*
X-27738944Y1455750D01*
X-27909056Y1455750D01*
X-28074227Y1415040D01*
X-28224850Y1335987D01*
X-28352184Y1223178D01*
X-28448818Y1083182D01*
X-28509140Y924125D01*
X-28509141Y924120D01*
X-28529645Y755250D01*
X-38499500Y755250D01*
X-38499500Y3022002D01*
X-38189518Y3022002D01*
X-38189518Y3021999D01*
X-38169534Y2870200D01*
X-38169533Y2870198D01*
X-38110940Y2728742D01*
X-38110939Y2728741D01*
X-38017731Y2607269D01*
X-37896259Y2514061D01*
X-37754802Y2455467D01*
X-37679353Y2445534D01*
X-37603001Y2435482D01*
X-37603000Y2435482D01*
X-37602999Y2435482D01*
X-37526655Y2445533D01*
X-37451198Y2455467D01*
X-37309741Y2514061D01*
X-37188269Y2607269D01*
X-37095061Y2728741D01*
X-37036467Y2870198D01*
X-37016482Y3022000D01*
X-37021651Y3061259D01*
X-37036467Y3173801D01*
X-37036467Y3173802D01*
X-37086773Y3295250D01*
X-23449645Y3295250D01*
X-23429141Y3126381D01*
X-23429140Y3126376D01*
X-23368818Y2967319D01*
X-23336018Y2919801D01*
X-23272183Y2827321D01*
X-23205225Y2768002D01*
X-23144850Y2714514D01*
X-23004779Y2640999D01*
X-22994225Y2635460D01*
X-22829056Y2594750D01*
X-22658944Y2594750D01*
X-22493775Y2635460D01*
X-22483216Y2641002D01*
X-19012518Y2641002D01*
X-19012518Y2640999D01*
X-18992534Y2489200D01*
X-18992533Y2489198D01*
X-18933940Y2347742D01*
X-18933939Y2347741D01*
X-18840731Y2226269D01*
X-18719259Y2133061D01*
X-18577802Y2074467D01*
X-18502353Y2064534D01*
X-18426001Y2054482D01*
X-18426000Y2054482D01*
X-18425999Y2054482D01*
X-18349655Y2064533D01*
X-18274198Y2074467D01*
X-18132741Y2133061D01*
X-18056984Y2191192D01*
X-17991818Y2216384D01*
X-17923373Y2202346D01*
X-17906025Y2191198D01*
X-17830259Y2133061D01*
X-17830258Y2133061D01*
X-17830257Y2133060D01*
X-17798213Y2119787D01*
X-17688802Y2074467D01*
X-17613353Y2064534D01*
X-17537001Y2054482D01*
X-17537000Y2054482D01*
X-17536999Y2054482D01*
X-17460655Y2064533D01*
X-17385198Y2074467D01*
X-17243741Y2133061D01*
X-17122269Y2226269D01*
X-17029061Y2347741D01*
X-16970467Y2489198D01*
X-16956571Y2594750D01*
X-16950482Y2640999D01*
X-16950482Y2641002D01*
X-16970467Y2792801D01*
X-16970467Y2792802D01*
X-17012800Y2895002D01*
X-11011518Y2895002D01*
X-11011518Y2894999D01*
X-10991534Y2743200D01*
X-10991533Y2743198D01*
X-10932940Y2601742D01*
X-10932939Y2601741D01*
X-10839731Y2480269D01*
X-10718259Y2387061D01*
X-10576802Y2328467D01*
X-10500901Y2318475D01*
X-10425001Y2308482D01*
X-10425000Y2308482D01*
X-10424999Y2308482D01*
X-10374400Y2315144D01*
X-10273198Y2328467D01*
X-10131741Y2387061D01*
X-10010269Y2480269D01*
X-9917061Y2601741D01*
X-9858467Y2743198D01*
X-9838482Y2895000D01*
X-9843651Y2934259D01*
X-9855202Y3022002D01*
X-7074518Y3022002D01*
X-7074518Y3021999D01*
X-7054534Y2870200D01*
X-7054533Y2870198D01*
X-6995940Y2728742D01*
X-6995939Y2728741D01*
X-6902731Y2607269D01*
X-6781259Y2514061D01*
X-6639802Y2455467D01*
X-6564353Y2445534D01*
X-6488001Y2435482D01*
X-6488000Y2435482D01*
X-6487999Y2435482D01*
X-6411655Y2445533D01*
X-6336198Y2455467D01*
X-6194741Y2514061D01*
X-6073269Y2607269D01*
X-5980061Y2728741D01*
X-5921467Y2870198D01*
X-5901482Y3022000D01*
X-5901482Y3022002D01*
X-4407518Y3022002D01*
X-4407518Y3021999D01*
X-4387534Y2870200D01*
X-4387533Y2870198D01*
X-4328940Y2728742D01*
X-4328939Y2728741D01*
X-4235731Y2607269D01*
X-4114259Y2514061D01*
X-3972802Y2455467D01*
X-3897353Y2445534D01*
X-3821001Y2435482D01*
X-3821000Y2435482D01*
X-3820999Y2435482D01*
X-3744655Y2445533D01*
X-3669198Y2455467D01*
X-3527741Y2514061D01*
X-3406269Y2607269D01*
X-3313061Y2728741D01*
X-3296798Y2768002D01*
X37482Y2768002D01*
X37482Y2767999D01*
X57466Y2616200D01*
X57467Y2616198D01*
X116060Y2474742D01*
X116061Y2474741D01*
X209269Y2353269D01*
X330741Y2260061D01*
X472198Y2201467D01*
X547647Y2191534D01*
X623999Y2181482D01*
X624000Y2181482D01*
X624001Y2181482D01*
X700345Y2191533D01*
X775802Y2201467D01*
X917259Y2260061D01*
X1038731Y2353269D01*
X1131939Y2474741D01*
X1190533Y2616198D01*
X1203856Y2717400D01*
X1210518Y2767999D01*
X1210518Y2768002D01*
X1190533Y2919801D01*
X1190533Y2919802D01*
X1131939Y3061259D01*
X1038731Y3182731D01*
X919395Y3274300D01*
X917258Y3275940D01*
X775802Y3334533D01*
X775800Y3334534D01*
X624001Y3354518D01*
X623999Y3354518D01*
X472199Y3334534D01*
X472197Y3334533D01*
X330741Y3275940D01*
X209269Y3182731D01*
X116060Y3061259D01*
X57467Y2919803D01*
X57466Y2919801D01*
X37482Y2768002D01*
X-3296798Y2768002D01*
X-3254467Y2870198D01*
X-3234482Y3022000D01*
X-3239651Y3061259D01*
X-3254467Y3173801D01*
X-3254467Y3173802D01*
X-3313061Y3315259D01*
X-3406269Y3436731D01*
X-3527741Y3529939D01*
X-3527742Y3529940D01*
X-3527892Y3530002D01*
X16166482Y3530002D01*
X16166482Y3529999D01*
X16186466Y3378200D01*
X16186467Y3378198D01*
X16245060Y3236742D01*
X16245061Y3236741D01*
X16338269Y3115269D01*
X16459741Y3022061D01*
X16601198Y2963467D01*
X16677099Y2953475D01*
X16752999Y2943482D01*
X16753000Y2943482D01*
X16753001Y2943482D01*
X16803600Y2950144D01*
X16904802Y2963467D01*
X17046259Y3022061D01*
X17167731Y3115269D01*
X17260939Y3236741D01*
X17319533Y3378198D01*
X17339518Y3530000D01*
X17319533Y3681802D01*
X17260939Y3823259D01*
X17167731Y3944731D01*
X17074522Y4016253D01*
X17046258Y4037940D01*
X16904802Y4096533D01*
X16904800Y4096534D01*
X16753001Y4116518D01*
X16752999Y4116518D01*
X16601199Y4096534D01*
X16601197Y4096533D01*
X16459741Y4037940D01*
X16338269Y3944731D01*
X16245060Y3823259D01*
X16186467Y3681803D01*
X16186466Y3681801D01*
X16166482Y3530002D01*
X-3527892Y3530002D01*
X-3669198Y3588533D01*
X-3669200Y3588534D01*
X-3820999Y3608518D01*
X-3821001Y3608518D01*
X-3972801Y3588534D01*
X-3972803Y3588533D01*
X-4114259Y3529940D01*
X-4235731Y3436731D01*
X-4328940Y3315259D01*
X-4387533Y3173803D01*
X-4387534Y3173801D01*
X-4407518Y3022002D01*
X-5901482Y3022002D01*
X-5906651Y3061259D01*
X-5921467Y3173801D01*
X-5921467Y3173802D01*
X-5980061Y3315259D01*
X-6073269Y3436731D01*
X-6194741Y3529939D01*
X-6194742Y3529940D01*
X-6336198Y3588533D01*
X-6336200Y3588534D01*
X-6487999Y3608518D01*
X-6488001Y3608518D01*
X-6639801Y3588534D01*
X-6639803Y3588533D01*
X-6781259Y3529940D01*
X-6902731Y3436731D01*
X-6995940Y3315259D01*
X-7054533Y3173803D01*
X-7054534Y3173801D01*
X-7074518Y3022002D01*
X-9855202Y3022002D01*
X-9858467Y3046801D01*
X-9858467Y3046802D01*
X-9917061Y3188259D01*
X-10010269Y3309731D01*
X-10131741Y3402939D01*
X-10131742Y3402940D01*
X-10273198Y3461533D01*
X-10273200Y3461534D01*
X-10424999Y3481518D01*
X-10425001Y3481518D01*
X-10576801Y3461534D01*
X-10576803Y3461533D01*
X-10718259Y3402940D01*
X-10839731Y3309731D01*
X-10932940Y3188259D01*
X-10991533Y3046803D01*
X-10991534Y3046801D01*
X-11011518Y2895002D01*
X-17012800Y2895002D01*
X-17029061Y2934259D01*
X-17122269Y3055731D01*
X-17243741Y3148939D01*
X-17243742Y3148940D01*
X-17385198Y3207533D01*
X-17385200Y3207534D01*
X-17536999Y3227518D01*
X-17537001Y3227518D01*
X-17688801Y3207534D01*
X-17688803Y3207533D01*
X-17830259Y3148940D01*
X-17906014Y3090811D01*
X-17971183Y3065617D01*
X-18039628Y3079656D01*
X-18056986Y3090811D01*
X-18132742Y3148940D01*
X-18274198Y3207533D01*
X-18274200Y3207534D01*
X-18425999Y3227518D01*
X-18426001Y3227518D01*
X-18577801Y3207534D01*
X-18577803Y3207533D01*
X-18719259Y3148940D01*
X-18840731Y3055731D01*
X-18933940Y2934259D01*
X-18992533Y2792803D01*
X-18992534Y2792801D01*
X-19012518Y2641002D01*
X-22483216Y2641002D01*
X-22414308Y2677169D01*
X-22343151Y2714514D01*
X-22343150Y2714516D01*
X-22343148Y2714516D01*
X-22215817Y2827321D01*
X-22119182Y2967320D01*
X-22058860Y3126378D01*
X-22038355Y3295250D01*
X-22058860Y3464122D01*
X-22119182Y3623180D01*
X-22215817Y3763179D01*
X-22343148Y3875984D01*
X-22343151Y3875987D01*
X-22493774Y3955040D01*
X-22658944Y3995750D01*
X-22829056Y3995750D01*
X-22994227Y3955040D01*
X-23144850Y3875987D01*
X-23272184Y3763178D01*
X-23368818Y3623182D01*
X-23429140Y3464125D01*
X-23429141Y3464120D01*
X-23449645Y3295250D01*
X-37086773Y3295250D01*
X-37095061Y3315259D01*
X-37188269Y3436731D01*
X-37309741Y3529939D01*
X-37309742Y3529940D01*
X-37451198Y3588533D01*
X-37451200Y3588534D01*
X-37602999Y3608518D01*
X-37603001Y3608518D01*
X-37754801Y3588534D01*
X-37754803Y3588533D01*
X-37896259Y3529940D01*
X-38017731Y3436731D01*
X-38110940Y3315259D01*
X-38169533Y3173803D01*
X-38169534Y3173801D01*
X-38189518Y3022002D01*
X-38499500Y3022002D01*
X-38499500Y4800002D01*
X1180482Y4800002D01*
X1180482Y4799999D01*
X1200466Y4648200D01*
X1200467Y4648198D01*
X1259060Y4506742D01*
X1259061Y4506741D01*
X1352269Y4385269D01*
X1473741Y4292061D01*
X1615198Y4233467D01*
X1691099Y4223475D01*
X1766999Y4213482D01*
X1767000Y4213482D01*
X1767001Y4213482D01*
X1817600Y4220144D01*
X1918802Y4233467D01*
X2060259Y4292061D01*
X2181731Y4385269D01*
X2274939Y4506741D01*
X2333533Y4648198D01*
X2353518Y4800000D01*
X2333533Y4951802D01*
X2274939Y5093259D01*
X2181731Y5214731D01*
X2060259Y5307939D01*
X2060258Y5307940D01*
X1918802Y5366533D01*
X1918800Y5366534D01*
X1767001Y5386518D01*
X1766999Y5386518D01*
X1615199Y5366534D01*
X1615197Y5366533D01*
X1473741Y5307940D01*
X1352269Y5214731D01*
X1259060Y5093259D01*
X1200467Y4951803D01*
X1200466Y4951801D01*
X1180482Y4800002D01*
X-38499500Y4800002D01*
X-38499500Y5816002D01*
X-6947518Y5816002D01*
X-6947518Y5815999D01*
X-6927534Y5664200D01*
X-6927533Y5664198D01*
X-6868940Y5522742D01*
X-6868939Y5522741D01*
X-6775731Y5401269D01*
X-6654259Y5308061D01*
X-6512802Y5249467D01*
X-6436901Y5239475D01*
X-6361001Y5229482D01*
X-6361000Y5229482D01*
X-6360999Y5229482D01*
X-6310400Y5236144D01*
X-6209198Y5249467D01*
X-6067741Y5308061D01*
X-5946269Y5401269D01*
X-5853061Y5522741D01*
X-5794467Y5664198D01*
X-5774482Y5816000D01*
X-5774482Y5816002D01*
X-4407518Y5816002D01*
X-4407518Y5815999D01*
X-4387534Y5664200D01*
X-4387533Y5664198D01*
X-4328940Y5522742D01*
X-4328939Y5522741D01*
X-4235731Y5401269D01*
X-4114259Y5308061D01*
X-3972802Y5249467D01*
X-3896901Y5239475D01*
X-3821001Y5229482D01*
X-3821000Y5229482D01*
X-3820999Y5229482D01*
X-3770400Y5236144D01*
X-3669198Y5249467D01*
X-3527741Y5308061D01*
X-3406269Y5401269D01*
X-3313061Y5522741D01*
X-3254467Y5664198D01*
X-3234482Y5816000D01*
X-3251202Y5943002D01*
X8927482Y5943002D01*
X8927482Y5942999D01*
X8947466Y5791200D01*
X8947467Y5791198D01*
X9006060Y5649742D01*
X9099270Y5528268D01*
X9104857Y5522681D01*
X9138342Y5461358D01*
X9133358Y5391666D01*
X9104857Y5347319D01*
X9099270Y5341733D01*
X9006060Y5220259D01*
X8947467Y5078803D01*
X8947466Y5078801D01*
X8927482Y4927002D01*
X8927482Y4926999D01*
X8947466Y4775200D01*
X8947467Y4775198D01*
X9006060Y4633742D01*
X9006061Y4633741D01*
X9099269Y4512269D01*
X9220741Y4419061D01*
X9362198Y4360467D01*
X9438099Y4350475D01*
X9513999Y4340482D01*
X9514000Y4340482D01*
X9514001Y4340482D01*
X9564600Y4347144D01*
X9665802Y4360467D01*
X9807259Y4419061D01*
X9928731Y4512269D01*
X9998351Y4603000D01*
X23296943Y4603000D01*
X23316552Y4316320D01*
X23316552Y4316316D01*
X23316553Y4316314D01*
X23333769Y4233467D01*
X23375017Y4034966D01*
X23375018Y4034963D01*
X23471245Y3764207D01*
X23471244Y3764207D01*
X23603449Y3509065D01*
X23769163Y3274300D01*
X23812855Y3227518D01*
X23965298Y3064292D01*
X24188204Y2882945D01*
X24336435Y2792803D01*
X24433733Y2733635D01*
X24620588Y2652474D01*
X24697293Y2619156D01*
X24973993Y2541629D01*
X25224271Y2507229D01*
X25258672Y2502500D01*
X25258673Y2502500D01*
X25546030Y2502500D01*
X25576721Y2506719D01*
X25830709Y2541629D01*
X26107409Y2619156D01*
X26220366Y2668221D01*
X26370968Y2733635D01*
X26370971Y2733637D01*
X26370976Y2733639D01*
X26616498Y2882945D01*
X26839404Y3064292D01*
X27035540Y3274302D01*
X27201252Y3509064D01*
X27333455Y3764203D01*
X27429685Y4034968D01*
X27488149Y4316314D01*
X27507759Y4603000D01*
X27488149Y4889686D01*
X27429685Y5171032D01*
X27333456Y5441794D01*
X27333457Y5441794D01*
X27201252Y5696936D01*
X27035538Y5931701D01*
X26956905Y6015895D01*
X26839404Y6141708D01*
X26616498Y6323055D01*
X26616497Y6323056D01*
X26370968Y6472366D01*
X26107414Y6586842D01*
X26107412Y6586843D01*
X26107409Y6586844D01*
X25965938Y6626482D01*
X25830715Y6664370D01*
X25830710Y6664371D01*
X25830709Y6664371D01*
X25688369Y6683936D01*
X25546030Y6703500D01*
X25546029Y6703500D01*
X25258673Y6703500D01*
X25258672Y6703500D01*
X24973993Y6664371D01*
X24973986Y6664370D01*
X24766212Y6606155D01*
X24697293Y6586844D01*
X24697290Y6586844D01*
X24697287Y6586842D01*
X24697286Y6586842D01*
X24433733Y6472366D01*
X24188204Y6323056D01*
X23965301Y6141711D01*
X23769163Y5931701D01*
X23603449Y5696936D01*
X23471245Y5441794D01*
X23375018Y5171038D01*
X23375017Y5171035D01*
X23316552Y4889681D01*
X23296943Y4603000D01*
X9998351Y4603000D01*
X10021939Y4633741D01*
X10080533Y4775198D01*
X10100518Y4927000D01*
X10080533Y5078802D01*
X10021939Y5220259D01*
X9928731Y5341731D01*
X9928729Y5341732D01*
X9928729Y5341733D01*
X9923143Y5347319D01*
X9889658Y5408642D01*
X9894642Y5478334D01*
X9923143Y5522681D01*
X9928726Y5528266D01*
X9928731Y5528269D01*
X10021939Y5649741D01*
X10038202Y5689002D01*
X17944482Y5689002D01*
X17944482Y5688999D01*
X17964466Y5537200D01*
X17964467Y5537198D01*
X18023060Y5395742D01*
X18023061Y5395741D01*
X18116269Y5274269D01*
X18237741Y5181061D01*
X18379198Y5122467D01*
X18455099Y5112475D01*
X18530999Y5102482D01*
X18531000Y5102482D01*
X18531001Y5102482D01*
X18581600Y5109144D01*
X18682802Y5122467D01*
X18824259Y5181061D01*
X18945731Y5274269D01*
X19038939Y5395741D01*
X19097533Y5537198D01*
X19110856Y5638400D01*
X19117518Y5688999D01*
X19117518Y5689002D01*
X19097533Y5840801D01*
X19097533Y5840802D01*
X19038939Y5982259D01*
X18945731Y6103731D01*
X18824259Y6196939D01*
X18824258Y6196940D01*
X18682802Y6255533D01*
X18682800Y6255534D01*
X18531001Y6275518D01*
X18530999Y6275518D01*
X18379199Y6255534D01*
X18379197Y6255533D01*
X18237741Y6196940D01*
X18116269Y6103731D01*
X18023060Y5982259D01*
X17964467Y5840803D01*
X17964466Y5840801D01*
X17944482Y5689002D01*
X10038202Y5689002D01*
X10080533Y5791198D01*
X10099030Y5931698D01*
X10100518Y5942999D01*
X10100518Y5943002D01*
X10080533Y6094801D01*
X10080533Y6094802D01*
X10021939Y6236259D01*
X9928731Y6357731D01*
X9807259Y6450939D01*
X9807258Y6450940D01*
X9665802Y6509533D01*
X9665800Y6509534D01*
X9514001Y6529518D01*
X9513999Y6529518D01*
X9362199Y6509534D01*
X9362197Y6509533D01*
X9220741Y6450940D01*
X9099269Y6357731D01*
X9006060Y6236259D01*
X8947467Y6094803D01*
X8947466Y6094801D01*
X8927482Y5943002D01*
X-3251202Y5943002D01*
X-3254467Y5967802D01*
X-3313061Y6109259D01*
X-3406269Y6230731D01*
X-3527741Y6323939D01*
X-3527742Y6323940D01*
X-3669198Y6382533D01*
X-3669200Y6382534D01*
X-3820999Y6402518D01*
X-3821001Y6402518D01*
X-3972801Y6382534D01*
X-3972803Y6382533D01*
X-4114259Y6323940D01*
X-4235731Y6230731D01*
X-4328940Y6109259D01*
X-4387533Y5967803D01*
X-4387534Y5967801D01*
X-4407518Y5816002D01*
X-5774482Y5816002D01*
X-5794467Y5967802D01*
X-5853061Y6109259D01*
X-5946269Y6230731D01*
X-6067741Y6323939D01*
X-6067742Y6323940D01*
X-6209198Y6382533D01*
X-6209200Y6382534D01*
X-6360999Y6402518D01*
X-6361001Y6402518D01*
X-6512801Y6382534D01*
X-6512803Y6382533D01*
X-6654259Y6323940D01*
X-6775731Y6230731D01*
X-6868940Y6109259D01*
X-6927533Y5967803D01*
X-6927534Y5967801D01*
X-6947518Y5816002D01*
X-38499500Y5816002D01*
X-38499500Y7340002D01*
X-21806518Y7340002D01*
X-21806518Y7339999D01*
X-21786534Y7188200D01*
X-21786533Y7188198D01*
X-21727940Y7046742D01*
X-21727939Y7046741D01*
X-21634731Y6925269D01*
X-21513259Y6832061D01*
X-21371802Y6773467D01*
X-21295901Y6763475D01*
X-21220001Y6753482D01*
X-21220000Y6753482D01*
X-21219999Y6753482D01*
X-21169400Y6760144D01*
X-21068198Y6773467D01*
X-20926741Y6832061D01*
X-20850984Y6890192D01*
X-20785818Y6915384D01*
X-20717373Y6901346D01*
X-20700025Y6890198D01*
X-20624259Y6832061D01*
X-20482802Y6773467D01*
X-20406901Y6763475D01*
X-20331001Y6753482D01*
X-20331000Y6753482D01*
X-20330999Y6753482D01*
X-20280400Y6760144D01*
X-20179198Y6773467D01*
X-20037741Y6832061D01*
X-19916269Y6925269D01*
X-19823061Y7046741D01*
X-19764467Y7188198D01*
X-19761202Y7213002D01*
X7657482Y7213002D01*
X7657482Y7212999D01*
X7677466Y7061200D01*
X7677467Y7061198D01*
X7736060Y6919742D01*
X7736061Y6919741D01*
X7829269Y6798269D01*
X7950741Y6705061D01*
X8092198Y6646467D01*
X8168099Y6636475D01*
X8243999Y6626482D01*
X8244000Y6626482D01*
X8244001Y6626482D01*
X8294600Y6633144D01*
X8395802Y6646467D01*
X8537259Y6705061D01*
X8658731Y6798269D01*
X8751939Y6919741D01*
X8810533Y7061198D01*
X8830518Y7213000D01*
X8825005Y7254873D01*
X8835770Y7323904D01*
X8882149Y7376161D01*
X8949418Y7395047D01*
X8964116Y7393997D01*
X9006000Y7388482D01*
X9157802Y7408467D01*
X9299259Y7467061D01*
X9420731Y7560269D01*
X9513939Y7681741D01*
X9572533Y7823198D01*
X9592518Y7975000D01*
X9572533Y8126802D01*
X9513939Y8268259D01*
X9420731Y8389731D01*
X9299259Y8482939D01*
X9299258Y8482940D01*
X9157802Y8541533D01*
X9157800Y8541534D01*
X9006001Y8561518D01*
X9005999Y8561518D01*
X8854199Y8541534D01*
X8854197Y8541533D01*
X8712741Y8482940D01*
X8591269Y8389731D01*
X8498060Y8268259D01*
X8439467Y8126803D01*
X8439466Y8126801D01*
X8419482Y7975002D01*
X8419482Y7974999D01*
X8424994Y7933130D01*
X8414228Y7864095D01*
X8367848Y7811839D01*
X8300579Y7792954D01*
X8285870Y7794006D01*
X8244001Y7799518D01*
X8243999Y7799518D01*
X8092199Y7779534D01*
X8092197Y7779533D01*
X7950741Y7720940D01*
X7829269Y7627731D01*
X7736060Y7506259D01*
X7677467Y7364803D01*
X7677466Y7364801D01*
X7657482Y7213002D01*
X-19761202Y7213002D01*
X-19744482Y7340000D01*
X-19749243Y7376161D01*
X-19764467Y7491801D01*
X-19764467Y7491802D01*
X-19823061Y7633259D01*
X-19916269Y7754731D01*
X-20037741Y7847939D01*
X-20037742Y7847940D01*
X-20179198Y7906533D01*
X-20179200Y7906534D01*
X-20330999Y7926518D01*
X-20331001Y7926518D01*
X-20482801Y7906534D01*
X-20482803Y7906533D01*
X-20624259Y7847940D01*
X-20700014Y7789811D01*
X-20765183Y7764617D01*
X-20833628Y7778656D01*
X-20850986Y7789811D01*
X-20926742Y7847940D01*
X-21068198Y7906533D01*
X-21068200Y7906534D01*
X-21219999Y7926518D01*
X-21220001Y7926518D01*
X-21371801Y7906534D01*
X-21371803Y7906533D01*
X-21513259Y7847940D01*
X-21634731Y7754731D01*
X-21727940Y7633259D01*
X-21786533Y7491803D01*
X-21786534Y7491801D01*
X-21806518Y7340002D01*
X-38499500Y7340002D01*
X-38499500Y8737002D01*
X-6947518Y8737002D01*
X-6947518Y8736999D01*
X-6927534Y8585200D01*
X-6927533Y8585198D01*
X-6868940Y8443742D01*
X-6868939Y8443741D01*
X-6775731Y8322269D01*
X-6654259Y8229061D01*
X-6512802Y8170467D01*
X-6436901Y8160475D01*
X-6361001Y8150482D01*
X-6361000Y8150482D01*
X-6360999Y8150482D01*
X-6310400Y8157144D01*
X-6209198Y8170467D01*
X-6067741Y8229061D01*
X-5946269Y8322269D01*
X-5853061Y8443741D01*
X-5794467Y8585198D01*
X-5774482Y8737000D01*
X-5780480Y8782556D01*
X-5794467Y8888801D01*
X-5794467Y8888802D01*
X-5853061Y9030259D01*
X-5946269Y9151731D01*
X-6067741Y9244939D01*
X-6067742Y9244940D01*
X-6209198Y9303533D01*
X-6209200Y9303534D01*
X-6360999Y9323518D01*
X-6361001Y9323518D01*
X-6512801Y9303534D01*
X-6512803Y9303533D01*
X-6654259Y9244940D01*
X-6775731Y9151731D01*
X-6868940Y9030259D01*
X-6927533Y8888803D01*
X-6927534Y8888801D01*
X-6947518Y8737002D01*
X-38499500Y8737002D01*
X-38499500Y9859402D01*
X1942482Y9859402D01*
X1942482Y9859399D01*
X1962466Y9707600D01*
X1962467Y9707598D01*
X2021060Y9566142D01*
X2021061Y9566141D01*
X2114269Y9444669D01*
X2235741Y9351461D01*
X2377198Y9292867D01*
X2453099Y9282875D01*
X2528999Y9272882D01*
X2529000Y9272882D01*
X2529001Y9272882D01*
X2579600Y9279544D01*
X2680802Y9292867D01*
X2822259Y9351461D01*
X2943731Y9444669D01*
X3036939Y9566141D01*
X3061734Y9626002D01*
X6514482Y9626002D01*
X6514482Y9625999D01*
X6534466Y9474200D01*
X6534467Y9474198D01*
X6593060Y9332742D01*
X6593061Y9332741D01*
X6686269Y9211269D01*
X6807741Y9118061D01*
X6949198Y9059467D01*
X7002118Y9052500D01*
X7100999Y9039482D01*
X7101000Y9039482D01*
X7101001Y9039482D01*
X7151600Y9046144D01*
X7252802Y9059467D01*
X7394259Y9118061D01*
X7515731Y9211269D01*
X7608939Y9332741D01*
X7625202Y9372002D01*
X10197482Y9372002D01*
X10197482Y9371999D01*
X10217466Y9220200D01*
X10217467Y9220198D01*
X10276060Y9078742D01*
X10276061Y9078741D01*
X10369269Y8957269D01*
X10490741Y8864061D01*
X10632198Y8805467D01*
X10708099Y8795475D01*
X10783999Y8785482D01*
X10784000Y8785482D01*
X10784001Y8785482D01*
X10834600Y8792144D01*
X10935802Y8805467D01*
X11077259Y8864061D01*
X11099689Y8881272D01*
X11164858Y8906467D01*
X11233303Y8892429D01*
X11283293Y8843616D01*
X11289736Y8830352D01*
X11292059Y8824743D01*
X11306850Y8805467D01*
X11385269Y8703269D01*
X11506741Y8610061D01*
X11530732Y8600124D01*
X11536918Y8597561D01*
X11591321Y8553719D01*
X11613385Y8487425D01*
X11596105Y8419726D01*
X11544968Y8372116D01*
X11536918Y8368439D01*
X11506740Y8355939D01*
X11385269Y8262731D01*
X11292060Y8141259D01*
X11233467Y7999803D01*
X11233466Y7999801D01*
X11213482Y7848002D01*
X11213482Y7847999D01*
X11233466Y7696200D01*
X11233467Y7696198D01*
X11292060Y7554742D01*
X11292061Y7554741D01*
X11385269Y7433269D01*
X11506741Y7340061D01*
X11648198Y7281467D01*
X11724099Y7271475D01*
X11799999Y7261482D01*
X11800000Y7261482D01*
X11800001Y7261482D01*
X11850600Y7268144D01*
X11951802Y7281467D01*
X12093259Y7340061D01*
X12214731Y7433269D01*
X12307939Y7554741D01*
X12343638Y7640925D01*
X26143827Y7640925D01*
X26267813Y7574652D01*
X26456320Y7517469D01*
X26456316Y7517469D01*
X26652351Y7498162D01*
X26848383Y7517469D01*
X27036888Y7574652D01*
X27160874Y7640924D01*
X27160874Y7640925D01*
X26652352Y8149447D01*
X26652351Y8149447D01*
X26143827Y7640925D01*
X12343638Y7640925D01*
X12366533Y7696198D01*
X12383253Y7823200D01*
X12386518Y7847999D01*
X12386518Y7848002D01*
X12366533Y7999801D01*
X12366533Y7999802D01*
X12307939Y8141259D01*
X12214731Y8262731D01*
X12093259Y8355939D01*
X12093258Y8355940D01*
X12063082Y8368439D01*
X12008679Y8412280D01*
X11986614Y8478574D01*
X12003893Y8546273D01*
X12055030Y8593884D01*
X12063082Y8597561D01*
X12071144Y8600901D01*
X12093259Y8610061D01*
X12214731Y8703269D01*
X12307939Y8824741D01*
X12366533Y8966198D01*
X12379856Y9067400D01*
X12386518Y9117999D01*
X12386518Y9118002D01*
X12366533Y9269801D01*
X12366533Y9269802D01*
X12307939Y9411259D01*
X12214731Y9532731D01*
X12093259Y9625939D01*
X12093258Y9625940D01*
X11951802Y9684533D01*
X11951800Y9684534D01*
X11800001Y9704518D01*
X11799999Y9704518D01*
X11648199Y9684534D01*
X11648197Y9684533D01*
X11506739Y9625939D01*
X11484306Y9608726D01*
X11419136Y9583534D01*
X11350692Y9597574D01*
X11300704Y9646390D01*
X11294261Y9659653D01*
X11291939Y9665259D01*
X11198731Y9786731D01*
X11077259Y9879939D01*
X11077258Y9879940D01*
X10935802Y9938533D01*
X10935800Y9938534D01*
X10784001Y9958518D01*
X10783999Y9958518D01*
X10632199Y9938534D01*
X10632197Y9938533D01*
X10490741Y9879940D01*
X10369269Y9786731D01*
X10276060Y9665259D01*
X10217467Y9523803D01*
X10217466Y9523801D01*
X10197482Y9372002D01*
X7625202Y9372002D01*
X7667533Y9474198D01*
X7682005Y9584126D01*
X7687518Y9625999D01*
X7687518Y9626002D01*
X7667533Y9777801D01*
X7667533Y9777802D01*
X7608939Y9919259D01*
X7515731Y10040731D01*
X7394259Y10133939D01*
X7394258Y10133940D01*
X7252802Y10192533D01*
X7252800Y10192534D01*
X7101001Y10212518D01*
X7100999Y10212518D01*
X6949199Y10192534D01*
X6949197Y10192533D01*
X6807741Y10133940D01*
X6686269Y10040731D01*
X6593060Y9919259D01*
X6534467Y9777803D01*
X6534466Y9777801D01*
X6514482Y9626002D01*
X3061734Y9626002D01*
X3095533Y9707598D01*
X3115518Y9859400D01*
X3107637Y9919259D01*
X3095533Y10011201D01*
X3095533Y10011202D01*
X3036939Y10152659D01*
X2943731Y10274131D01*
X2822259Y10367339D01*
X2822258Y10367340D01*
X2680802Y10425933D01*
X2680800Y10425934D01*
X2529001Y10445918D01*
X2528999Y10445918D01*
X2377199Y10425934D01*
X2377197Y10425933D01*
X2235741Y10367340D01*
X2114269Y10274131D01*
X2021060Y10152659D01*
X1962467Y10011203D01*
X1962466Y10011201D01*
X1942482Y9859402D01*
X-38499500Y9859402D01*
X-38499500Y11003000D01*
X24696706Y11003000D01*
X24717210Y10834131D01*
X24717211Y10834126D01*
X24777533Y10675069D01*
X24874169Y10535070D01*
X24946697Y10470815D01*
X24983824Y10411626D01*
X24983056Y10341760D01*
X24946697Y10285185D01*
X24874169Y10220931D01*
X24777533Y10080932D01*
X24717211Y9921875D01*
X24717210Y9921870D01*
X24696706Y9753000D01*
X24717210Y9584131D01*
X24717211Y9584126D01*
X24777533Y9425069D01*
X24874169Y9285070D01*
X24946697Y9220815D01*
X24983824Y9161626D01*
X24983056Y9091760D01*
X24946697Y9035185D01*
X24874169Y8970931D01*
X24777533Y8830932D01*
X24717211Y8671875D01*
X24717210Y8671870D01*
X24696706Y8503000D01*
X24717210Y8334131D01*
X24717211Y8334126D01*
X24777533Y8175069D01*
X24810850Y8126802D01*
X24874168Y8035071D01*
X24941976Y7974999D01*
X25001501Y7922264D01*
X25143001Y7847999D01*
X25152126Y7843210D01*
X25317295Y7802500D01*
X25487407Y7802500D01*
X25652576Y7843210D01*
X25773229Y7906534D01*
X25803200Y7922264D01*
X25803201Y7922266D01*
X25803203Y7922266D01*
X25930534Y8035071D01*
X26027169Y8175070D01*
X26052128Y8240885D01*
X26080388Y8284593D01*
X26357496Y8561701D01*
X26352351Y8542496D01*
X26352351Y8463504D01*
X26372795Y8387204D01*
X26412291Y8318795D01*
X26468146Y8262940D01*
X26536555Y8223444D01*
X26612855Y8203000D01*
X26691847Y8203000D01*
X26768147Y8223444D01*
X26836556Y8262940D01*
X26892411Y8318795D01*
X26931907Y8387204D01*
X26952351Y8463504D01*
X26952351Y8503001D01*
X27005904Y8503001D01*
X27005904Y8503000D01*
X27514427Y7994477D01*
X27580699Y8118463D01*
X27637882Y8306968D01*
X27657189Y8503000D01*
X27637882Y8699033D01*
X27580699Y8887538D01*
X27514426Y9011524D01*
X27005904Y8503001D01*
X26952351Y8503001D01*
X26952351Y8542496D01*
X26931907Y8618796D01*
X26892411Y8687205D01*
X26836556Y8743060D01*
X26768147Y8782556D01*
X26691847Y8803000D01*
X26612855Y8803000D01*
X26593651Y8797855D01*
X26861895Y9066099D01*
X26896569Y9088513D01*
X26895934Y9089724D01*
X26949807Y9117999D01*
X27053203Y9172266D01*
X27180534Y9285071D01*
X27277169Y9425070D01*
X27337491Y9584128D01*
X27357996Y9753000D01*
X27337491Y9921872D01*
X27277169Y10080930D01*
X27180534Y10220929D01*
X27108002Y10285186D01*
X27070877Y10344374D01*
X27071645Y10414239D01*
X27108002Y10470815D01*
X27180534Y10535071D01*
X27277169Y10675070D01*
X27337491Y10834128D01*
X27357996Y11003000D01*
X27337491Y11171872D01*
X27277169Y11330930D01*
X27180534Y11470929D01*
X27053203Y11583734D01*
X27053200Y11583737D01*
X26902577Y11662790D01*
X26737407Y11703500D01*
X26567295Y11703500D01*
X26402124Y11662790D01*
X26251501Y11583737D01*
X26124164Y11470926D01*
X26120163Y11466409D01*
X26060972Y11429285D01*
X25991107Y11430055D01*
X25934539Y11466409D01*
X25930537Y11470926D01*
X25803200Y11583737D01*
X25652577Y11662790D01*
X25487407Y11703500D01*
X25317295Y11703500D01*
X25152124Y11662790D01*
X25001501Y11583737D01*
X24874167Y11470928D01*
X24777533Y11330932D01*
X24717211Y11171875D01*
X24717210Y11171870D01*
X24696706Y11003000D01*
X-38499500Y11003000D01*
X-38499500Y11658002D01*
X14261482Y11658002D01*
X14261482Y11657999D01*
X14281466Y11506200D01*
X14281467Y11506198D01*
X14340060Y11364742D01*
X14340061Y11364741D01*
X14433269Y11243269D01*
X14554741Y11150061D01*
X14696198Y11091467D01*
X14772099Y11081475D01*
X14847999Y11071482D01*
X14848000Y11071482D01*
X14848001Y11071482D01*
X14898600Y11078144D01*
X14999802Y11091467D01*
X15141259Y11150061D01*
X15262731Y11243269D01*
X15355939Y11364741D01*
X15414533Y11506198D01*
X15434518Y11658000D01*
X15433887Y11662790D01*
X15414533Y11809801D01*
X15414533Y11809802D01*
X15355939Y11951259D01*
X15262731Y12072731D01*
X15141259Y12165939D01*
X15141258Y12165940D01*
X14999802Y12224533D01*
X14999800Y12224534D01*
X14848001Y12244518D01*
X14847999Y12244518D01*
X14696199Y12224534D01*
X14696197Y12224533D01*
X14554741Y12165940D01*
X14433269Y12072731D01*
X14340060Y11951259D01*
X14281467Y11809803D01*
X14281466Y11809801D01*
X14261482Y11658002D01*
X-38499500Y11658002D01*
X-38499500Y12547002D01*
X-26378518Y12547002D01*
X-26378518Y12546999D01*
X-26358534Y12395200D01*
X-26358533Y12395198D01*
X-26299940Y12253742D01*
X-26299939Y12253741D01*
X-26206731Y12132269D01*
X-26085259Y12039061D01*
X-25943802Y11980467D01*
X-25867901Y11970475D01*
X-25792001Y11960482D01*
X-25792000Y11960482D01*
X-25791999Y11960482D01*
X-25741400Y11967144D01*
X-25640198Y11980467D01*
X-25498741Y12039061D01*
X-25377269Y12132269D01*
X-25284061Y12253741D01*
X-25225467Y12395198D01*
X-25205482Y12547000D01*
X-25205482Y12547002D01*
X-21933518Y12547002D01*
X-21933518Y12546999D01*
X-21913534Y12395200D01*
X-21913533Y12395198D01*
X-21854940Y12253742D01*
X-21854939Y12253741D01*
X-21761731Y12132269D01*
X-21640259Y12039061D01*
X-21498802Y11980467D01*
X-21422901Y11970475D01*
X-21347001Y11960482D01*
X-21347000Y11960482D01*
X-21346999Y11960482D01*
X-21296400Y11967144D01*
X-21195198Y11980467D01*
X-21053741Y12039061D01*
X-20932269Y12132269D01*
X-20839061Y12253741D01*
X-20780467Y12395198D01*
X-20760482Y12547000D01*
X-20780467Y12698802D01*
X-20839061Y12840259D01*
X-20932269Y12961731D01*
X-21053741Y13054939D01*
X-21053742Y13054940D01*
X-21195198Y13113533D01*
X-21195200Y13113534D01*
X-21346999Y13133518D01*
X-21347001Y13133518D01*
X-21498801Y13113534D01*
X-21498803Y13113533D01*
X-21640259Y13054940D01*
X-21761731Y12961731D01*
X-21854940Y12840259D01*
X-21913533Y12698803D01*
X-21913534Y12698801D01*
X-21933518Y12547002D01*
X-25205482Y12547002D01*
X-25225467Y12698802D01*
X-25284061Y12840259D01*
X-25377269Y12961731D01*
X-25498741Y13054939D01*
X-25498742Y13054940D01*
X-25640198Y13113533D01*
X-25640200Y13113534D01*
X-25791999Y13133518D01*
X-25792001Y13133518D01*
X-25943801Y13113534D01*
X-25943803Y13113533D01*
X-26085259Y13054940D01*
X-26206731Y12961731D01*
X-26299940Y12840259D01*
X-26358533Y12698803D01*
X-26358534Y12698801D01*
X-26378518Y12547002D01*
X-38499500Y12547002D01*
X-38499500Y17371922D01*
X-20289400Y17371922D01*
X-20289400Y17158579D01*
X-20256025Y16947859D01*
X-20256025Y16947856D01*
X-20190100Y16744960D01*
X-20127986Y16623055D01*
X-20093242Y16554866D01*
X-19967841Y16382266D01*
X-19816984Y16231409D01*
X-19644384Y16106008D01*
X-19454293Y16009152D01*
X-19454291Y16009151D01*
X-19251394Y15943226D01*
X-19251393Y15943226D01*
X-19251390Y15943225D01*
X-19040672Y15909850D01*
X-19040671Y15909850D01*
X-18827329Y15909850D01*
X-18827328Y15909850D01*
X-18616610Y15943225D01*
X-18616607Y15943226D01*
X-18616606Y15943226D01*
X-18413710Y16009151D01*
X-18413710Y16009152D01*
X-18413707Y16009152D01*
X-18223616Y16106008D01*
X-18051016Y16231409D01*
X-17900159Y16382266D01*
X-17774758Y16554866D01*
X-17677902Y16744957D01*
X-17665946Y16781753D01*
X-11879500Y16781753D01*
X-11879500Y14742248D01*
X-11867869Y14683771D01*
X-11867868Y14683770D01*
X-11823553Y14617448D01*
X-11757231Y14573133D01*
X-11757230Y14573132D01*
X-11698753Y14561501D01*
X-11698750Y14561500D01*
X-11698748Y14561500D01*
X-9659250Y14561500D01*
X-9659249Y14561501D01*
X-9644432Y14564448D01*
X-9600771Y14573132D01*
X-9600771Y14573133D01*
X-9600769Y14573133D01*
X-9534448Y14617448D01*
X-9490133Y14683769D01*
X-9490133Y14683771D01*
X-9490132Y14683771D01*
X-9478501Y14742248D01*
X-9478500Y14742250D01*
X-9478500Y14903000D01*
X23296943Y14903000D01*
X23316552Y14616320D01*
X23316552Y14616316D01*
X23316553Y14616314D01*
X23338335Y14511491D01*
X23375017Y14334966D01*
X23375018Y14334963D01*
X23471245Y14064207D01*
X23471244Y14064207D01*
X23603449Y13809065D01*
X23769163Y13574300D01*
X23854274Y13483169D01*
X23965298Y13364292D01*
X24188204Y13182945D01*
X24398698Y13054940D01*
X24433733Y13033635D01*
X24599275Y12961731D01*
X24697293Y12919156D01*
X24973993Y12841629D01*
X25224271Y12807229D01*
X25258672Y12802500D01*
X25258673Y12802500D01*
X25546030Y12802500D01*
X25576721Y12806719D01*
X25830709Y12841629D01*
X26107409Y12919156D01*
X26220366Y12968221D01*
X26370968Y13033635D01*
X26370971Y13033637D01*
X26370976Y13033639D01*
X26616498Y13182945D01*
X26839404Y13364292D01*
X27035540Y13574302D01*
X27201252Y13809064D01*
X27333455Y14064203D01*
X27429685Y14334968D01*
X27488149Y14616314D01*
X27507759Y14903000D01*
X27488149Y15189686D01*
X27429685Y15471032D01*
X27333456Y15741794D01*
X27333457Y15741794D01*
X27201252Y15996936D01*
X27035538Y16231701D01*
X26956905Y16315895D01*
X26839404Y16441708D01*
X26616498Y16623055D01*
X26616497Y16623056D01*
X26370968Y16772366D01*
X26107414Y16886842D01*
X26107412Y16886843D01*
X26107409Y16886844D01*
X25977929Y16923123D01*
X25830715Y16964370D01*
X25830710Y16964371D01*
X25830709Y16964371D01*
X25688369Y16983936D01*
X25546030Y17003500D01*
X25546029Y17003500D01*
X25258673Y17003500D01*
X25258672Y17003500D01*
X24973993Y16964371D01*
X24973986Y16964370D01*
X24767636Y16906553D01*
X24697293Y16886844D01*
X24697290Y16886844D01*
X24697287Y16886842D01*
X24697286Y16886842D01*
X24433733Y16772366D01*
X24188204Y16623056D01*
X23965301Y16441711D01*
X23769163Y16231701D01*
X23603449Y15996936D01*
X23471245Y15741794D01*
X23375018Y15471038D01*
X23375017Y15471035D01*
X23316552Y15189681D01*
X23296943Y14903000D01*
X-9478500Y14903000D01*
X-9478500Y16781751D01*
X-9478501Y16781753D01*
X-9490132Y16840230D01*
X-9490133Y16840231D01*
X-9534448Y16906553D01*
X-9600770Y16950868D01*
X-9600771Y16950869D01*
X-9659248Y16962500D01*
X-9659252Y16962500D01*
X-11698748Y16962500D01*
X-11698753Y16962500D01*
X-11757230Y16950869D01*
X-11757231Y16950868D01*
X-11823553Y16906553D01*
X-11867868Y16840231D01*
X-11867869Y16840230D01*
X-11879500Y16781753D01*
X-17665946Y16781753D01*
X-17611975Y16947860D01*
X-17578600Y17158578D01*
X-17578600Y17371922D01*
X-17611975Y17582640D01*
X-17611976Y17582644D01*
X-17611976Y17582645D01*
X-17677901Y17785541D01*
X-17677902Y17785543D01*
X-17726541Y17881002D01*
X-1232518Y17881002D01*
X-1232518Y17880999D01*
X-1212534Y17729200D01*
X-1212533Y17729198D01*
X-1153940Y17587742D01*
X-1150025Y17582640D01*
X-1060731Y17466269D01*
X-939259Y17373061D01*
X-797802Y17314467D01*
X-721901Y17304475D01*
X-646001Y17294482D01*
X-646000Y17294482D01*
X-645999Y17294482D01*
X-595400Y17301144D01*
X-494198Y17314467D01*
X-352741Y17373061D01*
X-273572Y17433810D01*
X-208404Y17459004D01*
X-139959Y17444966D01*
X-99711Y17410921D01*
X-44731Y17339269D01*
X76741Y17246061D01*
X218198Y17187467D01*
X294099Y17177475D01*
X369999Y17167482D01*
X370000Y17167482D01*
X370001Y17167482D01*
X420600Y17174144D01*
X521802Y17187467D01*
X663259Y17246061D01*
X784731Y17339269D01*
X877939Y17460741D01*
X936533Y17602198D01*
X943961Y17658621D01*
X972227Y17722517D01*
X1019503Y17753701D01*
X1113386Y17753701D01*
X1159640Y17724747D01*
X1189419Y17661541D01*
X1189839Y17658620D01*
X1197266Y17602200D01*
X1197267Y17602198D01*
X1255860Y17460742D01*
X1255861Y17460741D01*
X1349069Y17339269D01*
X1470541Y17246061D01*
X1611998Y17187467D01*
X1687899Y17177475D01*
X1763799Y17167482D01*
X1763800Y17167482D01*
X1763801Y17167482D01*
X1814400Y17174144D01*
X1915602Y17187467D01*
X2057059Y17246061D01*
X2178531Y17339269D01*
X2271739Y17460741D01*
X2330333Y17602198D01*
X2350318Y17754000D01*
X2350318Y17754002D01*
X2831482Y17754002D01*
X2831482Y17753999D01*
X2851466Y17602200D01*
X2851467Y17602198D01*
X2910060Y17460742D01*
X2910061Y17460741D01*
X3003269Y17339269D01*
X3124741Y17246061D01*
X3266198Y17187467D01*
X3342099Y17177475D01*
X3417999Y17167482D01*
X3418000Y17167482D01*
X3418001Y17167482D01*
X3468600Y17174144D01*
X3569802Y17187467D01*
X3711259Y17246061D01*
X3832731Y17339269D01*
X3925939Y17460741D01*
X3984533Y17602198D01*
X4004518Y17754000D01*
X4004478Y17754301D01*
X3987798Y17881002D01*
X4355482Y17881002D01*
X4355482Y17880999D01*
X4375466Y17729200D01*
X4375467Y17729198D01*
X4434060Y17587742D01*
X4437975Y17582640D01*
X4527269Y17466269D01*
X4648741Y17373061D01*
X4790198Y17314467D01*
X4866099Y17304475D01*
X4941999Y17294482D01*
X4942000Y17294482D01*
X4942001Y17294482D01*
X4992600Y17301144D01*
X5093802Y17314467D01*
X5235259Y17373061D01*
X5356731Y17466269D01*
X5449939Y17587741D01*
X5508533Y17729198D01*
X5528518Y17881000D01*
X5528518Y17881002D01*
X6260482Y17881002D01*
X6260482Y17880999D01*
X6280466Y17729200D01*
X6280467Y17729198D01*
X6339060Y17587742D01*
X6342975Y17582640D01*
X6432269Y17466269D01*
X6553741Y17373061D01*
X6695198Y17314467D01*
X6771099Y17304475D01*
X6846999Y17294482D01*
X6847000Y17294482D01*
X6847001Y17294482D01*
X6897600Y17301144D01*
X6998802Y17314467D01*
X7140259Y17373061D01*
X7261731Y17466269D01*
X7354939Y17587741D01*
X7354939Y17587742D01*
X7355063Y17587903D01*
X7411491Y17629106D01*
X7481237Y17633261D01*
X7542157Y17599049D01*
X7568000Y17559870D01*
X7609060Y17460742D01*
X7609061Y17460741D01*
X7702269Y17339269D01*
X7823741Y17246061D01*
X7965198Y17187467D01*
X8041099Y17177475D01*
X8116999Y17167482D01*
X8117000Y17167482D01*
X8117001Y17167482D01*
X8167600Y17174144D01*
X8268802Y17187467D01*
X8410259Y17246061D01*
X8531731Y17339269D01*
X8624939Y17460741D01*
X8683533Y17602198D01*
X8703518Y17754000D01*
X8703478Y17754301D01*
X8683533Y17905801D01*
X8683533Y17905802D01*
X8624939Y18047259D01*
X8531731Y18168731D01*
X8410259Y18261939D01*
X8410258Y18261940D01*
X8268802Y18320533D01*
X8268800Y18320534D01*
X8117001Y18340518D01*
X8116999Y18340518D01*
X7965199Y18320534D01*
X7965197Y18320533D01*
X7823741Y18261940D01*
X7702268Y18168731D01*
X7608935Y18047097D01*
X7552507Y18005895D01*
X7482761Y18001740D01*
X7421841Y18035953D01*
X7395999Y18075132D01*
X7354940Y18174258D01*
X7337345Y18197188D01*
X7261731Y18295731D01*
X7140259Y18388939D01*
X7140258Y18388940D01*
X6998802Y18447533D01*
X6998800Y18447534D01*
X6847001Y18467518D01*
X6846999Y18467518D01*
X6695199Y18447534D01*
X6695197Y18447533D01*
X6553741Y18388940D01*
X6432269Y18295731D01*
X6339060Y18174259D01*
X6280467Y18032803D01*
X6280466Y18032801D01*
X6260482Y17881002D01*
X5528518Y17881002D01*
X5508533Y18032802D01*
X5449939Y18174259D01*
X5356731Y18295731D01*
X5235259Y18388939D01*
X5235258Y18388940D01*
X5093802Y18447533D01*
X5093800Y18447534D01*
X4942001Y18467518D01*
X4941999Y18467518D01*
X4790199Y18447534D01*
X4790197Y18447533D01*
X4648741Y18388940D01*
X4527269Y18295731D01*
X4434060Y18174259D01*
X4375467Y18032803D01*
X4375466Y18032801D01*
X4355482Y17881002D01*
X3987798Y17881002D01*
X3984533Y17905801D01*
X3984533Y17905802D01*
X3925939Y18047259D01*
X3832731Y18168731D01*
X3711259Y18261939D01*
X3711258Y18261940D01*
X3569802Y18320533D01*
X3569800Y18320534D01*
X3418001Y18340518D01*
X3417999Y18340518D01*
X3266199Y18320534D01*
X3266197Y18320533D01*
X3124741Y18261940D01*
X3003269Y18168731D01*
X2910060Y18047259D01*
X2851467Y17905803D01*
X2851466Y17905801D01*
X2831482Y17754002D01*
X2350318Y17754002D01*
X2350278Y17754301D01*
X2330333Y17905801D01*
X2330333Y17905802D01*
X2271739Y18047259D01*
X2178531Y18168731D01*
X2057059Y18261939D01*
X2057058Y18261940D01*
X1915602Y18320533D01*
X1915600Y18320534D01*
X1763801Y18340518D01*
X1763799Y18340518D01*
X1611999Y18320534D01*
X1611997Y18320533D01*
X1470541Y18261940D01*
X1349069Y18168731D01*
X1255860Y18047259D01*
X1197267Y17905803D01*
X1197267Y17905802D01*
X1189839Y17849380D01*
X1161572Y17785484D01*
X1113386Y17753701D01*
X1019503Y17753701D01*
X1020413Y17754301D01*
X974160Y17783254D01*
X944381Y17846460D01*
X943961Y17849380D01*
X939798Y17881000D01*
X936533Y17905802D01*
X877939Y18047259D01*
X784731Y18168731D01*
X663259Y18261939D01*
X663258Y18261940D01*
X521802Y18320533D01*
X521800Y18320534D01*
X370001Y18340518D01*
X369999Y18340518D01*
X218199Y18320534D01*
X218197Y18320533D01*
X76740Y18261940D01*
X-2429Y18201191D01*
X-67599Y18175997D01*
X-136043Y18190036D01*
X-176290Y18224080D01*
X-231269Y18295731D01*
X-352741Y18388939D01*
X-352742Y18388940D01*
X-494198Y18447533D01*
X-494200Y18447534D01*
X-645999Y18467518D01*
X-646001Y18467518D01*
X-797801Y18447534D01*
X-797803Y18447533D01*
X-939259Y18388940D01*
X-1060731Y18295731D01*
X-1153940Y18174259D01*
X-1212533Y18032803D01*
X-1212534Y18032801D01*
X-1232518Y17881002D01*
X-17726541Y17881002D01*
X-17774758Y17975634D01*
X-17900159Y18148234D01*
X-18051016Y18299091D01*
X-18223616Y18424492D01*
X-18253122Y18439526D01*
X-18413710Y18521350D01*
X-18616607Y18587275D01*
X-18774649Y18612307D01*
X-18827328Y18620650D01*
X-19040672Y18620650D01*
X-19110912Y18609525D01*
X-19251392Y18587275D01*
X-19251395Y18587275D01*
X-19454291Y18521350D01*
X-19644385Y18424492D01*
X-19816987Y18299089D01*
X-19967839Y18148237D01*
X-20093242Y17975635D01*
X-20190100Y17785541D01*
X-20256025Y17582645D01*
X-20256025Y17582642D01*
X-20289400Y17371922D01*
X-38499500Y17371922D01*
X-38499500Y19516638D01*
X-38479815Y19583677D01*
X-38427011Y19629432D01*
X-38357853Y19639376D01*
X-38294297Y19610351D01*
X-38271505Y19584173D01*
X-38060477Y19259217D01*
X-38060475Y19259215D01*
X-37851904Y19001652D01*
X-36357253Y20496303D01*
X-36283412Y20394670D01*
X-36105330Y20216588D01*
X-36003699Y20142749D01*
X-37498350Y18648098D01*
X-37240786Y18439525D01*
X-37240784Y18439524D01*
X-36915544Y18228311D01*
X-36569995Y18052245D01*
X-36207937Y17913263D01*
X-35833331Y17812888D01*
X-35833324Y17812887D01*
X-35450288Y17752220D01*
X-35063001Y17731922D01*
X-35062999Y17731922D01*
X-34675713Y17752220D01*
X-34292677Y17812887D01*
X-34292670Y17812888D01*
X-33918064Y17913263D01*
X-33556006Y18052245D01*
X-33210457Y18228311D01*
X-32885229Y18439516D01*
X-32885216Y18439526D01*
X-32627652Y18648098D01*
X-34122302Y20142748D01*
X-34020670Y20216588D01*
X-33842588Y20394670D01*
X-33768748Y20496302D01*
X-32274098Y19001652D01*
X-32065526Y19259216D01*
X-32065516Y19259229D01*
X-31854311Y19584457D01*
X-31678245Y19930006D01*
X-31539263Y20292064D01*
X-31438888Y20666670D01*
X-31438887Y20666677D01*
X-31423788Y20762006D01*
X-12184141Y20762006D01*
X-12184141Y20761995D01*
X-12163615Y20514271D01*
X-12163613Y20514262D01*
X-12102588Y20273283D01*
X-12002733Y20045633D01*
X-11902438Y19892119D01*
X-11079000Y20715555D01*
X-11079000Y20709339D01*
X-11051741Y20607606D01*
X-10999080Y20516394D01*
X-10924606Y20441920D01*
X-10833394Y20389259D01*
X-10731661Y20362000D01*
X-10725446Y20362000D01*
X-11549057Y19538391D01*
X-11502232Y19501945D01*
X-11502229Y19501943D01*
X-11283615Y19383636D01*
X-11283604Y19383631D01*
X-11048494Y19302917D01*
X-10803293Y19262000D01*
X-10554707Y19262000D01*
X-10309507Y19302917D01*
X-10074397Y19383631D01*
X-10074386Y19383636D01*
X-9855770Y19501944D01*
X-9855764Y19501949D01*
X-9808945Y19538390D01*
X-9808944Y19538391D01*
X-10632554Y20362000D01*
X-10626339Y20362000D01*
X-10524606Y20389259D01*
X-10433394Y20441920D01*
X-10358920Y20516394D01*
X-10306259Y20607606D01*
X-10279000Y20709339D01*
X-10279000Y20715553D01*
X-9455565Y19892118D01*
X-9355267Y20045636D01*
X-9255413Y20273283D01*
X-9194388Y20514262D01*
X-9194386Y20514271D01*
X-9173859Y20761995D01*
X-9173859Y20762006D01*
X-9194386Y21009730D01*
X-9194388Y21009739D01*
X-9206104Y21056002D01*
X291482Y21056002D01*
X291482Y21055999D01*
X311466Y20904200D01*
X311467Y20904198D01*
X370060Y20762742D01*
X370630Y20761999D01*
X463269Y20641269D01*
X584741Y20548061D01*
X726198Y20489467D01*
X802099Y20479475D01*
X877999Y20469482D01*
X878000Y20469482D01*
X878001Y20469482D01*
X928600Y20476144D01*
X1029802Y20489467D01*
X1171259Y20548061D01*
X1292731Y20641269D01*
X1318615Y20675002D01*
X5117482Y20675002D01*
X5117482Y20674999D01*
X5137466Y20523200D01*
X5137467Y20523198D01*
X5196060Y20381742D01*
X5196061Y20381741D01*
X5289269Y20260269D01*
X5410741Y20167061D01*
X5552198Y20108467D01*
X5628099Y20098475D01*
X5703999Y20088482D01*
X5704000Y20088482D01*
X5704001Y20088482D01*
X5754600Y20095144D01*
X5855802Y20108467D01*
X5997259Y20167061D01*
X6118731Y20260269D01*
X6211939Y20381741D01*
X6270533Y20523198D01*
X6290518Y20675000D01*
X6270533Y20826802D01*
X6211939Y20968259D01*
X6118731Y21089731D01*
X5997259Y21182939D01*
X5997258Y21182940D01*
X5855802Y21241533D01*
X5855800Y21241534D01*
X5704001Y21261518D01*
X5703999Y21261518D01*
X5552199Y21241534D01*
X5552197Y21241533D01*
X5410741Y21182940D01*
X5289269Y21089731D01*
X5196060Y20968259D01*
X5137467Y20826803D01*
X5137466Y20826801D01*
X5117482Y20675002D01*
X1318615Y20675002D01*
X1385939Y20762741D01*
X1444533Y20904198D01*
X1464518Y21056000D01*
X1463684Y21062332D01*
X1444533Y21207801D01*
X1444533Y21207802D01*
X1385939Y21349259D01*
X1292731Y21470731D01*
X1171259Y21563939D01*
X1171258Y21563940D01*
X1171108Y21564002D01*
X18198482Y21564002D01*
X18198482Y21563999D01*
X18218466Y21412200D01*
X18218467Y21412198D01*
X18277060Y21270742D01*
X18277061Y21270741D01*
X18370269Y21149269D01*
X18491741Y21056061D01*
X18633198Y20997467D01*
X18691055Y20989850D01*
X18784999Y20977482D01*
X18785000Y20977482D01*
X18785001Y20977482D01*
X18835600Y20984144D01*
X18936802Y20997467D01*
X19078259Y21056061D01*
X19199731Y21149269D01*
X19292939Y21270741D01*
X19351533Y21412198D01*
X19371518Y21564000D01*
X19351533Y21715802D01*
X19292939Y21857259D01*
X19199731Y21978731D01*
X19078259Y22071939D01*
X19078258Y22071940D01*
X18936802Y22130533D01*
X18936800Y22130534D01*
X18785001Y22150518D01*
X18784999Y22150518D01*
X18633199Y22130534D01*
X18633197Y22130533D01*
X18491741Y22071940D01*
X18370269Y21978731D01*
X18277060Y21857259D01*
X18218467Y21715803D01*
X18218466Y21715801D01*
X18198482Y21564002D01*
X1171108Y21564002D01*
X1029802Y21622533D01*
X1029800Y21622534D01*
X878001Y21642518D01*
X877999Y21642518D01*
X726199Y21622534D01*
X726197Y21622533D01*
X584741Y21563940D01*
X463269Y21470731D01*
X370060Y21349259D01*
X311467Y21207803D01*
X311466Y21207801D01*
X291482Y21056002D01*
X-9206104Y21056002D01*
X-9255413Y21250718D01*
X-9355268Y21478368D01*
X-9455565Y21631884D01*
X-10279000Y20808448D01*
X-10279000Y20814661D01*
X-10306259Y20916394D01*
X-10358920Y21007606D01*
X-10433394Y21082080D01*
X-10524606Y21134741D01*
X-10626339Y21162000D01*
X-10632553Y21162000D01*
X-9808945Y21985611D01*
X-9808945Y21985612D01*
X-9855764Y22022053D01*
X-9855769Y22022056D01*
X-10074386Y22140365D01*
X-10074397Y22140370D01*
X-10309507Y22221084D01*
X-10554707Y22262000D01*
X-10803293Y22262000D01*
X-11048494Y22221084D01*
X-11283604Y22140370D01*
X-11283615Y22140365D01*
X-11502230Y22022057D01*
X-11549057Y21985611D01*
X-10725446Y21162000D01*
X-10731661Y21162000D01*
X-10833394Y21134741D01*
X-10924606Y21082080D01*
X-10999080Y21007606D01*
X-11051741Y20916394D01*
X-11079000Y20814661D01*
X-11079000Y20808446D01*
X-11902437Y21631883D01*
X-12002733Y21478367D01*
X-12002735Y21478363D01*
X-12102588Y21250718D01*
X-12163613Y21009739D01*
X-12163615Y21009730D01*
X-12184141Y20762006D01*
X-31423788Y20762006D01*
X-31378220Y21049713D01*
X-31357922Y21437000D01*
X-31357922Y21437001D01*
X-31378220Y21824288D01*
X-31438887Y22207324D01*
X-31438888Y22207331D01*
X-31504426Y22451922D01*
X-27909400Y22451922D01*
X-27909400Y22238579D01*
X-27876025Y22027859D01*
X-27876025Y22027856D01*
X-27810100Y21824960D01*
X-27717141Y21642518D01*
X-27713242Y21634866D01*
X-27587841Y21462266D01*
X-27436984Y21311409D01*
X-27264384Y21186008D01*
X-27126110Y21115554D01*
X-27074291Y21089151D01*
X-26871394Y21023226D01*
X-26871393Y21023226D01*
X-26871390Y21023225D01*
X-26660672Y20989850D01*
X-26660671Y20989850D01*
X-26447329Y20989850D01*
X-26447328Y20989850D01*
X-26236610Y21023225D01*
X-26236607Y21023226D01*
X-26236606Y21023226D01*
X-26033710Y21089151D01*
X-26033710Y21089152D01*
X-26033707Y21089152D01*
X-25843616Y21186008D01*
X-25671016Y21311409D01*
X-25520159Y21462266D01*
X-25394758Y21634866D01*
X-25297902Y21824957D01*
X-25233861Y22022056D01*
X-25231976Y22027856D01*
X-25231976Y22027857D01*
X-25231975Y22027860D01*
X-25198600Y22238578D01*
X-25198600Y22451922D01*
X-25231975Y22662640D01*
X-25231976Y22662644D01*
X-25231976Y22662645D01*
X-25297901Y22865541D01*
X-25394759Y23055635D01*
X-25395718Y23056955D01*
X-25520159Y23228234D01*
X-25671016Y23379091D01*
X-25843616Y23504492D01*
X-25908335Y23537468D01*
X-26033710Y23601350D01*
X-26236607Y23667275D01*
X-26394649Y23692307D01*
X-26447328Y23700650D01*
X-26660672Y23700650D01*
X-26730912Y23689525D01*
X-26871392Y23667275D01*
X-26871395Y23667275D01*
X-27074291Y23601350D01*
X-27264385Y23504492D01*
X-27436987Y23379089D01*
X-27587839Y23228237D01*
X-27713242Y23055635D01*
X-27810100Y22865541D01*
X-27876025Y22662645D01*
X-27876025Y22662642D01*
X-27909400Y22451922D01*
X-31504426Y22451922D01*
X-31539263Y22581937D01*
X-31678245Y22943995D01*
X-31854311Y23289544D01*
X-32065524Y23614784D01*
X-32065525Y23614786D01*
X-32274098Y23872350D01*
X-33768749Y22377699D01*
X-33842588Y22479330D01*
X-34020670Y22657412D01*
X-34122303Y22731253D01*
X-32627652Y24225904D01*
X-32885215Y24434475D01*
X-32885217Y24434477D01*
X-33210172Y24645505D01*
X-33255675Y24698526D01*
X-33265289Y24767731D01*
X-33235962Y24831148D01*
X-33177005Y24868642D01*
X-33142637Y24873500D01*
X-2074186Y24873500D01*
X-2007147Y24853815D01*
G37*
%TD.AperFunction*%
%TA.AperFunction,Conductor*%
G36*
X6204576Y-27858685D02*
G01*
X6250331Y-27911489D01*
X6260275Y-27980647D01*
X6231250Y-28044203D01*
X6221440Y-28053446D01*
X6221516Y-28053522D01*
X6215770Y-28059267D01*
X6122560Y-28180741D01*
X6063967Y-28322197D01*
X6063966Y-28322199D01*
X6043982Y-28473998D01*
X6043982Y-28474001D01*
X6063966Y-28625800D01*
X6063967Y-28625802D01*
X6122560Y-28767258D01*
X6122561Y-28767259D01*
X6215769Y-28888731D01*
X6337241Y-28981939D01*
X6478698Y-29040533D01*
X6554599Y-29050525D01*
X6630499Y-29060518D01*
X6630500Y-29060518D01*
X6630501Y-29060518D01*
X6681100Y-29053856D01*
X6782302Y-29040533D01*
X6923759Y-28981939D01*
X6999516Y-28923808D01*
X7064682Y-28898616D01*
X7133127Y-28912654D01*
X7150475Y-28923802D01*
X7226241Y-28981939D01*
X7367698Y-29040533D01*
X7443599Y-29050525D01*
X7519499Y-29060518D01*
X7519500Y-29060518D01*
X7519501Y-29060518D01*
X7570100Y-29053856D01*
X7671302Y-29040533D01*
X7812759Y-28981939D01*
X7888516Y-28923808D01*
X7953682Y-28898616D01*
X8022127Y-28912654D01*
X8039475Y-28923802D01*
X8115241Y-28981939D01*
X8256698Y-29040533D01*
X8332599Y-29050525D01*
X8408499Y-29060518D01*
X8408500Y-29060518D01*
X8408501Y-29060518D01*
X8459100Y-29053856D01*
X8560302Y-29040533D01*
X8701759Y-28981939D01*
X8758764Y-28938198D01*
X8823933Y-28913004D01*
X8892378Y-28927042D01*
X8909737Y-28938198D01*
X8966741Y-28981939D01*
X9108198Y-29040533D01*
X9184099Y-29050525D01*
X9259999Y-29060518D01*
X9260000Y-29060518D01*
X9260001Y-29060518D01*
X9310600Y-29053856D01*
X9411802Y-29040533D01*
X9553259Y-28981939D01*
X9674731Y-28888731D01*
X9767939Y-28767259D01*
X9826533Y-28625802D01*
X9846518Y-28474000D01*
X9826533Y-28322198D01*
X9767939Y-28180741D01*
X9674731Y-28059269D01*
X9674729Y-28059268D01*
X9674729Y-28059267D01*
X9668984Y-28053522D01*
X9670577Y-28051928D01*
X9636271Y-28004941D01*
X9632121Y-27935195D01*
X9666337Y-27874276D01*
X9728056Y-27841527D01*
X9752963Y-27839000D01*
X17518000Y-27839000D01*
X17585039Y-27858685D01*
X17630794Y-27911489D01*
X17642000Y-27963000D01*
X17642000Y-45114000D01*
X17622315Y-45181039D01*
X17569511Y-45226794D01*
X17518000Y-45238000D01*
X17056292Y-45238000D01*
X16989253Y-45218315D01*
X16943498Y-45165511D01*
X16933554Y-45096353D01*
X16962579Y-45032797D01*
X17008840Y-44999439D01*
X17046257Y-44983940D01*
X17046257Y-44983939D01*
X17046259Y-44983939D01*
X17167731Y-44890731D01*
X17260939Y-44769259D01*
X17319533Y-44627802D01*
X17339518Y-44476000D01*
X17336034Y-44449539D01*
X17319533Y-44324199D01*
X17319533Y-44324198D01*
X17260939Y-44182741D01*
X17167731Y-44061269D01*
X17046259Y-43968061D01*
X17046258Y-43968060D01*
X16904802Y-43909467D01*
X16904800Y-43909466D01*
X16753001Y-43889482D01*
X16752999Y-43889482D01*
X16601199Y-43909466D01*
X16601197Y-43909467D01*
X16459741Y-43968060D01*
X16338270Y-44061267D01*
X16279876Y-44137369D01*
X16223448Y-44178571D01*
X16153702Y-44182726D01*
X16092781Y-44148513D01*
X16083124Y-44137369D01*
X16024729Y-44061267D01*
X15903258Y-43968060D01*
X15761802Y-43909467D01*
X15761800Y-43909466D01*
X15610001Y-43889482D01*
X15609999Y-43889482D01*
X15458199Y-43909466D01*
X15458197Y-43909467D01*
X15316741Y-43968060D01*
X15195270Y-44061267D01*
X15136876Y-44137369D01*
X15080448Y-44178571D01*
X15010702Y-44182726D01*
X14949781Y-44148513D01*
X14940124Y-44137369D01*
X14881729Y-44061267D01*
X14760258Y-43968060D01*
X14618802Y-43909467D01*
X14618800Y-43909466D01*
X14467001Y-43889482D01*
X14466999Y-43889482D01*
X14315199Y-43909466D01*
X14315197Y-43909467D01*
X14173741Y-43968060D01*
X14052269Y-44061269D01*
X13959060Y-44182741D01*
X13900467Y-44324197D01*
X13900466Y-44324199D01*
X13880482Y-44475998D01*
X13880482Y-44476001D01*
X13900466Y-44627800D01*
X13900467Y-44627802D01*
X13959060Y-44769258D01*
X13959061Y-44769259D01*
X14052269Y-44890731D01*
X14150812Y-44966345D01*
X14173742Y-44983940D01*
X14211160Y-44999439D01*
X14265564Y-45043280D01*
X14287629Y-45109574D01*
X14270350Y-45177273D01*
X14219213Y-45224884D01*
X14163708Y-45238000D01*
X367000Y-45238000D01*
X299961Y-45218315D01*
X254206Y-45165511D01*
X243000Y-45114000D01*
X243000Y-34188998D01*
X6641482Y-34188998D01*
X6641482Y-34189001D01*
X6661466Y-34340800D01*
X6661467Y-34340802D01*
X6720060Y-34482258D01*
X6720061Y-34482259D01*
X6813269Y-34603731D01*
X6934741Y-34696939D01*
X7076198Y-34755533D01*
X7152099Y-34765525D01*
X7227999Y-34775518D01*
X7228000Y-34775518D01*
X7228001Y-34775518D01*
X7278600Y-34768856D01*
X7379802Y-34755533D01*
X7521259Y-34696939D01*
X7642731Y-34603731D01*
X7642734Y-34603726D01*
X7648319Y-34598143D01*
X7709642Y-34564658D01*
X7779334Y-34569642D01*
X7823681Y-34598143D01*
X7829267Y-34603729D01*
X7829269Y-34603731D01*
X7950741Y-34696939D01*
X8092198Y-34755533D01*
X8168099Y-34765525D01*
X8243999Y-34775518D01*
X8244000Y-34775518D01*
X8244001Y-34775518D01*
X8294600Y-34768856D01*
X8395802Y-34755533D01*
X8537259Y-34696939D01*
X8658731Y-34603731D01*
X8751939Y-34482259D01*
X8810533Y-34340802D01*
X8830518Y-34189000D01*
X8810533Y-34037198D01*
X8751939Y-33895741D01*
X8658731Y-33774269D01*
X8537259Y-33681061D01*
X8537258Y-33681060D01*
X8395802Y-33622467D01*
X8395800Y-33622466D01*
X8244001Y-33602482D01*
X8243999Y-33602482D01*
X8092199Y-33622466D01*
X8092197Y-33622467D01*
X7950741Y-33681060D01*
X7829267Y-33774270D01*
X7823681Y-33779857D01*
X7762358Y-33813342D01*
X7692666Y-33808358D01*
X7648319Y-33779857D01*
X7642732Y-33774270D01*
X7521258Y-33681060D01*
X7379802Y-33622467D01*
X7379800Y-33622466D01*
X7228001Y-33602482D01*
X7227999Y-33602482D01*
X7076199Y-33622466D01*
X7076197Y-33622467D01*
X6934741Y-33681060D01*
X6813269Y-33774269D01*
X6720060Y-33895741D01*
X6661467Y-34037197D01*
X6661466Y-34037199D01*
X6641482Y-34188998D01*
X243000Y-34188998D01*
X243000Y-31648998D01*
X6641482Y-31648998D01*
X6641482Y-31649001D01*
X6661466Y-31800800D01*
X6661467Y-31800802D01*
X6720060Y-31942258D01*
X6720061Y-31942259D01*
X6813269Y-32063731D01*
X6934741Y-32156939D01*
X7076198Y-32215533D01*
X7152099Y-32225525D01*
X7227999Y-32235518D01*
X7228000Y-32235518D01*
X7228001Y-32235518D01*
X7278600Y-32228856D01*
X7379802Y-32215533D01*
X7521259Y-32156939D01*
X7642731Y-32063731D01*
X7642734Y-32063726D01*
X7648319Y-32058143D01*
X7709642Y-32024658D01*
X7779334Y-32029642D01*
X7823681Y-32058143D01*
X7829267Y-32063729D01*
X7829269Y-32063731D01*
X7950741Y-32156939D01*
X8092198Y-32215533D01*
X8168099Y-32225525D01*
X8243999Y-32235518D01*
X8244000Y-32235518D01*
X8244001Y-32235518D01*
X8294600Y-32228856D01*
X8395802Y-32215533D01*
X8537259Y-32156939D01*
X8658731Y-32063731D01*
X8751939Y-31942259D01*
X8810533Y-31800802D01*
X8823856Y-31699600D01*
X8830518Y-31649001D01*
X8830518Y-31648998D01*
X8810533Y-31497199D01*
X8810533Y-31497198D01*
X8751939Y-31355741D01*
X8658731Y-31234269D01*
X8537259Y-31141061D01*
X8537258Y-31141060D01*
X8395802Y-31082467D01*
X8395800Y-31082466D01*
X8244001Y-31062482D01*
X8243999Y-31062482D01*
X8092199Y-31082466D01*
X8092197Y-31082467D01*
X7950741Y-31141060D01*
X7829267Y-31234270D01*
X7823681Y-31239857D01*
X7762358Y-31273342D01*
X7692666Y-31268358D01*
X7648319Y-31239857D01*
X7642732Y-31234270D01*
X7521258Y-31141060D01*
X7379802Y-31082467D01*
X7379800Y-31082466D01*
X7228001Y-31062482D01*
X7227999Y-31062482D01*
X7076199Y-31082466D01*
X7076197Y-31082467D01*
X6934741Y-31141060D01*
X6813269Y-31234269D01*
X6720060Y-31355741D01*
X6661467Y-31497197D01*
X6661466Y-31497199D01*
X6641482Y-31648998D01*
X243000Y-31648998D01*
X243000Y-27963000D01*
X262685Y-27895961D01*
X315489Y-27850206D01*
X367000Y-27839000D01*
X6137537Y-27839000D01*
X6204576Y-27858685D01*
G37*
%TD.AperFunction*%
%TD*%
M02*
