M48
; DRILL file {KiCad 9.0.9} date 2026-09-19T11:54:37+0000
; FORMAT={-:-/ absolute / metric / decimal}
; #@! TF.CreationDate,2026-09-19T11:54:37+00:00
; #@! TF.GenerationSoftware,Kicad,Pcbnew,9.0.9
; #@! TF.FileFunction,Plated,1,4,PTH
FMAT,2
METRIC
; #@! TA.AperFunction,Plated,PTH,ViaDrill
T1C0.300
; #@! TA.AperFunction,Plated,PTH,ViaDrill
T2C0.381
; #@! TA.AperFunction,Plated,PTH,ComponentDrill
T3C0.500
; #@! TA.AperFunction,Plated,PTH,ComponentDrill
T4C0.600
; #@! TA.AperFunction,Plated,PTH,ComponentDrill
T5C0.680
; #@! TA.AperFunction,Plated,PTH,ComponentDrill
T6C0.700
; #@! TA.AperFunction,Plated,PTH,ComponentDrill
T7C0.800
; #@! TA.AperFunction,Plated,PTH,ComponentDrill
T8C1.829
; #@! TA.AperFunction,Plated,PTH,ComponentDrill
T9C2.250
; #@! TA.AperFunction,Plated,PTH,ComponentDrill
T10C3.200
; #@! TA.AperFunction,Plated,PTH,ComponentDrill
T11C4.216
%
G90
G05
T1
X-1.916Y-14.631
X0.878Y-19.584
T2
X-37.603Y3.022
X-37.095Y-22.378
X-37.095Y-28.347
X-34.428Y-0.915
X-33.285Y-21.616
X-33.031Y-14.758
X-32.777Y-5.084
X-32.396Y-24.727
X-32.269Y-11.075
X-31.761Y-0.026
X-30.872Y-0.026
X-26.681Y-0.153
X-26.173Y-1.423
X-25.792Y12.547
X-25.284Y-17.092
X-23.633Y-12.091
X-21.957Y-12.599
X-21.877Y-11.434
X-21.347Y12.547
X-21.22Y7.34
X-20.458Y-12.218
X-20.331Y7.34
X-19.569Y-9.551
X-19.188Y-12.853
X-19.188Y-13.742
X-18.934Y-1.677
X-18.426Y2.641
X-17.918Y-1.677
X-17.537Y2.641
X-17.156Y-26.823
X-17.156Y-27.712
X-17.029Y-6.503
X-17.029Y-7.392
X-16.267Y-26.823
X-16.267Y-27.712
X-16.14Y-6.503
X-16.14Y-7.392
X-12.551Y-21.033
X-12.33Y-17.171
X-11.441Y-17.171
X-11.06Y-20.092
X-10.679Y-22.505
X-10.425Y2.895
X-10.425Y-2.312
X-8.647Y-9.043
X-8.647Y-14.631
X-7.758Y-13.615
X-7.504Y-4.344
X-7.123Y-11.329
X-6.488Y3.022
X-6.361Y8.737
X-6.361Y5.816
X-5.98Y-17.933
X-5.726Y-25.807
X-4.727Y-14.105
X-4.583Y-22.505
X-3.821Y5.816
X-3.821Y3.022
X-3.186Y-11.329
X-2.805Y-16.536
X-1.789Y24.104
X-1.154Y-22.505
X-0.963Y-3.645
X-0.9Y-0.915
X-0.9Y-2.058
X-0.9Y-5.36
X-0.9Y-6.757
X-0.9Y-7.9
X-0.9Y-9.805
X-0.646Y17.881
X-0.519Y-12.599
X0.243Y-11.456
X0.37Y17.754
X0.624Y2.768
X0.878Y21.056
X1.259Y-28.855
X1.406Y-13.254
X1.631Y-22.742
X1.764Y17.754
X1.767Y4.8
X2.275Y-7.011
X2.285Y-5.985
X2.402Y24.104
X2.402Y1.625
X2.529Y9.859
X2.631Y-8.514
X2.91Y-13.615
X3.037Y4.8
X3.291Y-6.757
X3.418Y17.754
X3.418Y-26.315
X3.672Y1.498
X3.916Y-13.363
X3.926Y-4.852
X4.434Y-2.693
X4.527Y-24.63
X4.561Y-16.282
X4.942Y17.881
X4.945Y-26.176
X5.323Y0.736
X5.45Y-10.208
X5.555Y-16.282
X5.704Y20.675
X6.212Y1.698
X6.63Y-25.971
X6.63Y-28.474
X6.847Y17.881
X7.101Y9.626
X7.228Y-31.649
X7.228Y-34.189
X7.482Y-13.361
X7.519Y-25.971
X7.519Y-28.474
X7.736Y0.863
X8.117Y17.754
X8.244Y24.104
X8.244Y7.213
X8.244Y-31.649
X8.244Y-34.189
X8.371Y-5.868
X8.409Y-25.971
X8.409Y-28.474
X8.498Y-20.854
X9.006Y7.975
X9.26Y-25.971
X9.26Y-28.474
X9.387Y-16.282
X9.514Y5.943
X9.514Y4.927
X9.895Y-33.427
X9.895Y-34.316
X9.895Y-35.205
X10.657Y-13.488
X10.657Y-20.473
X10.784Y9.372
X10.911Y1.625
X11.673Y-10.186
X11.8Y9.118
X11.8Y7.848
X12.054Y0.99
X12.562Y1.879
X13.578Y1.879
X13.578Y-20.346
X14.213Y-0.455
X14.213Y-1.55
X14.467Y-44.476
X14.848Y11.658
X14.975Y5.181
X14.975Y-13.488
X15.61Y-44.476
X16.753Y3.53
X16.753Y-33.427
X16.753Y-34.316
X16.753Y-35.205
X16.753Y-44.476
X17.388Y1.371
X18.531Y5.689
X18.785Y21.564
X22.849Y-4.852
T3
X-37.463Y21.437
X-37.463Y-42.063
X-36.76Y23.134
X-36.76Y19.74
X-36.76Y-40.366
X-36.76Y-43.76
X-35.063Y23.837
X-35.063Y19.037
X-35.063Y-39.663
X-35.063Y-44.463
X-33.366Y23.134
X-33.366Y19.74
X-33.366Y-40.366
X-33.366Y-43.76
X-32.663Y21.437
X-32.663Y-42.063
X26.037Y21.437
X26.037Y-42.063
X26.74Y23.134
X26.74Y19.74
X26.74Y-40.366
X26.74Y-43.76
X28.437Y23.837
X28.437Y19.037
X28.437Y-39.663
X28.437Y-44.463
X30.134Y23.134
X30.134Y19.74
X30.134Y-40.366
X30.134Y-43.76
X30.837Y21.437
X30.837Y-42.063
T4
X25.402Y11.003
X25.402Y9.753
X25.402Y8.503
X25.402Y-5.888
X25.402Y-7.138
X25.402Y-8.388
X26.652Y11.003
X26.652Y9.753
X26.652Y8.503
X26.652Y-5.888
X26.652Y-7.138
X26.652Y-8.388
T5
X-36.063Y-8.313
X-36.063Y-10.313
X-36.063Y-12.313
X-34.063Y-8.313
X-34.063Y-10.313
X-34.063Y-12.313
T6
X-27.824Y0.755
X-25.284Y0.755
X-22.744Y3.295
X-22.744Y0.755
X-20.204Y0.755
X-17.664Y0.755
T7
X-10.679Y20.762
X-10.679Y15.762
T8
X21.335Y-21.171
X21.335Y-29.426
T9
X25.402Y14.903
X25.402Y4.603
X25.402Y-1.988
X25.402Y-12.288
T10
X-35.063Y21.437
X-35.063Y-42.063
X28.437Y21.437
X28.437Y-42.063
T11
X-19.608Y-34.189
X-19.608Y-40.793
X-8.432Y-34.189
M30
